<svg xmlns="http://www.w3.org/2000/svg" viewBox="0 0 1037.76 627.72"><defs><style>.a{fill:none;}</style></defs><title>final</title><path d="M439.28,182.79H443q2,0,4.24,9.33a7.65,7.65,0,0,0-.28,1.7c.18.94.28,1.23.28.85h4c1.51.38,2.26,1.13,2.26,2.26,0,1.88-2.45,3.11-7.35,3.67-.56,3.4-.85,5.28-.85,5.66l.85.28q2,0,13.57-1.41,3.67,1.41,3.68,3.11c0,1.51-.85,2.26-2.55,2.26H448.32v1.13q10.74,6.78,28,11v2.27l-.85,2.26q-20.93-3.39-33.07-14.42h-5.66q-17.81,20.36-20.07,20.36h-2.55v-3.68q4,0,13.86-15v.28c-1,0-1.42.1-1.42.28.38-.18-1.69,0-6.22.57a5.39,5.39,0,0,0-2.82-.85V210.5h4.24q8.76,0,8.76-3.39a35.34,35.34,0,0,0,.85-4.81H430l-4.53-1.13v-2.83q5.94-.84,5.94-2v-1.13l-1.13-5.65,3.39-1.13q3.11,8.2,2.55,8.2H439a2.5,2.5,0,0,0,2.83-2.83Q441.82,190.15,439.28,182.79Zm-12.44,43.54h4.8V228a11.65,11.65,0,0,1-5.37,10.17h-3.11Zm10.74-9.89h2.26q3.11,0,4.24,18.09-1.12,13.58-4.24,13.57H439q-1.69,0-6.5-5.94V239.9l4.52.85h.57a.25.25,0,0,0,.28-.28V224.63a9.14,9.14,0,0,0-1.41-3.67Zm-1.7-8.77.29.28H437c2.45,0,3.68-2,3.68-5.93l-.85-.29h-3.39l-.57.29Zm11,19.23h2.83q2.53,1.13,5.65,7.35c0,1.88-.85,2.82-2.54,2.82h-.57C450,236.51,448.22,233.12,446.91,226.9Zm6.78-1.14h3.68q1.69,0,7.35,8.49v3.67h-2.26Q458.79,237.92,453.69,225.76Z" transform="translate(0 -22.77)"/><path d="M527.2,207.11c3.76.94,5.65,2.07,5.65,3.39v1.69q-6.78,5.1-6.78,7.64l.56,2.54c0,1.32-1.13,2.74-3.39,4.24a91.26,91.26,0,0,0,10.18.29h7.63q5.37,0,6.78,4.24V232l-.84,2.27-29.12-1.7q-19.8,2.83-23.47,2.83-5.37,0-5.93-2.83v-2c.75,0,1.13-.18,1.13-.56l2.26.56q15-1.41,15-1.7V228l-3.11-18.66c.75,0,1.13-.29,1.13-.85l4.24.85Q522.11,207.11,527.2,207.11Zm-9.47-24c2,2.26,3,4.14,3,5.65v3.68q9.33-.57,13-.57l2.26,3.68c-2.08,1.51-3.58,2.26-4.52,2.26h-9.61q-.57,0-1.14,1.41v1.13c0,.19-.09.28-.27.28h1.41a.5.5,0,0,1-.57-.56q4.51.57,4.52,4.8v1.42l-16.68,2c-2.82-.19-4.24-1.23-4.24-3.11v-1.42q9.33-.84,9.33-3.39v-.85h.29l-6.22.57c-3.78-.19-5.66-1.23-5.66-3.11V195.8l5.37-1.13H515v-4.53l-.85-3.95C515.3,184.11,516.48,183.08,517.73,183.08Zm6.92,50q9.33,1.41,9.33,4.24c-3.77,4.89-5.65,7.63-5.65,8.19l1.13,4.24-4.52.85H509.1c-2.64,0-4.33-1.13-5.09-3.39,0-.19.1-1.32.29-3.39-.76-1-1.13-3.77-1.13-8.48Zm-13,6.78a7,7,0,0,0-2.55-.57h-.84c.56,3.4,1,5.09,1.41,5.09h4.81a10.45,10.45,0,0,0,2.54-.28l1.13.28q7.35-.81,7.35-5.65v.28h-.56Q514.75,239.05,511.65,239.9Zm-1.42-24.6v1.42a1.12,1.12,0,0,0,.85,1.13q12.44,0,13.29-5.37Q515.61,212.48,510.23,215.3Zm1.14,7.92c.37,2.45.75,3.68,1.13,3.68h.84q6.23-.57,6.22-5.38v.29A64.26,64.26,0,0,0,511.37,223.22Z" transform="translate(0 -22.77)"/><path d="M576.39,189.3l3.11,6.78-8.48,9v.28l1.41,4.81-.28,27.14v4.24a10.24,10.24,0,0,1-5.66-2l.29-29.69v-.56h-.29q-4.8,4.51-9.33,4.52Q573.29,193.54,576.39,189.3Zm4.24,28.83h4.8V221q0,6.22-5.65,10.46H576.1Zm8.61-30.25c1.59,0,2.58,2.08,3,6.22q12.43.85,15.55-1.41a16.2,16.2,0,0,1,6.22,2v2q0,4-10.46,10.46h-2v-2.27l3.39-4.8v-.28l-4.81.28c-6.4.56-10,1.69-10.74,3.39l-5.65,6.22-1.42,1.41-2.26-1.13q6.23-12.15,6.5-22.05Zm3.83,16.4h2.54q2.55,0,4.24,14.42c0,1.69.09,4.43.28,8.2v6.78a31.82,31.82,0,0,1-.84,9v2h-3.4q-6.21-4.25-6.22-9.9l3.68.85h.28q.29-9.33,0-17A134.09,134.09,0,0,1,593.07,204.28Zm14.42,15.55a14.52,14.52,0,0,1,12.15,5.93,45.83,45.83,0,0,0-.28,5.09h-2.83q-6.51-3.94-9-8.2Z" transform="translate(0 -22.77)"/><path d="M365.49,277.56c2.64,1.51,4.24,2.82,4.81,3.95,0,2.08-2.55,3.3-7.64,3.68q-4.52,9.33-4.52,10.74v-.28q7.07,0,7.07-6.79h1.69Q374,294.8,374,299.61L370,303l-2.26-3.68a45,45,0,0,0-4.52.85,30.63,30.63,0,0,0,.28,6.79h-.57l7.64-1.13v3.39q0,3.12-7.07,3.67l.57,2.55h-.57a94.53,94.53,0,0,0,9.05-3.39h2v2.54Q353.61,332.4,346,332.4l-.85-2.54-.28-3.4q10.45-5.93,12.44-8.19v-2.83a.25.25,0,0,0-.28-.28q-3.39-.57-3.39.84a13.94,13.94,0,0,1-5.94-4.52l9.61-3.39v-.85q.57-4.25-1.13-4.24a11.1,11.1,0,0,0-5.94,2,5.31,5.31,0,0,0-3.39-1.41v-2.83q6.5-6.51,9.05-12.44l.28-1.7c0-.56-2-1.13-5.94-1.69v-4.24Q362.66,279.55,365.49,277.56ZM381.6,293.1q4.25,0,4.24,13v.56l-.56,5.94H383q-1.69,0-4-3.67a48.06,48.06,0,0,0,1.13-7.92l-.57-6.5ZM394.81,275q2.69,0,4,7.07v49.19h.28q-.28,5.66-3.78,5.65-3.86-1.41-12.05-10.74v-2q2.82,0,10.16,4.24h-.27V279a9,9,0,0,1-.56-3.39Z" transform="translate(0 -22.77)"/><path d="M417.51,296.78h2.82q3.68,0,7.64,3.68l-.29,7.35v.28Q429.95,322,439,321.94a318.71,318.71,0,0,0,37.6,3.68c0,.94.94,1.41,2.83,1.41v2.26q0,3.68-19.51,4a113.8,113.8,0,0,0-20.07-4q-10.45-5.09-27.14-7.91l-.85-2q0-2.82,4.53-3.68a31.58,31.58,0,0,0,7.91,1.42l-4-9.33.85-4-7.07-5.66Zm6.22-16.4q6.78,2.83,8.19,5.94v3.11c-5.84-1.51-8.76-4.14-8.76-7.92C423.54,281.51,423.73,281.14,423.73,280.38ZM448,270.49h2.83c1.88.56,2.82,2.64,2.82,6.22V288.3q1.13,0,6.51-2c2.63.95,4.24,2,4.8,3.11v3.11q-12.44,0-12.44,7.63Q442.1,316.58,435,317.42a6.88,6.88,0,0,0-2.54-.57v-3.11q13-8.19,13-18.09v.56a8,8,0,0,1-7.07-3.95v-2.55l7.63.57q2,0,2-15.83h-.57A16.52,16.52,0,0,0,448,270.49Zm7.35,31.38q16.11,5.08,16.11,9.05c0,1.69-1.13,2.54-3.39,2.54q-11.31-5.65-13.29-8.76Z" transform="translate(0 -22.77)"/><path d="M524.09,275q4.8,1.69,4.8,3.39v1.14l-11,14.7q4.51,5.08,6.22,20.63-.86,13.29-8.48,20.92-8.78-8.19-12.16-13.28v-2.26H506l7.07,4.24h1.7q1.41,0,2-11.6-1.14-12.43-6.22-19.22,2.54,0,6.22-9.33l1.41-2.26c0-.19-.19-.28-.57-.28l-13.85,2.82c-2.45-1.5-3.67-2.73-3.67-3.67v-1.41Q501.76,277.83,524.09,275Z" transform="translate(0 -22.77)"/><path d="M607.2,292.54l8.77.56v5.38c-1,0-1.42.28-1.42.85a27.81,27.81,0,0,0-11.87-.28,106.89,106.89,0,0,0-17.53,3.12v8.53a4.54,4.54,0,0,0,3.68,2.84,17.85,17.85,0,0,0-4,11.79h0q6.78-6.49,9.61-9.33,0-.56-6.5-5.93v-2.83h3.67l7.07,5.09c1.13-.57,1.7-2.26,1.7-5.09v.28h.85a22.71,22.71,0,0,0-5.94,1.42q-4-2-4-4.24,3.68-1.41,13-4.24c2.63.94,4,2,4,3.11q-.57,4.51-5.65,11.87,1.7,4.24,16.68,11.31,0,3.39-2.55,3.39-7.9,0-18.37-9.33h-.28a140.85,140.85,0,0,0-13.29,9.9l-.28,4.52q0,4.8-3.23,5.09h-.54l-3.3-2a37.49,37.49,0,0,0,1.41-9.33v-5.94h-.45A31.78,31.78,0,0,1,565.75,329a15.66,15.66,0,0,0-3.1-.28v-2.55q0-1.69,16.28-9.33v-2h.81c-3.93,0-5.9.95-5.9,2.83s-1.59,3.49-4.76,4.81a39,39,0,0,1-.59-12.16l-.3-7.07-8.77-.56-.28-4.81q12.11-.56,24.15-2.26T607.2,292.54ZM573.84,303.4v.73h.81q5.36-.24,5.36-1.21v-.49C575.9,302.43,573.84,302.76,573.84,303.4Zm0,6.67h1.61c2.32,0,3.48-.38,3.48-1.13h-.18l-4.91.84Zm8.48-15.83a6.56,6.56,0,0,0-2.54.84c-3-.94-4.52-2.92-4.52-5.93l-.29-9.61a.49.49,0,0,1-.56.56q0-7.64,17.53-7.35,3.1-.28,6.22-.28,4.8,0,4.8,4L598.16,290l-.85,2.54Zm.52-15.13H580v1.27h5.37q9.61-1.26,11-1.27v-1.27h-2.83Q592.44,277.84,582.84,279.11Zm-1.65,6.64h-.28V286q.29,2.82.57,2.82,12.72,0,12.72-3.39v-1.13A76.1,76.1,0,0,1,581.19,285.75Z" transform="translate(0 -22.77)"/><path d="M672.22,274.45h.85q1.41,0,6.22,5.93-20.07,6.22-24.31,8.77c1.51,4,2.16,6.5,2,7.63a129.43,129.43,0,0,1,28.55-3.39l2.83,4q0,1.13-3.11,3.11-4.25-.29-6.22-.29-24.32,2.83-24.6,4.53Q642,329.86,634.06,329.86v-2q14.13-20.36,14.42-27.71,1.13-9-4-9V288.3q3.11-2.26,12.16-6.5ZM677,306.11q5.09,0,10.74,5.37V314Q681,324.49,681,324.77l1.41,2c0,2.07-.85,3.11-2.54,3.11h-5.37a76.73,76.73,0,0,0-15.27,2h-.85q-2.82,0-5.37-16.4l-1.41-4Q658.66,307.8,677,306.11Zm-17.81,9.09q.57,9.29,2.26,9.29h3.11q15.27-.87,13.29-11l-.57-.29h-.56Q659.21,313.18,659.22,315.2Z" transform="translate(0 -22.77)"/><path d="M136.21,381.65h.85q3.1.84,2,5.09v12.44l4-1.13q-5,17.24-6.59,17.24h-.55c-1.65,0-2.47-.75-2.47-2.26q.56-16.68.56-25.73H128v-4.24A42.63,42.63,0,0,1,136.21,381.65Zm-2-12.16h2.26c2.82,0,4.71,1.13,5.65,3.39v2l-2.26,3.4q-5.65-4.81-5.65-6.51Zm24.59-11.59h4.52l.57,5.94v1.41c-.19,0,.19.19,1.13.57l4-.57h2.26v4.24c-4.9.57-7.35,1.13-7.35,1.7v2h6.22V376l-6.79,3.68v.85q9.9-.57,14.71-.57h3.11q1.41,0,4,3.39V385l-5.09.85h-5.65q-11,0-30,3.39a5.68,5.68,0,0,0-2.54-.56v-2q0-2.55,14.7-4.24l.85-1.13v-.29c0-.18-.38-.47-1.13-.85h-.85c.18,0,.28.19.28.57a18.48,18.48,0,0,0-4.52-.57l-.57-4.52c4-.18,6.51-.85,7.64-2V372.6q-.28-.56-5.94.57l-1.41-4.81,7.63-2.26a24.22,24.22,0,0,0,.28-4.24Zm9.9,28.27q5.09,0,4.8,26.29-.28,10.74-3.11,10.75h-.85c-.94,0-2.92-1.8-5.93-5.38a4.82,4.82,0,0,1,3.67-2l.29-8.77Q156,408.52,156,410.2a33.17,33.17,0,0,1-.84,7.92h-1.42q-1.41,0-4.52-4,2-2.55,2-13.15V389h2Q167.31,387,168.73,386.17ZM156,401.44V404h1.7q9-1.69,9.05-2.54v-2.83Q156,400,156,401.44Zm.85-7.64v1.42q9-2,9.9-2v-1.7h-2.83Q156.86,393,156.85,393.8Z" transform="translate(0 -22.77)"/><path d="M234.31,355.36h3.11q1.13,0,3.68,3.39v.85l-.85,3.39c.38,0,1.22,1.13,2.54,3.39v3.11h-5.08c-.19,0-1.51,1.42-4,4.24v.57l7.91-.85a30.5,30.5,0,0,0,3.68.28q10.46,2.26,10.46,4.81v2q-11.6,5.94-11.59,6.78l.56,3.4q-2.82,16.95-7.35,17-3.1-2.55-5.09-2.55v-2.54q4.24-1.12,5.38-7.07l1.13-4c0,.19-.19.29-.57.29l-7.63.56-.28,25.73-.57,8.76h-2l-2.26-1.68a49.46,49.46,0,0,0-.57-7l-.28-23.58v-.84l-2.26.56a9.57,9.57,0,0,0-4,1.68v12.07h-3.11c-1.69,0-2.54-.74-2.54-2.24V393.76l-1.42-2v-1.12a3,3,0,0,1,2.83-2.25l2,1.4q8.47-1.11,8.48-2.24a31.92,31.92,0,0,1-.85-6.21l2.27-.85h1.69a8.87,8.87,0,0,1,2.26,6.5h3.68q8.48,0,11.87-7l-.56-.3q-13.58.84-20.08.85l-15,2.82-.85,12.16h-3.67L204.35,391q-1.42-9.33-1.42-11v-1.69h3.68l9.89-1.42v-.56q0-3.39-3.95-3.68l-.29-5.09,3.39-.56v-.28a30.88,30.88,0,0,0-1.69-6.22L216.5,359q1.69,0,5.66,7.64h1.13c.18,0,.47-.38.85-1.14l-.85-5.65h2.83q2.53,0,3.39,4.52h2.26c1.88,0,3.11-.56,3.67-1.69V361ZM221.87,374.3v.85c0,.19.1.28.29.28q2.53,0,2.82-.57l-1.41-3.67C222.44,371.57,221.87,372.6,221.87,374.3Zm7.92-3.68v1.7h-.56c.37,0,.75-.38,1.13-1.13v-.57Z" transform="translate(0 -22.77)"/><path d="M306.4,357.05h3.68v3.11a4.9,4.9,0,0,1-1.41,2.83q.56,0,3.67,3.39-.57,2.83-9,3.68l-.56,2.26c0-.38.37-.66,1.13-.85l3.11-.28c.56.19,1.32-.28,2.26-1.42l1.7,6.33q-10.19,2.31-10.18,3.17l-1.13,1.15c.37.57.66.86.85.86l15.83-1.61h6.22c1.13,0,2.35,1.08,3.67,3.22V385h-2q-26.56,1.14-26.85,2.83-15.56,20.92-22.05,21.48v-2.54q12.15-13.29,13.85-18.09.27,0-13.57,2v-2q0-3.68,2.54-3.68h2q12.43-1.69,12.44-2.83L294,380c.38-.75.85-1.13,1.42-1.13l-4,.57-2,.56-1.13-2.82.57-2.55c5.46-.94,8.19-1.7,8.19-2.26l.29-2.26c.37,0,.09.19-.85.56l-4.52.57h-1.42a2,2,0,0,1-2.26-2.26v-2a16.36,16.36,0,0,0,4-.85v-.85a67.11,67.11,0,0,0-1.7-6.5H294l4.81,5.37Q299.9,364.41,306.4,357.05Zm2.83,30.25q6.21,0,6.22,12v.57q0,6.27-.28,12.54c.18,2.47.28,5.22.28,8.26a12,12,0,0,0-.28,2.85h-3.11a12.08,12.08,0,0,1-3.39-5.09h-2.55a58.29,58.29,0,0,0-11.31,1.7Q290,419,290,414.69q.84-12.84.84-16l.57-5.7Q296.51,387.31,309.23,387.3ZM297.36,404v.29h2.26a44.53,44.53,0,0,0,7.07-1.7,4.88,4.88,0,0,0,3.11,1.13v5.09q-12.45,1.13-12.44.85a6.43,6.43,0,0,0-.57,2.26V413l.28.56q13.29-.27,12.73-3.39,0-5.37-.29-8.76l-.28-.57Q297.92,403.42,297.36,404Zm.56-7.91.29,1.41q11-1.41,11-2.26l-.28-1.7Q298.19,394.09,297.92,396.07Z" transform="translate(0 -22.77)"/><path d="M367.19,357.9h2.42c2.34,0,3.41,2.36,3.23,7.07v9H374a91.2,91.2,0,0,0,9.89-1.42l.57,2.55v3.39l-9.89,1.69v.57q21.76,23.19,23.74,22.62,8.21,3.1,8.2,5.09c0,1.51-.85,2.26-2.54,2.26q-11.6.84-31.95-24.6h.85v4.24l.28,7.35q8.76,1.14,8.77,4.24v.29c0,1.88-2.55,3.11-7.64,3.67q-.57,5.37-1.41,17.81h-2.69q-1.06,0-4.1-5.37a42.1,42.1,0,0,0,.85-10.46l-6.5-.28c-1.7,0-2.54-1-2.54-3.11V404q0-1.69,9-3.39a83.87,83.87,0,0,0,.57-9.89l.85-1.42q-10.47,13.58-20.64,19.51h-4.24q11.3-12.44,22.05-26.86l1.13-1.13v1.13H360.4a6.84,6.84,0,0,0-2.54.57,12.64,12.64,0,0,0-3.4-.57v-4.24q13,0,13-5.94v-5.93Z" transform="translate(0 -22.77)"/><path d="M440.41,386.45h3q2.69.85,2.68,5.94,0,17.82-23.46,28V417q17.81-11,17.81-26.58Zm13.85-24.59c2.83.75,4.24,2,4.24,3.67v.29a2.5,2.5,0,0,1-2.83,2.82h-6.78l-8.77,7.92h-.56q13.85-1.69,15.83-1.7c.57,1.32,1.13,2,1.7,2l-.57,3.11v13.57c-.56,9.05-1.89,13.57-4,13.57H452c-1.51,0-2.26-.94-2.26-2.82A144.87,144.87,0,0,0,450.87,387v-5.65l-.57-1.14q-15,1.42-15.55,3.4v.28a215.68,215.68,0,0,1-1.41,24.31H429.1a7.47,7.47,0,0,0-.57-2.82q.57-12.16.57-19.23V378a5,5,0,0,0,3.11-1.41A4.85,4.85,0,0,0,435,378l3.4-6.5v-.85q-9.9-.56-9.9-3.95v-2A160,160,0,0,0,454.26,361.86Zm-10.74,46.36h2.54q20.07,5.1,20.07,9.33c0,.94-.85,2-2.54,3.11h-1.42q-2.26-2-17.52-7.63l-1.13-2.26Z" transform="translate(0 -22.77)"/><path d="M528.89,363l2,2.83v3.11l-4.24.28-8.76.85-1.42,4a72.44,72.44,0,0,1-6.78,8.76l-.85-.85q13.84-1.12,16.12-1.13h3.95q16.4.57,16.4,7.07-.57,7.63-13.57,31.38h-2.83l-4.52-3.11H512.21a71.56,71.56,0,0,0-12.44,1.41c-2.07,0-4.43-1.51-7.06-4.52l-.57-5.94q-2.55-13-4.24-22,11-2,16.11-2.83l4-7.06a19.41,19.41,0,0,0,2-4.24l-4.8.56q-3.12,1.42-4.24.28c-2.46-.75-3.68-1.88-3.68-3.39V367Zm-23.18,47.78c-.19-.19-.28-1.51-.28-4q0-1.41-.57-11.31c-.19-4-.47-6.4-.85-7.35l-7.63.85c-.38.19-.56.19-.56,0q1.69,6.51,3.39,22.33C502,411.15,504.2,411,505.71,410.77Zm5.09-22.62-.28,2.55h1.69q5.94-.85,5.94-1.7v-2l-7.35.57Zm-.28,11c0,.75.37.94,1.13.56q6.5-.84,6.5-2.83V395.5Q510.51,395.5,510.52,399.18Zm.66,11.59q6.41-.86,6.41-1.42l.56-5.08h-.83Q512,405.11,511.18,410.77ZM523.8,387v22.33c0,.19,1.89.67,5.66,1.42q3.1-1.12,7.91-18.94l.57-3.4q0-1.69-11.87-1.69H523.8Z" transform="translate(0 -22.77)"/><path d="M584.3,403.13h3.4v2.27q-4.25,4-24.32,9.89-3.68-1.41-3.67-3.39Q560.27,409.64,584.3,403.13Zm.29-20.07a7.27,7.27,0,0,1,1.13,2.87q-2.26,15.51-8.48,15.51-1.71,0-10.46,3.39c-.95-1.88-1.7-2.83-2.27-2.83l.57-6v-2.29a46.81,46.81,0,0,0-1.41-5.46v-.57Q563.67,384.21,584.59,383.06Zm-2.27-23.46h3.11q3.41.28,7.92,13.85c.38-.19,3.86-.28,10.46-.28V378q-8.76.86-8.76,1.42,4.51,13.29,5.37,13.28l4.8-7.06h1.13q2.26.57,3.4,4.8a94.26,94.26,0,0,0-6.22,8.48A34.2,34.2,0,0,0,612,411.62a.26.26,0,0,0,.28-.29l.28-7.35,1.13-4q3.4,0,4.25,10.18c.18,8.48-.85,12.72-3.12,12.72q-6.78-3.1-15.54-18.37-4,3.1-11.31,9L583.74,415V411.9l12.44-13.29-1.42-3.11q-4.8-15.27-6.22-15.27l-18.37,1.7c-2.64-.75-4-1.7-4-2.83q0-2.82,20.07-4.52l1.42-.28Q587.42,370.06,582.32,359.6Zm-12.15,31.32q.27,5.71.56,5.71h1.42q6.78,0,6.78-7.07v-.28Q570.17,389.28,570.17,390.92Zm25.44-30.47,2.55,1.13q8.76,5.09,7.91,7.35l-.28.84q-.57,2.55-2.83,1.42l-1.13-.28q-5.66-2.27-6.78-7.35Z" transform="translate(0 -22.77)"/><path d="M633.49,381.08h5.43a10.88,10.88,0,0,1,5.32,1.7q-.29,6.23-.85,15.27.84-.85,4.8-6.22h2.55q0,4.51-9.25,22.05c-1.26,0-2.7-1.42-4.32-4.24q.55-18.09.56-22.62a61.19,61.19,0,0,0-6.78-1.41v-1.13C631.13,382.21,632,381.08,633.49,381.08Zm4.24-11.31h2q7.63,1.43,7.64,4.53v2.26c-1.13,0-1.7.1-1.7.28a8.46,8.46,0,0,1-7.92-4.52Zm24.88,28.56h1.13q2,0,3.11,4.24-.84,3.68-10.74,12.72h-3.39v-1.7Q658.38,405.12,662.61,398.33Zm18.1-32.23h1.13c1.13,0,2.44,1.41,3.95,4.24q-4.51,23.75-10.17,23.75a6.18,6.18,0,0,0-3.11-1.42c-4.91,0-8.67,1.8-11.31,5.38q-5.09-2-5.09-9.05V378q0-.84-1.7-10.17c3.21,0,4.81.19,4.81.56Zm-19.23,8.48,1.42,13.57,12.43-2.26q2.26,0,3.11-7.07l1.42-6.22a1.67,1.67,0,0,0-1.13-.56A75.65,75.65,0,0,0,661.48,374.58Zm13.29,24.31q5.37,0,15.55,10.75v3.11L685,415.86q-10.19-12.72-10.18-14.14Z" transform="translate(0 -22.77)"/><path d="M729.61,365c2.08,0,4.24,1.6,6.51,4.8l-.29,1.42q0,1.69-4.8,9.61l1.41,2v.85c-.38,1.88-2.54,3.11-6.5,3.67l-1.41.29.28,2a16,16,0,0,1,7.63-1.13q5.37,2.26,4.52,5.94-2.82,8.2-8.19,26.86h-2.55q-9.33-7.08-9.33-9.9c.38,0,.57-.37.57-1.13a35.28,35.28,0,0,1,5.65.57l1.42.28q2.82-9.33,4.8-15.83v-.28q0-.29-5.37.56-2,5.65-8.62,13.71T704.45,417l-.56-2.83q7.07-6.5,13-17.81h-1.13q-4.53,1.69-7.63.56l-.85-1.69q0-2.55,11.31-4.52l.28-2.27-1.13.29-2.83.84h-.56q-3.68-.27-4-20.07Q711.8,366.39,729.61,365Zm-13,7.63.56,6.79v2.26l6.51-1.13q2.54-.86,4-8.2v-.85A42.15,42.15,0,0,0,716.61,372.6Zm24,7.35h2.16q3.51,0,4.06,17.81v.29c0,1.88-.81,2.82-2.44,2.82l-3.78-1.13.28-7.35v-2.83Zm14.13-17.81h2.09q3,0,3.57,6.5,0,2.26.42,22.48t.43,27.56l-.57,4.53h-2.65q-8.55-5.38-11.2-9v-2h3.81l3.8,1.41h.59Q754.78,378.55,754.77,362.14Z" transform="translate(0 -22.77)"/><path d="M790.68,369.77c3.2,1.14,4.8,2.83,4.8,5.09q-7.62,8.49-7.63,8.2v1.42q1.7,2.82,1.7,9.32v6.51q.84,18.38-2.26,19.5h-1.7c-1.89,0-2.45-1.88-1.7-5.65q.29-16.4-.28-24.31l-.57-1.7h-.56l-5.94,5.65h-2.82V391Q788.41,375.71,790.68,369.77Zm12.15-5.93h2.83q4.51,0,6.22,15.55,3.11,0,8.76-3.11l4,3.11q0,4-11.31,5.93v2.27q4,15.82,8.91,21.2t7.49,4.8q2-3.1,2.55-9h2c1.14.75,1.7,2.17,1.7,4.24q-.28,5.37-.28,6.78,0,1.69,2.26,4a43.57,43.57,0,0,1-4.24,3.11q-13.57-2.55-21.49-19.51a154.4,154.4,0,0,1-5.08-16.39l-.57.28a6.93,6.93,0,0,0-2.55.57c-4.9-.38-7.34-1.42-7.34-3.11v-2l4.24-.85h4.52a.25.25,0,0,0,.28-.28V380Q804.25,374,802.83,363.84ZM818.67,365c3.57,0,5.93,1.32,7.06,4v2.54l-3.39,1.13a9.69,9.69,0,0,1-8.2-4.24v-2.54Z" transform="translate(0 -22.77)"/><path d="M896.41,379.67q9.33,0,9.33,4.24V385c0,1.51-1,2.26-2.83,2.26q-4-1.12-16.4-.42t-14.13,3.53l-.57,3.39v.57H871Q884,391,887.65,391q4.51,0,5.93,8.2-5.66,19.5-11,24.31a35.69,35.69,0,0,1-15.27-7.35V413h2a39,39,0,0,1,7.35,1.13l3.11.57q5.94-7.64,6.5-14.71v-2.26H882q-2.54,0-16.68,5.09l-2.82-4.24q4.51-5.37,4.52-7.91l-.57-.29H863.9q-6.23,1.43-11.31,2.83a6.76,6.76,0,0,0-3.39-.57v-2.82q0-2.55,31.94-8.48Q881.14,380.23,896.41,379.67Zm-9.9-20.07q3.12,1.39,4,3.06-1.41,7.8-7.63,16.73a26.09,26.09,0,0,1-4.24-.85q-5.37,0-11.59,4.8v-1.13c-1,0-2-2.7-3.11-8.13a20.83,20.83,0,0,1-2-6.12q0-5.29,8.76-7.25A106.2,106.2,0,0,1,886.51,359.6Zm-18.65,8.2v.84q2.25,5.94,3.11,5.94,12.43,0,11.87-7.63v-2H878.6Q874.93,363.85,867.86,367.8Z" transform="translate(0 -22.77)"/><path d="M77.13,451.25q4,2.26,4.81,4c0,2.07-2.55,3.3-7.64,3.67q-4.51,9.33-4.52,10.75v-.29q7.06,0,7.07-6.78h1.69q7.06,5.94,7.07,10.74l-4,3.39L79.39,473a41.91,41.91,0,0,0-4.52.85,30.54,30.54,0,0,0,.28,6.78h-.57l7.64-1.13v3.39c0,2.08-2.36,3.3-7.07,3.68l.57,2.54h-.57a94.53,94.53,0,0,0,9-3.39h2v2.55Q65.26,506.1,57.62,506.1l-.85-2.55-.28-3.39q10.45-5.94,12.44-8.2v-2.83a.25.25,0,0,0-.28-.28c-2.26-.37-3.39-.09-3.39.85a14.1,14.1,0,0,1-5.94-4.52l9.61-3.4v-.85c.38-2.82,0-4.24-1.13-4.24a11.22,11.22,0,0,0-5.94,2,5.31,5.31,0,0,0-3.39-1.41v-2.83q6.5-6.49,9-12.44l.28-1.69c0-.57-2-1.13-5.94-1.7v-4.24Q74.3,453.24,77.13,451.25ZM93.24,466.8q4.24,0,4.24,13v.57l-.56,5.94H94.66q-1.69,0-4-3.68a48,48,0,0,0,1.13-7.91l-.57-6.51Zm13.21-18.09q2.68,0,4,7.06V505h.28q-.28,5.66-3.78,5.66-3.85-1.42-12-10.74v-2q2.82,0,10.16,4.24h-.27V452.66a9,9,0,0,1-.56-3.39Z" transform="translate(0 -22.77)"/><path d="M141.3,454.64h4.24q15.56,16.58,18.66,23.3,12.72,16.29,23.18,17.13v2.4c0,2-.84,3-2.54,3h-2.26q-10.47,1.14-23.47-20.35-6.21-7.92-5.37-7.07-7.63,18.09-23.18,26.86h-3.11v-2.83q15-11.6,20.92-25.44l.85-2.55v-2q0-.56-7.92-10.18Z" transform="translate(0 -22.77)"/><path d="M239.4,458.88q7.92,0,13.57,8.2l-9,16.68c0,.38,1,2.08,3.11,5.09v4h-1.7c-2.45,0-4.81.1-7.07.28-2.64-.18-5.56-.28-8.76-.28Q214,494.22,214,497.9V501h-3.52q-2.7-1.12-2.7-5.66v-1.69q0-20.64-4.24-28.27l2.54-2,6.84,1.13ZM212,471.32q1.7,16.69,2.26,16.68h.57Q240,485.75,240,477.54q1.13,0,4.52-7.63V468.5c0-.57-.56-1.14-1.7-1.7H234.6Q212,469.92,212,471.32Z" transform="translate(0 -22.77)"/><path d="M309.23,449.27h.57c.94,0,1.88.84,2.82,2.5V454q0,2.5-2.82,10.56v-.85q10.74-.57,13-.57c3.2.95,4.81,2.18,4.81,3.7v.28q-2.26,35.29-10.75,40.41h-1.41a29,29,0,0,1-8.76-9.33,21.53,21.53,0,0,0,.28-3.39h2.83a7.48,7.48,0,0,0,4.8,3.11l2,.28q1.69,1.69,3.68-28.27v-.57c0,.19-.29.29-.85.29q-2.55,0-12.72.28-7.63,7.35-7.07,12.16a171,171,0,0,1-3.39,21.76h-3.4l-3.39-3.95H288q-3.39.57-10.46,2.26l-1.42-2.83q-.28-15.54-.56-20.92c.18-4.33-.66-6.5-2.55-6.5v-2.28l14.7-18h3.68q-.29,6.5-2.83,8.48-4.51,5.08-7.06,6.54v-.89h.28q2.54,0,13-1.41,3.1,0,4.81,7.26l-.28-.29q7.05-9.6,7.06-18.94C307.53,450.31,308.48,449.27,309.23,449.27ZM281,478.67c0,.19.28.29.85.29q8.47-1.12,9.61-1.13a4.92,4.92,0,0,0,2,.84l.28-7.91c0-.19-.38-.47-1.13-.85Q281,469.91,281,475Zm1.13,15.83h-.88c4.25-.94,6.65-1.59,7.2-2q3.33,2.27,3.88,2.26c.93-1.51,1.29-5.47,1.11-11.88h.28q-9.94,1.69-11.87,3.11C282,491.11,282.09,493.94,282.09,494.5Zm23.18-17Q316,479.24,316,482.35v4.52a.75.75,0,0,0-.85.85q-13.29-5.94-13.29-8.48V479C301.88,477.64,303,477.17,305.27,477.54Z" transform="translate(0 -22.77)"/><path d="M371.43,444.75h3.11l3.95,5.09h-.28c.57,0,3-.38,7.35-1.13l2.55,2.26v2.26l-2.83,2.54-2.26-.84q-8.2,0-10.18,7.91c-2.08,2.26-3.11,3.87-3.11,4.81q25.72,12.44,35.9,13.28v1.42c0,1.69-1.69,2.83-5.09,3.39q-7.35,0-34.2-13.57h-.57q-20.07,19.51-21.48,19.51h-3.4v-2.26q22.33-20.93,22.34-23.19c-3.4-2.82-5.56-4.24-6.5-4.24q-1.14,5.38-7.92,10.46h-2.54v-1.69c3.57-5.47,5.37-9.05,5.37-10.75,0-.56-.29-3.2-.85-7.91l3.67-2.83a5.91,5.91,0,0,0,2.55,4.81l11.59-3.68c1.51.76,2.26,1.61,2.26,2.55q0,4-10.46,5.09h-2V456.9l8.48,5.66h-.28q5.08-4.24,5.09-11.59C371.52,448.71,371.43,446.63,371.43,444.75Zm-4.53,40.43q5.1,1.41,5.09,9.89v-.28h.28q2-1.12,6.79-9.33,2.55,0,3.67,2.83,0,6.21-8.76,10.17v.29h-.28c6.22.75,9.7,1.13,10.46,1.13a33.76,33.76,0,0,0,5.09-.57q5.92,1.69,5.93,3.68v3.11c-.94,0-1.41.37-1.41,1.13a150.86,150.86,0,0,0-23.46-1.7h-5.09c-2.65,0-7.26.66-13.86,2-2.64-.76-4-1.79-4-3.11v-2.55q9.89-1.12,11.3-1.13-3.1-9.89-3.11-13.28h2.27q3.39,0,5.93,11.31h5.37v.56q-2.54-2.26-4.8-13.57Zm7.07-7.64h1.7q1.41,0,3.67,3.39v2.27l-21.77,2-.84-2.55Q356.73,480.37,374,477.54Zm4-21.2q7.9,1.7,10.46,4.24a7.09,7.09,0,0,0-1.13,3.39H385q-6.51,0-9.9-4.8v-2A5.55,5.55,0,0,0,377.93,456.34Z" transform="translate(0 -22.77)"/><path d="M437.58,451.25q4,2.26,4.81,4c0,2.07-2.55,3.3-7.64,3.67q-4.53,9.33-4.52,10.75v-.29q7.06,0,7.07-6.78H439q7.06,5.94,7.07,10.74l-4,3.39L439.84,473a41.91,41.91,0,0,0-4.52.85,30.54,30.54,0,0,0,.28,6.78H435l7.64-1.13v3.39c0,2.08-2.36,3.3-7.07,3.68l.57,2.54h-.57a94.53,94.53,0,0,0,9-3.39h2v2.55q-20.92,17.81-28.56,17.81l-.85-2.55-.28-3.39q10.46-5.94,12.44-8.2v-2.83a.25.25,0,0,0-.28-.28c-2.26-.37-3.39-.09-3.39.85a14.1,14.1,0,0,1-5.94-4.52l9.61-3.4v-.85c.38-2.82,0-4.24-1.13-4.24a11.19,11.19,0,0,0-5.94,2,5.31,5.31,0,0,0-3.39-1.41v-2.83q6.49-6.49,9.05-12.44l.28-1.69c0-.57-2-1.13-5.94-1.7v-4.24Q434.75,453.24,437.58,451.25Zm16.11,15.55q4.24,0,4.24,13v.57l-.56,5.94h-2.26q-1.69,0-4-3.68a48,48,0,0,0,1.13-7.91l-.57-6.51Zm13.21-18.09q2.69,0,4,7.06V505h.28q-.29,5.66-3.78,5.66-3.85-1.42-12.05-10.74v-2q2.82,0,10.16,4.24h-.27V452.66a9,9,0,0,1-.56-3.39Z" transform="translate(0 -22.77)"/><path d="M520.41,448.42h2.26q4,1.14,4.81,19.51,13.57,2.83,17,7.35a20,20,0,0,0-.56,4.24c-5.28-1.31-10.84-2.83-16.68-4.52h-.57v7.35q0,4.81-.56,13.85,3.66,3.68,19.79,5.94l4.8,2.82q-.28,4.53-7.63,3.11H541.9q-22.33-3.1-29.4-12.72-5.94-6.5-6.79-6.5-12.15,13.86-25.44,13.85,18.66-11.86,20.64-18.66l-6.22-8.19v-2.27c1.88,0,4.89,1.33,9,4q4-5.94,4-11c-7.54,1.69-11.31,3.49-11.31,5.37q0,2-5.94,7.35h-4.52q5.94-9.9,13-23.75h4.24v5.66l2.54-.57q-.57-1.12,6.79-1.13h1.69c1.88,0,2.83,1.23,2.83,3.67q-7.63,17-7.63,19.23v1.13q2.53,4,10.46,9.89.55,0,.56-10.17l.57-18.94v-5.09a53.55,53.55,0,0,0-1.42-7.64A5.89,5.89,0,0,0,520.41,448.42Z" transform="translate(0 -22.77)"/><path d="M577.8,449l-1.13,6.5Q588,462.27,588,464v2.83h-2.55q-2.53,0-10.17-6.22Q568.47,475,558,482.91h-2v-2.26A72,72,0,0,0,573,449Zm3.39,26.29a7,7,0,0,0,3.11.57q0,5.37-9.33,16.39v.57l3.11,4.24v3.67q-4.8,0-12.72-9.89v-3.39h2l2,1.69h2.26q2-1.41,3.68-5.37v-.85H575q-2.26,0-6.78,2.27-5.66-.29-5.65-4,2.25-2,16.67-5.09C579.21,475.56,579.87,475.28,581.19,475.28Zm-9.33-8.76h2c3.4.19,5.09,1.32,5.09,3.39v.56c0,1.52-.85,2.27-2.54,2.27h-.85c-.95,0-2.17-1.13-3.68-3.4Zm25.73,6.5h1.7c1.13,0,2.44,1.23,4,3.67v6.22q0,10.75-13.28,20.92-4.53,2.55-6.79,2.55h-4.8v-3.11q19.21-4,19.22-22.62v-2.54l-1.13-1.7A7.17,7.17,0,0,0,597.59,473Zm7.92-24.88c3.57.95,5.37,2.17,5.37,3.68v2.82h-2.26q-8.21,0-11.31,8.77h.56q3.39,0,10.75-.57a15.49,15.49,0,0,1,2.26,7.63V477a64.2,64.2,0,0,1-.57,7.91,12,12,0,0,1,.57,4.24l-2,1.42q-4-1.12-4-7.64V469.06c0-.18-.19-.28-.56-.28-7.55.38-11.31.75-11.31,1.13q1.41,8.2,1.41,9.61-.29,9.9-.28,14.42l-2.55.85h-.84c-.95,0-2-.94-3.11-2.83a28,28,0,0,1,2-8.48,115,115,0,0,1-1.41-14.42q0-1.12,7.35-13.29v.57c-2.64-1.32-4.34-3-5.09-5.09q4.25-2.26,12.16-2.26h3.39C605.69,449,605.51,448.71,605.51,448.14Zm2.82,47.21q15.27,6.22,15.27,9v.85c0,1.69-1,2.54-2.83,2.54q-14.13-5.37-15.26-9.61C605.88,496.3,606.82,495.35,608.33,495.35Z" transform="translate(0 -22.77)"/><path d="M656.11,449.84l4.24,5.37-2.83,1.69h-3.11v18.66c0,.38-.09.57-.28.57l4.24-1.13v2.54c-2.45,3-3.67,5.37-3.67,7.07v10.46c.18.38.37.57.56.57q3.11,0,11-11.6,0-2.25-8.48-14.41v-2.27h3.11q1.13,0,8.2,9.33.84-.56,3.39-11.3h.28a66.58,66.58,0,0,0-7.63,2.82,11.06,11.06,0,0,0-2.55-.28v-3.11q0-2.26,16.68-7.07l1.13,2.55v2.26q-6.51,16.4-6.5,21.77.29,4.8,20.07,14.7l1.13,2v2c-.94,0-1.41.37-1.41,1.13q-12.45-2.26-23.75-15.27-9.33,9.9-15.26,13.57,0,5.08-2.69,5.65-2.38,0-3.82-5.37a15.38,15.38,0,0,0,1.14-4.24c-.1-6.78-.19-10.17-.29-10.17a103.73,103.73,0,0,1-15.26,11.3h-.57c-1.32,0-2.36-.94-3.11-2.82v-4.24q7.92-.28,18.66-11.6v-3.39l-1.13-.56a9.84,9.84,0,0,1-5.66,2.54q0,8.21-3.39,8.2c-.75,0-1.69-1-2.82-3.11a109,109,0,0,1,1.69-15.27c-.19-3.95-.28-7.35-.28-10.17h2.9c1.73,2.64,2.8,3.95,3.19,3.95,3.66-.56,5.5-1.41,5.5-2.54v-2.83a113.73,113.73,0,0,0-15,1.7v-2.83Q633.78,454.09,656.11,449.84ZM642,474.43v-.56c.59,0,.89.09.89.28q5.89-1.41,5.9-2.83v-2c0-.37-.39-.75-1.18-1.13C643.84,468.21,642,470.29,642,474.43Z" transform="translate(0 -22.77)"/><path d="M720.57,449.84l3.11,6.78-8.48,9.05V466l1.41,4.81-.28,27.14v4.24a10.24,10.24,0,0,1-5.66-2l.29-29.69v-.56h-.29q-4.8,4.53-9.33,4.52Q717.47,454.08,720.57,449.84Zm4.24,28.83h4.8v2.83q0,6.22-5.65,10.46h-3.68Zm8.61-30.25c1.59,0,2.58,2.08,3,6.22q12.44.86,15.55-1.41a16.26,16.26,0,0,1,6.22,2v2q0,4-10.46,10.46h-2v-2.26l3.39-4.81v-.28l-4.81.28c-6.4.57-10,1.7-10.74,3.39l-5.65,6.22-1.42,1.42-2.26-1.14q6.22-12.15,6.5-22.05Zm3.83,16.4h2.54q2.55,0,4.24,14.42c0,1.69.09,4.43.28,8.2v6.78a31.79,31.79,0,0,1-.84,9v2h-3.4c-4.14-2.83-6.22-6.12-6.22-9.9l3.68.85h.28q.29-9.33,0-17A134,134,0,0,1,737.25,464.82Zm14.42,15.55a14.5,14.5,0,0,1,12.15,5.94,45.56,45.56,0,0,0-.28,5.09h-2.83q-6.51-4-9-8.2Z" transform="translate(0 -22.77)"/><path d="M813.86,449.27h.56c1,0,1.89.84,2.83,2.5V454q0,2.5-2.83,10.56v-.85q10.76-.57,13-.57c3.2.95,4.81,2.18,4.81,3.7v.28Q830,502.4,821.49,507.51h-1.41a29,29,0,0,1-8.76-9.33,21.53,21.53,0,0,0,.28-3.39h2.82a7.53,7.53,0,0,0,4.81,3.11l2,.28q1.69,1.69,3.68-28.27v-.57c0,.19-.29.29-.85.29q-2.55,0-12.72.28-7.64,7.35-7.07,12.16a171,171,0,0,1-3.39,21.76h-3.4l-3.39-3.95h-1.41q-3.39.57-10.46,2.26l-1.42-2.83q-.28-15.54-.56-20.92c.18-4.33-.66-6.5-2.55-6.5v-2.28l14.7-18h3.68q-.28,6.5-2.83,8.48-4.51,5.08-7.07,6.54v-.89h.29q2.53,0,13-1.41,3.1,0,4.81,7.26l-.29-.29q7.06-9.6,7.07-18.94C812.16,450.31,813.1,449.27,813.86,449.27Zm-28.27,29.4c0,.19.28.29.85.29q8.47-1.12,9.61-1.13a4.92,4.92,0,0,0,2,.84l.28-7.91c0-.19-.38-.47-1.13-.85q-11.59,0-11.59,5.09Zm1.13,15.83h-.88c4.25-.94,6.64-1.59,7.2-2q3.33,2.27,3.88,2.26c.93-1.51,1.29-5.47,1.11-11.88h.28q-9.94,1.69-11.87,3.11C786.62,491.11,786.72,493.94,786.72,494.5Zm23.18-17q10.74,1.69,10.74,4.81v4.52a.75.75,0,0,0-.84.85q-13.29-5.94-13.29-8.48V479C806.51,477.64,807.64,477.17,809.9,477.54Z" transform="translate(0 -22.77)"/><path d="M879.17,444.75h2.54q1.13,0,3.11,3.11l-.85,1.41v.85h.57a41.91,41.91,0,0,1,4.52-.85h4.52q2,1.14,2,2v1.41q-5.09,9.61-5.37,16.12-4.25,0-13,9.89v2.55c0,.19-.1.28-.29.28q11-.57,12.73-.57a54.05,54.05,0,0,1,12.72,2.17v3a2,2,0,0,1-2.27,2.22,95.84,95.84,0,0,0-13.28-1.14h-5.37q2.25,3.12,14.13,13.29a88.39,88.39,0,0,1,11.31,6.5l-1.41,3.4H904q-11,0-27.7-20.36-10.76,18.66-26.58,18.66v-2.26q17-8.49,19.79-16.68v-1.13a1.62,1.62,0,0,0-1.13-.28q-12.43.84-12.44,2.26a35.25,35.25,0,0,0-7.63-1.42v-2q0-2,22.9-4.8h.28v-1.13q-.28,0-5.94,1.41c-1.13-2.26-2-3.39-2.54-3.39l.85-4.52v-4.81h-.28q-6.23,7.92-9,7.92c-2.64-1.14-4-2.55-4-4.25q11.31-8.19,11.31-9.89c-3.58-1.51-5.47-3-5.65-4.52v-1.7a6.6,6.6,0,0,0,2.82-.85,20.09,20.09,0,0,1,5.66,2.83h-.29l.29-3.11v-2.55l-.85-5.08h2.83c2.44.75,3.67,2.92,3.67,6.5l.28,4q0,8.47-.56,17.52H869a32.93,32.93,0,0,0,12.44-10.17L876.62,462l2.55-2.26a38,38,0,0,0,5.93,1.13,9.39,9.39,0,0,0,2.26-6.5v.57q-8.21,0-11,6.78l-2.55.28h-1.41V460.3Q878.59,451,879.17,444.75Z" transform="translate(0 -22.77)"/><path d="M947,454.08h1.13c1.32.75,2,1.6,2,2.54V458A45.53,45.53,0,0,1,932.31,462L932,468.5h-.28q3.36,0,16.29-3.11h.85c1.69.38,2.54,1.13,2.54,2.26v.85q0,2.53-7.63,3.39l-1.13,4.52,2.26-.28a11.3,11.3,0,0,1,5.65.28l1.42,4a116.15,116.15,0,0,1-7.35,24.88q-10.15-4.81-10.43-9.9h2.26a27.18,27.18,0,0,0,4.78,1.13q3.68-8.19,3.67-13.85l-.57-.28-3.66.56q-.56,3.69-11.28,18.1l-4.81,3.39V501q9.6-17.25,11.87-25.16l.85-2.55-5.59.57h-.28q-.57,16.39-10.74,28h-3.11v-2q7.92-10.45,9.33-37c0-.18-.38-1.69-1.13-4.52Q945.88,454.08,947,454.08Zm19.1-5.94v-.28c1.08,0,2.26,1,3.52,3.11a111.19,111.19,0,0,1-1.08,13.29l-.54,2.26h-.81a57.88,57.88,0,0,0,9.33-.85q3.66,1.69,4,4v1.13q-5.37,25.44-9.89,35.34h-1.41q-4.24,0-11-9.05v-2.26h2.54q5.07,2.26,6.2,2.26,6.51-20.64,6.51-24.6l-6.79.57c-.37,2.26-2.07,6.5-5.07,12.72q-7.35,14.7-12.42,18.09H946q11.24-21.19,12.92-29.68h.28l-2,.57q-3.68-1.14-3.67-2.83v-2.26l5.65-1.13q4.72-.57,4.17-18.38C963.77,448.42,964.67,447.77,966.11,448.14Z" transform="translate(0 -22.77)"/><path d="M232.39,624.34q-1.41,4.21.43.84t4.64-9.56q.84-1.7,5.62,1.68a89.55,89.55,0,0,1-5.34,11.82,55.56,55.56,0,0,0-2.82,5.34l-3.09,4.78q-2.25,3.38-5.48-1.69t-6-10q-2.82-4.92-5.06-9.42,2.81-3.09,5.06-3.66l.84,2q1.13.84.57,1.41l5.06,9.56q-.28-31.5.28-32.91,5.91-1.39,5.34,2.53Z" transform="translate(0 -22.77)"/><path d="M289.21,589.46l3.09,6.75-8.44,9v.28l1.41,4.78-.28,27v4.22a10.14,10.14,0,0,1-5.63-2l.28-29.53v-.56h-.28q-4.78,4.5-9.28,4.5Q286.12,593.68,289.21,589.46Zm4.21,28.69h4.79V621c0,4.13-1.88,7.59-5.63,10.41h-3.66Zm8.57-30.1c1.58,0,2.57,2.07,3,6.19q12.36.84,15.46-1.4a16.05,16.05,0,0,1,6.19,2v2q0,3.94-10.4,10.41h-2v-2.25l3.37-4.78v-.28l-4.78.28q-9.57.84-10.69,3.37l-5.62,6.19-1.41,1.41L292.86,610q6.18-12.09,6.47-21.94Zm3.81,16.32h2.53q2.54,0,4.22,14.34,0,2.53.28,8.16v6.75a31.82,31.82,0,0,1-.84,9v2h-3.38c-4.12-2.82-6.19-6.09-6.19-9.85l3.66.85h.28q.28-9.29,0-16.88A132.51,132.51,0,0,1,305.8,604.37Zm14.34,15.47a14.41,14.41,0,0,1,12.1,5.9,45.29,45.29,0,0,0-.28,5.06h-2.82q-6.47-3.93-9-8.15Z" transform="translate(0 -22.77)"/><path d="M382,588.9h.56c.94,0,1.87.83,2.81,2.48v2.21q0,2.48-2.81,10.5v-.85q10.68-.56,12.94-.56c3.18.94,4.78,2.17,4.78,3.68v.28q-2.25,35.1-10.69,40.2h-1.4a28.85,28.85,0,0,1-8.72-9.29,21.28,21.28,0,0,0,.28-3.37h2.81a7.44,7.44,0,0,0,4.78,3.09l2,.28q1.69,1.69,3.66-28.12v-.56c0,.19-.28.28-.85.28q-2.52,0-12.65.28-7.61,7.32-7,12.09a170.83,170.83,0,0,1-3.38,21.66h-3.37l-3.38-3.94h-1.41q-3.37.57-10.4,2.25l-1.41-2.81q-.28-15.46-.56-20.81.27-6.47-2.53-6.47v-2.27l14.62-17.89h3.66q-.29,6.48-2.81,8.44-4.5,5.05-7,6.51v-.89h.28c1.68,0,6-.46,12.93-1.4q3.1,0,4.79,7.22l-.29-.28q7-9.57,7-18.85C380.33,589.93,381.27,588.9,382,588.9Zm-28.13,29.25c0,.19.28.28.85.28q8.43-1.12,9.56-1.13a4.81,4.81,0,0,0,2,.85l.28-7.88c0-.18-.38-.46-1.13-.84q-11.54,0-11.53,5.06ZM355,633.9h-.88c4.23-.94,6.61-1.59,7.17-2q3.3,2.25,3.86,2.25,1.38-2.25,1.1-11.81h.28c-6.6,1.12-10.53,2.16-11.81,3.09C354.92,630.52,355,633.34,355,633.9ZM378.08,617q10.68,1.69,10.69,4.78v4.5a.76.76,0,0,0-.85.85q-13.21-5.91-13.21-8.44v-.28C374.71,617.12,375.83,616.65,378.08,617Z" transform="translate(0 -22.77)"/><path d="M417.74,607.46h5.4a10.69,10.69,0,0,1,5.28,1.69c-.18,4.13-.47,9.19-.84,15.19q.84-.86,4.78-6.19h2.53q0,4.5-9.19,21.94c-1.26,0-2.69-1.41-4.31-4.22q.57-18,.57-22.5a60.9,60.9,0,0,0-6.75-1.41v-1.12C415.39,608.59,416.23,607.46,417.74,607.46ZM422,596.21h2q7.6,1.41,7.6,4.5V603c-1.13,0-1.69.1-1.69.28a8.41,8.41,0,0,1-7.87-4.5Zm24.75,28.41h1.12c1.31,0,2.34,1.4,3.09,4.22q-.84,3.66-10.68,12.65h-3.38V639.8Q442.49,631.37,446.71,624.62Zm18-32.07h1.12q1.69,0,3.94,4.22-4.5,23.63-10.13,23.63a6.06,6.06,0,0,0-3.09-1.41q-7.32,0-11.25,5.35-5.07-2-5.06-9v-11c0-.57-.57-3.94-1.69-10.13,3.19,0,4.78.19,4.78.56ZM445.58,601l1.41,13.5,12.37-2.25q2.25,0,3.1-7l1.4-6.19a1.65,1.65,0,0,0-1.12-.56A75.45,75.45,0,0,0,445.58,601Zm13.22,24.19q5.34,0,15.47,10.69V639l-5.35,3.09Q458.8,629.41,458.8,628Z" transform="translate(0 -22.77)"/><path d="M513.36,591.43c2.06,0,4.22,1.6,6.47,4.78l-.28,1.41q0,1.68-4.78,9.56l1.4,2V610c-.37,1.88-2.53,3.1-6.46,3.66l-1.41.28.28,2a15.9,15.9,0,0,1,7.59-1.13c3.56,1.51,5.07,3.48,4.5,5.91q-2.8,8.16-8.15,26.72H510q-9.28-7-9.28-9.85c.37,0,.56-.37.56-1.12a35.85,35.85,0,0,1,5.62.56l1.41.28q2.81-9.27,4.78-15.75v-.28c0-.18-1.78,0-5.34.56q-2,5.64-8.58,13.65t-10.83,7.73l-.56-2.81q7-6.47,12.94-17.72h-1.13q-4.5,1.68-7.59.56l-.85-1.69q0-2.52,11.25-4.5l.28-2.25-1.12.28-2.81.85h-.57q-3.65-.28-3.93-20Q495.64,592.84,513.36,591.43ZM500.42,599l.57,6.75V608l6.47-1.12q2.52-.84,3.93-8.16v-.84A42.28,42.28,0,0,0,500.42,599Zm23.91,7.32h2.15q3.49,0,4,17.71v.29c0,1.87-.81,2.81-2.42,2.81L524.33,626l.28-7.31V615.9Zm14.06-17.72h2.08q3,0,3.55,6.47,0,2.25.42,22.36t.42,27.42l-.56,4.5h-2.64q-8.5-5.36-11.14-9v-2h3.79l3.78,1.4h.58Q538.4,604.94,538.39,588.62Z" transform="translate(0 -22.77)"/><path d="M574.11,596.21c3.19,1.13,4.78,2.81,4.78,5.06q-7.59,8.44-7.59,8.16v1.41c1.12,1.87,1.69,5,1.69,9.28v6.47q.84,18.28-2.25,19.4h-1.69q-2.82,0-1.69-5.62.28-16.3-.28-24.19l-.56-1.69H566l-5.91,5.63h-2.81V617.3Q571.85,602.12,574.11,596.21Zm12.1-5.91H589q4.5,0,6.19,15.47c2.06,0,5-1,8.71-3.09l3.94,3.09q0,3.94-11.25,5.91v2.25q3.95,15.75,8.86,21.09t7.45,4.78q2-3.09,2.54-9h2c1.13.76,1.69,2.16,1.69,4.22q-.29,5.36-.28,6.75,0,1.69,2.25,3.94a42.14,42.14,0,0,1-4.22,3.09q-13.5-2.52-21.37-19.4a155,155,0,0,1-5.07-16.31l-.56.28a7,7,0,0,0-2.53.56c-4.88-.37-7.31-1.41-7.31-3.09v-2l4.22-.85h4.5a.25.25,0,0,0,.28-.28v-1.4Q587.61,600.43,586.21,590.3ZM602,591.43q5.34,0,7,3.94v2.53L605.61,599a9.62,9.62,0,0,1-8.15-4.22v-2.53Z" transform="translate(0 -22.77)"/><path d="M679.3,606.05q9.29,0,9.28,4.22v1.13c0,1.5-.94,2.25-2.81,2.25q-3.94-1.12-16.31-.42c-8.26.47-12.94,1.64-14.07,3.51l-.56,3.38v.56H654q12.93-3.37,16.59-3.38c3,0,5,2.73,5.91,8.16q-5.64,19.41-11,24.19a35.55,35.55,0,0,1-15.19-7.31v-3.1h2a38.54,38.54,0,0,1,7.31,1.13l3.1.56q5.89-7.59,6.46-14.63v-2.25H665q-2.54,0-16.6,5.07l-2.81-4.22q4.5-5.34,4.5-7.88l-.56-.28H647q-6.19,1.41-11.25,2.81a6.88,6.88,0,0,0-3.38-.56v-2.81q0-2.53,31.78-8.44Q664.11,606.63,679.3,606.05Zm-9.84-20q3.09,1.38,3.93,3-1.41,7.75-7.59,16.63a25.52,25.52,0,0,1-4.22-.84q-5.34,0-11.53,4.78v-1.12q-1.41,0-3.09-8.09a21,21,0,0,1-2-6.1q0-5.26,8.72-7.21A106.39,106.39,0,0,1,669.46,586.09Zm-18.57,8.15v.85q2.25,5.89,3.1,5.9,12.38,0,11.81-7.59v-2h-4.22Q657.92,590.3,650.89,594.24Z" transform="translate(0 -22.77)"/><path d="M754.11,610l2.81,3.94v2.81h-6.46l-10.13.56a15.3,15.3,0,0,1-3.09.85l.56,3.37c-.75,0,.75-.46,4.5-1.4,2.43,1.68,3.66,3.19,3.66,4.5v.84c0,.75-2.72,1.6-8.16,2.53l-.28,3.1v4.5q0,2,23.9,10.12l1.13,2c0,1.87-.84,2.81-2.53,2.81q-22.5-1.12-39.1-19.4l-.56.56Q713,641.78,706,644h-2.81v-2.25q9.56-8.14,12.37-14.9t3.38-6.75c-7.5,1.31-12.48,2-14.91,2l-.84-2.25V617.3q32.06-4.77,38.11-5.76T754.11,610ZM737.8,586.37c2.62,0,4.78,1.68,6.47,5.06q-4.78,18-6.47,18-14.91,2.82-15.75,2.81h-.56c-.75,0-1.79-1-3.1-3.09l-.84-19.41A121,121,0,0,1,733,586.65,14.5,14.5,0,0,1,737.8,586.37ZM724,593.68v.84l.28,2q8.16-1.11,12.09-1.69l.85-2.81c0,.19-.38.19-1.13,0Q735,592,724,593.68Zm1.4,25.87-.28,2-.56,2.82v2.25q-.57,2.25,6.19,5.9l.84-13.78Zm-.84-17.71v3.65h.28q9.84-.84,9.56-1.4l.57-3.66h.84Z" transform="translate(0 -22.77)"/><path d="M806.42,624.34c-.94,2.81-.79,3.09.43.84s2.76-5.44,4.64-9.56q.84-1.7,5.62,1.68a89.55,89.55,0,0,1-5.34,11.82,53.77,53.77,0,0,0-2.81,5.34l-3.1,4.78q-2.25,3.38-5.48-1.69t-6-10q-2.82-4.92-5.06-9.42,2.81-3.09,5.06-3.66l.84,2q1.13.84.57,1.41l5.06,9.56q-.28-31.5.28-32.91,5.91-1.39,5.34,2.53Z" transform="translate(0 -22.77)"/><line class="a" x2="1037.76"/></svg>