<svg xmlns="http://www.w3.org/2000/svg" viewBox="0 0 1182 1182"><defs><style>.a{fill:#fff;}</style></defs><title>left</title><path d="M1,1H1183V1183H1ZM1166.65,1169.78V20.4H17.26V1169.78Z" transform="translate(-1 -1)"/><path class="a" d="M1166.65,1169.78H17.26V20.4H1166.65Zm-43-32V71.4H57.27V1137.78Z" transform="translate(-1 -1)"/><path d="M1123.64,1137.78H57.27V71.4H1123.64ZM1109.77,85.35H69.39V1125.74H1109.77Z" transform="translate(-1 -1)"/><path class="a" d="M1109.77,85.35V1125.74H69.39V85.35ZM823.53,619.67c146.24-.89,257.07-116.6,261.52-252.47C1089.9,219.41,973.2,101.78,833.13,96.9c-146.26-5.1-270.39,111-271,260.94C561.58,501.83,679.18,619.38,823.53,619.67Z" transform="translate(-1 -1)"/><path d="M823.53,619.67c-144.35-.29-261.95-117.84-261.38-261.83.59-149.92,124.72-266,271-260.94,140.07,4.88,256.77,122.51,251.92,270.3C1080.6,503.07,969.77,618.78,823.53,619.67Zm0-6.52c140.15,1,258-114.82,255.54-259.57-2.3-138.27-116.63-253-260.13-250.6-136.17,2.33-253.13,113.9-250.46,260.2C571.05,505.58,688.29,613.92,823.5,613.15Z" transform="translate(-1 -1)"/><path class="a" d="M823.5,613.15c-135.21.77-252.45-107.57-255-250C565.78,216.88,682.74,105.31,818.91,103c143.5-2.45,257.83,112.33,260.13,250.6C1081.45,498.33,963.65,614.16,823.5,613.15Zm.25-35.9c118,.93,222-96.28,219.33-224.13-2.45-119.36-101.16-216.82-224.41-214.21-117.21,2.48-215.89,98.17-214.32,222.27C605.91,484.36,707.15,578.05,823.75,577.25Z" transform="translate(-1 -1)"/><path d="M823.75,577.25c-116.6.8-217.84-92.89-219.4-216.07-1.57-124.1,97.11-219.79,214.32-222.27,123.25-2.61,222,94.85,224.41,214.21C1045.71,481,941.8,578.18,823.75,577.25ZM946.67,358.49q-28.95-51-58-101.81c-.8-1.4-3.41-2.52-5.18-2.53-38.5-.14-77-.08-115.5-.16-2.63,0-4.14.68-5.5,3.08-18.4,32.52-37,65-55.32,97.51a6.4,6.4,0,0,0-.14,5.31q28.13,49.92,56.66,99.61a6.89,6.89,0,0,0,5,2.94q57.74.24,115.49,0a6.38,6.38,0,0,0,4.67-2.63Q917.9,409.27,946.67,358.49ZM638.36,462.57c.87-1.21,1.5-2,2-2.81q28.36-49.8,56.58-99.68a6.85,6.85,0,0,0-.17-5.7q-27.4-48.63-55.14-97.09a29.1,29.1,0,0,0-3.37-4C599.18,320.07,603.56,405.57,638.36,462.57ZM641.45,248H647c36.29,0,72.59-.06,108.89.08,3.62,0,5.54-1.05,7.34-4.25,15.7-27.92,31.63-55.71,47.48-83.55,2.75-4.84,5.46-9.72,8.31-14.79C753.32,145.12,680.47,182.09,641.45,248Zm.19,220.67c41,69,117.2,103.39,178.06,102-.92-1.71-1.73-3.3-2.61-4.85-17.57-30.88-35.2-61.72-52.63-92.68-1.9-3.37-4-4.55-7.8-4.53-36.64.15-73.29.09-109.94.09Zm191.23-323a21.55,21.55,0,0,0,1,2.28q27.55,48.48,55.07,97c1.51,2.69,3.33,3.13,6,3.13q53.46-.09,106.92,0c1.23,0,2.46-.14,3.92-.23C967.55,182.37,894.84,146.25,832.87,145.62Zm178.89,111.19c-1.18,1.77-1.86,2.67-2.41,3.64-17.8,31.34-35.54,62.71-53.47,94-1.72,3-1.77,5,0,8q26.55,46.23,52.8,92.64c.76,1.35,1.62,2.65,2.94,4.8C1045.46,391.77,1045.52,324.77,1011.76,256.81ZM1005.4,469a15.18,15.18,0,0,0-1.91-.29q-54.5,0-109-.09c-3,0-4.34,1.36-5.68,3.73q-26.16,46.17-52.47,92.25c-1.12,2-2.16,4-3.36,6.17C901,569.48,971,528.81,1005.4,469Zm-179.61-323C806.2,180.38,787.15,213.88,768,247.59H883.61Zm.6,424c19.38-34.08,38.28-67.32,57.38-100.89H769ZM645.92,462.06H758.11c-18.75-33-37.25-65.47-56.09-98.6C683.19,396.54,664.75,429,645.92,462.06Zm359.87.28-55.65-97.78c-18.75,33-37,65.14-55.59,97.78Zm-55.64-110c18.79-33,37.14-65.29,55.75-98H894.42Zm-248.12-1,55.05-96.82H646.94Z" transform="translate(-1 -1)"/><path class="a" d="M946.67,358.49q-28.87,50.75-57.8,101.33a6.38,6.38,0,0,1-4.67,2.63q-57.75.21-115.49,0a6.89,6.89,0,0,1-5-2.94q-28.53-49.68-56.66-99.61a6.4,6.4,0,0,1,.14-5.31c18.37-32.54,36.92-65,55.32-97.51,1.36-2.4,2.87-3.09,5.5-3.08,38.5.08,77,0,115.5.16,1.77,0,4.38,1.13,5.18,2.53Q917.85,307.45,946.67,358.49Z" transform="translate(-1 -1)"/><path class="a" d="M638.36,462.57c-34.8-57-39.18-142.5-.12-209.23a29.1,29.1,0,0,1,3.37,4q27.67,48.49,55.14,97.09a6.85,6.85,0,0,1,.17,5.7Q668.8,410,640.34,459.76C639.86,460.6,639.23,461.36,638.36,462.57Z" transform="translate(-1 -1)"/><path class="a" d="M641.45,248c39-65.88,111.87-102.85,177.6-102.51-2.85,5.07-5.56,9.95-8.31,14.79-15.85,27.84-31.78,55.63-47.48,83.55-1.8,3.2-3.72,4.27-7.34,4.25-36.3-.14-72.6-.08-108.89-.08Z" transform="translate(-1 -1)"/><path class="a" d="M641.64,468.64h5.08c36.65,0,73.3.06,109.94-.09,3.85,0,5.9,1.16,7.8,4.53,17.43,31,35.06,61.8,52.63,92.68.88,1.55,1.69,3.14,2.61,4.85C758.84,572,682.59,537.67,641.64,468.64Z" transform="translate(-1 -1)"/><path class="a" d="M832.87,145.62c62,.63,134.68,36.75,172.92,102.11-1.46.09-2.69.23-3.92.23q-53.46,0-106.92,0c-2.68,0-4.5-.44-6-3.13q-27.41-48.57-55.07-97A21.55,21.55,0,0,1,832.87,145.62Z" transform="translate(-1 -1)"/><path class="a" d="M1011.76,256.81c33.76,68,33.7,135-.18,203.09-1.32-2.15-2.18-3.45-2.94-4.8q-26.37-46.34-52.8-92.64c-1.73-3-1.68-5,0-8,17.93-31.26,35.67-62.63,53.47-94C1009.9,259.48,1010.58,258.58,1011.76,256.81Z" transform="translate(-1 -1)"/><path class="a" d="M1005.4,469C971,528.81,901,569.48,833,570.72c1.2-2.21,2.24-4.21,3.36-6.17q26.25-46.11,52.47-92.25c1.34-2.37,2.65-3.74,5.68-3.73q54.48.17,109,.09A15.18,15.18,0,0,1,1005.4,469Z" transform="translate(-1 -1)"/><path class="a" d="M825.79,145.93l57.82,101.66H768C787.15,213.88,806.2,180.38,825.79,145.93Z" transform="translate(-1 -1)"/><path class="a" d="M826.39,569.92,769,469H883.77C864.67,502.6,845.77,535.84,826.39,569.92Z" transform="translate(-1 -1)"/><path class="a" d="M645.92,462.06c18.83-33.1,37.27-65.52,56.1-98.6,18.84,33.13,37.34,65.64,56.09,98.6Z" transform="translate(-1 -1)"/><path class="a" d="M1005.79,462.34H894.55c18.56-32.64,36.84-64.81,55.59-97.78Z" transform="translate(-1 -1)"/><path class="a" d="M950.15,352.36l-55.73-98H1005.9C987.29,287.07,968.94,319.34,950.15,352.36Z" transform="translate(-1 -1)"/><path class="a" d="M702,351.35l-55.09-96.82H757.08Z" transform="translate(-1 -1)"/></svg>