<svg xmlns="http://www.w3.org/2000/svg" xmlns:xlink="http://www.w3.org/1999/xlink" viewBox="0 0 1031.1 1112.4"><defs><style>.a{fill:none;}.b{fill:#231815;}.c{clip-path:url(#a);}.d{isolation:isolate;}</style><clipPath id="a" transform="translate(0 0.05)"><rect class="a" x="1007.2" y="-0.22" width="19.72" height="61.07"/></clipPath><symbol id="b" viewBox="0 0 11.4 35.3"><path class="b" d="M6.7,35.2V9.1a8.6,8.6,0,0,0,4.7,2C8.6,8.2,7.1,4.5,5.7,0,4.4,4.5,2.8,8.1,0,11.1a9.34,9.34,0,0,0,4.8-2V35.3H6.7Z"/></symbol></defs><title>main</title><path d="M391.6,276h5.9c2.1,0,4.4,5,6.9,15.1a12.82,12.82,0,0,0-.5,2.7c.3,1.5.5,2,.5,1.4h6.4c2.4.6,3.6,1.8,3.6,3.7,0,3-4,5-11.9,5.9-.9,5.5-1.4,8.5-1.4,9.1l1.4.5c2.1,0,9.4-.8,21.9-2.3,4,1.5,5.9,3.2,5.9,5,0,2.4-1.4,3.6-4.1,3.6H406.1v1.8c11.6,7.3,26.6,13.3,45.2,17.8V344l-1.4,3.7c-22.5-3.7-40.4-11.4-53.5-23.3h-9.1q-28.8,32.85-32.4,32.9h-4.1v-5.9c4.3,0,11.7-8.1,22.4-24.2v.5c-1.5,0-2.3.2-2.3.5.6-.3-2.7,0-10,.9a9.51,9.51,0,0,0-4.6-1.4v-6.8h6.9c9.4,0,14.2-1.8,14.2-5.5a71,71,0,0,0,1.4-7.8h-2.3l-7.3-1.8v-4.6c6.4-.9,9.6-2,9.6-3.2v-1.9L377,287l5.5-1.8c3.3,8.8,4.7,13.3,4.1,13.3h4.6c3,0,4.6-1.5,4.6-4.6C395.7,289.9,394.4,283.9,391.6,276Zm-20.1,70.4h7.8v2.8a19,19,0,0,1-8.7,16.5h-5Zm17.4-16h3.7c3.3,0,5.6,9.7,6.9,29.3q-1.8,21.9-6.9,21.9h-1.4q-2.7,0-10.5-9.6v-3.6l7.3,1.4h.9a.51.51,0,0,0,.5-.4V343.7c0-1.2-.8-3.2-2.3-5.9Zm-2.8-14.2.5.5H388c4,0,5.9-3.2,5.9-9.6l-1.4-.5H387l-.9.5ZM404,347.3h4.6c2.8,1.2,5.8,5.2,9.1,11.9,0,3.1-1.4,4.6-4.1,4.6h-.9q-5.55-1.5-8.7-16.5Zm11-1.9h5.9c1.8,0,5.8,4.6,11.9,13.7V365h-3.6c-4.1.1-8.8-6.5-14.2-19.6Z" transform="translate(0 0.05)"/><path d="M533.8,315.3c6.1,1.5,9.1,3.4,9.1,5.5v2.8c-7.3,5.5-11,9.6-11,12.3l.9,4.1c0,2.1-1.8,4.4-5.5,6.9,1.5.3,7,.5,16.5.5h12.3c5.8,0,9.5,2.3,11,6.9v1.4l-1.4,3.7-47.1-2.7c-21.3,3.1-34,4.6-37.9,4.6-5.8,0-9-1.5-9.6-4.6v-3.2q1.8,0,1.8-.9l3.7.9c16.1-1.5,24.2-2.4,24.2-2.7v-1.4l-5-30.2c1.2,0,1.8-.5,1.8-1.4l6.9,1.4C518.5,316.5,528.3,315.3,533.8,315.3Zm-15.3-38.9c3.2,3.7,4.8,6.7,4.8,9.1v6q15.15-.9,21-.9l3.7,5.9c-3.4,2.4-5.8,3.7-7.3,3.7H525.2c-.6,0-1.2.8-1.8,2.3v1.8a.46.46,0,0,1-.4.5h2.3a.74.74,0,0,1-.9-.7v-.2c4.9.6,7.3,3.2,7.3,7.8V314l-27,3.2c-4.6-.3-6.9-2-6.9-5v-2.4c10.1-.9,15.1-2.7,15.1-5.5v-1.4h.5l-10.1.9c-6.1-.3-9.1-2-9.1-5V297l8.7-1.8h11.4v-7.3l-1.4-6.4C514.5,278.1,516.4,276.4,518.5,276.4Zm11.2,80.9c10,1.5,15.1,3.8,15.1,6.9-6.1,7.9-9.1,12.3-9.1,13.3l1.8,6.9-7.3,1.4H504.6c-4.3,0-7-1.8-8.2-5.5,0-.3.1-2.1.5-5.5-1.2-1.5-1.8-6.1-1.8-13.7Zm-21,11a9.78,9.78,0,0,0-4.1-.9h-1.4c.9,5.5,1.7,8.2,2.3,8.2h7.8a14,14,0,0,0,4.1-.5l1.8.5c7.9-.9,11.9-3.9,11.9-9.1v.5h-.9c-11.1-.1-18.2.4-21.5,1.3Zm-2.3-39.7v2.2a1.73,1.73,0,0,0,1.4,1.8c13.4,0,20.6-2.9,21.5-8.7-9.5.1-17.2,1.6-22.9,4.7Zm1.8,12.8c.6,4,1.2,5.9,1.8,5.9h1.4c6.7-.6,10-3.5,10-8.7v.5c-1.5,0-5.9.7-13.2,2.3Z" transform="translate(0 0.05)"/><path d="M613.3,286.5l5,11-13.7,14.6v.5l2.3,7.8-.5,43.9v6.9a15.7,15.7,0,0,1-9.1-3.2l.5-48v-.9h-.5c-5.2,4.9-10.2,7.3-15.1,7.3C599.6,304.3,609.9,291.1,613.3,286.5Zm6.8,46.6h7.8v4.6c0,6.7-3,12.3-9.1,16.9h-5.9ZM634,284.2c2.6,0,4.2,3.4,4.8,10.1,13.4.9,21.8.1,25.1-2.3a27.77,27.77,0,0,1,10.1,3.2v3.2c0,4.3-5.6,9.9-16.9,16.9h-3.2v-3.7l5.5-7.8v-.5l-7.8.5c-10.4.9-16.1,2.8-17.4,5.5l-9.1,10-2.3,2.3-3.7-1.8c6.7-13.1,10.2-25,10.5-35.6Zm6.2,26.5h4.1c2.7,0,5,7.8,6.9,23.3,0,2.7.2,7.2.5,13.3v11a51.37,51.37,0,0,1-1.4,14.6v3.2h-5.5c-6.7-4.6-10.1-9.9-10.1-16l6,1.4h.5c.3-10.1.3-19.2,0-27.4A228.92,228.92,0,0,1,640.2,310.7Zm23.3,25.1a23.84,23.84,0,0,1,19.7,9.6,75.18,75.18,0,0,0-.5,8.2h-4.6c-7-4.3-11.9-8.7-14.6-13.3v-4.5Z" transform="translate(0 0.05)"/><path d="M43.9,420.9h4.6c2.8.9,4.1,3.5,4.1,7.8,0,2.7-.9,9.4-2.8,20.1l13.3-1.4a6.77,6.77,0,0,0,4.1-1.4c5.5,2.4,8.2,4.7,8.2,6.9v3.6c-21.6,0-32.5,3.7-32.5,11,2.1,0,9.7-.9,22.9-2.7,1.5,0,4.1,2.1,7.8,6.4L58.5,494.5v.9c2.7,4.6,12.3,9.1,28.8,13.7,6.7.3,10.1,2.3,10.1,5.9v3.2L89.2,520c-10.4,0-23.3-5.5-38.9-16.5-13.1,10.3-24.4,15-33.8,14.1a14.26,14.26,0,0,0-5-.9v-5c16.4-4.3,26.7-9.1,30.6-14.6l.9-1.4c-5.2-5.2-9-8.8-11.4-11C18.8,495.7,12,501.1,11,501.2l-11,.9q24.75-21.45,33.4-40.2v-.5a.55.55,0,0,0-.3-.5H25.7a.8.8,0,0,1,.9.7v.2a29.79,29.79,0,0,0-7.3-.9v-3.6l9.6-23.8c4.3,1.8,6.9,3.7,7.8,5.5v3.2l-3.2,9.6h2.3c5.2-3.3,7.8-11.9,7.8-25.6Zm-5.5,57.2v.9q7.35,8.7,12.3,8.7c1.8,0,4.6-4.7,8.2-14.2v1.4H57.1C44.6,476.7,38.4,477.7,38.4,478.1Zm23.7-48.9h4.5c9.1,3.1,13.7,6.7,13.7,11,0,2.7-1.4,4.1-4.1,4.1-9.4-4-14.2-7.6-14.2-11Z" transform="translate(0 0.05)"/><path d="M141.2,441.5c4.6.3,6.9,1.8,6.9,4.6v3.2l-6.9.9v8.7a46.12,46.12,0,0,1,9.1,0v3.6c0,2.1-2.9,4.3-8.7,6.4a139.81,139.81,0,0,1-1.8,15.1h1.4c.9,0,3.8-1.1,8.7-3.2l3.2,3.2c0,4.3-10.7,9.9-32,16.9a17.13,17.13,0,0,0-5.5-.9v-7.8c9.8,0,15.1-5.2,16-15.5v-4.6a.51.51,0,0,0-.4-.5h-3.3a11.8,11.8,0,0,0-3.7.9c-4.3-1.2-6.4-2.9-6.4-5s4.9-4.4,14.6-6.9l.5-.5v-6.9c.3-2.1-2-2.3-6.9-.5l-3.6-8.2C125.8,442.9,132.1,441.8,141.2,441.5Zm30.2,5h2.8c3.9,1.5,5.9,3.2,5.9,5v1.8c-1.5,13.1-2.1,23.5-1.6,31.1s1.9,13.2,4.3,16.9a13.83,13.83,0,0,0,5,3.2c14,1.5,21,.2,21-4.1a53,53,0,0,1,1.4-11.9h2.3c3.3,0,6.1,6.9,8.2,20.6-1.5,4.9-7.5,7.3-17.8,7.3l-11,.5c-15.8-3.3-23.2-12.8-21.9-28.3h2.3C166.8,501.1,159,509,149,512.4l-14.2.9,11.4-7.3c10.3-6.7,18-17.3,22.9-32,1.5-10.3,2.3-16.9,2.3-19.6Zm16.4-18.3c4,1.8,6.1,4,6.4,6.4V473l-1.4,7.3a20.1,20.1,0,0,1-9.6-2.7l.9-39.8-6.4.5c-7.6.9-11.4,1.7-11.4,2.3v11a184.37,184.37,0,0,1-2.7,31.5l-8.2-.5v-2.7c.9-13.7,1.4-27.4,1.4-41.1,0-5.5,10.3-9,31-10.6Z" transform="translate(0 0.05)"/><path d="M295.7,425c5.2,1.8,7.8,3.7,7.8,5.5v1.8l-17.8,23.8c4.9,5.5,8.2,16.6,10.1,33.4-.9,14.3-5.5,25.6-13.7,33.8-9.5-8.8-16-16-19.7-21.5v-3.7h4.1l11.4,6.9h2.7c1.5,0,2.6-6.2,3.2-18.7-1.2-13.4-4.6-23.8-10-31.1,2.7,0,6.1-5,10-15.1l2.3-3.6c0-.3-.3-.5-.9-.5l-22.4,4.6c-4-2.4-5.9-4.4-5.9-5.9v-2.3C258.7,430.5,271.6,428.1,295.7,425Z" transform="translate(0 0.05)"/><path d="M354.6,454.8h3.2c11.9,0,17.9,6.2,17.9,18.7,1.2,15.2,7.2,22.9,17.8,22.8q4,2.7,59.4,8.7l2.3,3.2c0,3.3-4.1,5.5-12.3,6.4q-32.4,0-81.8-17.8H348.3v-7.3a75.56,75.56,0,0,1,10.5-1.4c.9,0,4.6.3,11,.9v.9c-2.5-16.8-4.6-25.1-6.4-25.1C357.5,463.6,354.6,460.3,354.6,454.8Zm11.9-24.2c5.5,0,9.9,2.4,13.3,7.3v5.9h-4.1c-1.2,0-4.3-3.4-9.1-10.1Zm37.9-8.7c4.3,0,9.6,3.2,16,9.6q9.6-.9,12.3-.9l2.3,3.7v2.3c0,2.1-4,4-11.9,5.5,0,4.9-1.5,13-4.6,24.2l.5-.9c10.4,7.6,16.3,14,17.8,19.2h2.3a27.22,27.22,0,0,0-1.8,5.5l-3.2,6.4c-12.8-15.2-19.5-22.8-20.1-22.9-8.8,9.8-16.9,15.4-24.2,16.9-5.2-.9-7.8-2.6-7.8-5v-1.8c14.9-4.3,22.4-9.1,22.4-14.6-.3,0-2.6-2.7-6.9-8.2v-4.1a54.21,54.21,0,0,1,11.4,1.8c2.1-2.7,3.2-7.5,3.2-14.2h.9c-3.3,0-9.7.5-19.2,1.4l-1.8-3.2v-1.8c0-2.7,6.2-4.7,18.7-5.9l.5-.5-6.9-7.3Z" transform="translate(0 0.05)"/><path d="M513.9,425c3.3,7.6,13.2,15.4,29.7,23.3,14.3,5.8,21.9,9.8,22.8,11.9,0,2.4-1.1,3.7-3.2,3.7q-18.75.9-50.3-26.5c-4.9,10.9-16,22.1-33.3,33.4H477c-2.1,0-3.2-1.2-3.2-3.7,10.7-7.3,20.7-18,30.2-32C503.9,433,507.2,429.6,513.9,425Zm-2.6,22c4.9,4,7.4,10.8,7.4,20.6v3.7c0,6.1.2,14.3.5,24.7l.5,3.2c-1.8,15.5-3.7,23.3-5.7,23.3h-2.6c-1.2-7.3-2-11-2.6-11a18.41,18.41,0,0,1,.5-4.1q.9-30.6.9-48.9v-2.7l-2.3-2.7v-2.3C507.7,448.2,508.9,447,511.3,447Z" transform="translate(0 0.05)"/><path d="M610.5,437.4l1.8,3.2v3.2c-4.9,9.1-7.3,13.9-7.3,14.2,7,5.8,10.2,14.5,9.6,26v1.4c2.7,0,5.3,6.2,7.8,18.7l-3.7,5.5h-2.3c-2.4,0-4.7-5.3-6.8-16L595,486.7h.5v33.4h-3.2c-4,0-5.9-1.4-5.9-4.1V440.6C592.1,438.7,600.2,437.7,610.5,437.4Zm-15,10.5v31.5q0,1.35,8.7,1.8l.5-.9V479q0-12.3-8.7-17.4V457c2.1-4.9,3.2-7.9,3.2-9.1Zm37.4-27h5.5c0,5.2,1.1,7.8,3.2,7.8l10.1-.9,5.9,4.6-8.7,12.8H653c5.8.3,8.7,1.8,8.7,4.6-3.4,20.7-6.6,31.1-9.6,31.1h-2.3l-2.7-1.4c-5.2,1.2-11.7,2.6-19.7,4.1a9,9,0,0,0-4.6-.9V480c0-3,8.7-6.5,26-10.5l.9-3.7-19.6,4.1h-4.6v-4.1c0-2.7,8.2-5.6,24.7-8.7v-1.8l-2.3-.9-24.2,5.5V453c8.2-3.3,13.2-5.6,15.1-6.9l4.6-7.3v-.9h-6.9c-.3,0-4,4.3-11,12.8h-5v-3.2l7.8-15.1.9-3.2v-7.3Zm-8.2,65.8c5.5,9.5,10,15.7,13.7,18.7a31.54,31.54,0,0,0,15.1,3.7l11-.9v-.9l-.9-6.9,4.1-1.4c2.7.3,5.9,6.3,9.6,17.8-4,1.8-6.8,2.7-8.7,2.7l-7.8,1.4q-30.6,0-37.5-23.8c-1.2,0-1.8-1.7-1.8-5Zm12.3-1.8h4.1c4.6,0,9,2.6,13.3,7.8v5.9h-5.5c-2.1,0-6.1-3-11.9-9.1v-4.6Zm29.3-3.2c11,4.3,16.6,8.1,16.9,11.4v4.6H680c-5.2,0-10.4-3.2-15.5-9.6v-4.6a1.59,1.59,0,0,0,1.8-1.4v-.4Z" transform="translate(0 0.05)"/><path d="M760.2,441.5h5c2.4,4.3,6.8,6.4,13.2,6.4l2.7,4.1v1.4c0,2.8-1.4,4.1-4.1,4.1h-4.5v3.6c0,5.2,2.6,11.3,7.7,18.3-.6,0-.3-3.3.9-10l5-2.7c.9,2.7,2,4.1,3.2,4.1l-6.4,21c2.7,8.5,5.7,13.6,9.1,15.1q1.35,0,1.8-8.7h3.7c2.4.9,3.7,2.3,3.7,4.1v15.1q0,2.25,2.7,7.8l-4.6.9H797c-1.8,0-8.8-8.1-20.9-24.2.3,0-2.7,3.2-9.1,9.6h-1.8c-2.7,0-4.1-1.5-4.1-4.6,7.3-5.8,10.9-10.5,10.9-14.2v-6.4c-6.4-20.1-10.5-30.2-12.3-30.2-18.5,3-27.8,4.9-27.8,5.5l-.9,10,.9,10.5c-4.6,22.2-11.6,33.4-21,33.4v-4.6c4.9-4,8.4-11.7,10.5-23.3h-2.8q-.9,0-10.5,17.4a26.11,26.11,0,0,1-6.9.9l-2.2-4.1c4.6-3.7,6.9-7,6.8-10.1l-4.6-5.5c1.5-2.4,8.8-5.8,21.9-10.1v1.4l-2.3-1.4c-7.2,1.5-12.2,2.3-15,2.3a17.14,17.14,0,0,1-1.4-5.5q3.75-13.2,6-13.2h3.7v7.8l.5,1.4H716c4.8,0,7.2-.5,7.2-1.4V453.7h4.5c21.5-3.7,32.2-5.6,32.2-5.9Zm-.2-29.7c4.6,1.6,6.9,4.8,6.8,9.8l-.9,4.2c.3,1.6,1.7,2.3,4.1,2.3l7.3-2.3,4.6,6v1.9c0,2.8-1.5,4.2-4.6,4.2H761.8L751.7,447h-4.6v-3.7a9.76,9.76,0,0,0,1.8-5.5h-2.3l-3.7.4v9.6h-4.6q-6.9-9.6-7.8-9.6-9.15.9-12.3.9v-5c8.2-1.5,12.3-2.5,12.3-2.8l-.5-10h5c3.3,5.5,5.2,8.2,5.5,8.2h4.1c8.2-1.2,12.3-2.6,12.3-4.1v-2.3l-3.2-8.7c3.4-1.7,5.4-2.6,6.3-2.6Zm-4.1,45.7h3.2v6.9c-3.4.6-5,1.2-5,1.8V468q0,.45,1.8,1.8l3.7-.9a17.42,17.42,0,0,0,6.4.9v2.7c0,3.1-3.2,9.3-9.6,18.7v.9q9.6,3.6,9.6,6.9v4.1H754.5c-4.3,0-11.4,1.5-21.5,4.6-2.7,0-4.1-1.8-4.1-5.5l3.7-14.6v-11l.5-6.9h7.3l.5,4.1c2.7-1.2,4.1-2,4.1-2.3,0,.3-1.8-1.2-5.5-4.6-.1-2.6,5.4-5.8,16.4-9.4ZM738,495a5.78,5.78,0,0,0,1.4.5l7.8-.9v-3.2H744c-3,0-4.6-1.2-4.6-3.7v-3.2a20.86,20.86,0,0,0,15.1-6.4v.5h.9C743.8,478.5,738,484,738,495Zm37-56.2a13.22,13.22,0,0,1,11.9,6.9v4.1h-4.1c-4.9,0-8.2-2.1-10-6.4v-3.7c1.5,0,2.3-.3,2.2-.9Z" transform="translate(0 0.05)"/><path d="M859.6,464.8h4.8c2.9.9,4.3,4.1,4.3,9.6q0,28.8-37.9,45.2v-5.5q28.8-17.85,28.8-42.9v-6.4ZM882,425c4.6,1.2,6.9,3.2,6.8,5.9v.5c0,3-1.5,4.6-4.6,4.6h-11l-14.1,12.8h-.9c14.9-1.8,23.5-2.7,25.6-2.7.9,2.1,1.8,3.2,2.8,3.2l-.9,5v21.9c-.9,14.6-3,21.9-6.4,21.9h-.9c-2.4,0-3.7-1.5-3.7-4.6a216.64,216.64,0,0,0,1.8-27.9v-9.1l-.9-1.8c-16.2,1.5-24.5,3.3-25.1,5.5v.5a343.93,343.93,0,0,1-2.3,39.3h-6.9a12.16,12.16,0,0,0-.9-4.6c.6-13.1.9-23.5.9-31.1V451.1a8.58,8.58,0,0,0,5-2.3c1.8,1.5,3.4,2.3,4.6,2.3l5.5-10.5v-1.4c-10.7-.6-16-2.7-16-6.4v-3.2A252.22,252.22,0,0,0,882,425Zm-17.4,75h4.1c21.6,5.5,32.4,10.5,32.5,15.1,0,1.5-1.4,3.2-4.1,5h-2.3c-2.4-2.1-11.9-6.3-28.3-12.3l-1.8-3.7Z" transform="translate(0 0.05)"/><path d="M1002.7,426.9l3.2,4.6v5l-6.8.5-14.2,1.4-2.3,6.4c-4.9,7-8.5,11.7-11,14.2l-1.4-1.4c14.9-1.2,23.6-1.8,26-1.8h6.4c17.7.6,26.5,4.4,26.5,11.4q-.9,12.3-21.9,50.7h-4.5l-7.3-5H975.7a112.52,112.52,0,0,0-20.1,2.3c-3.3,0-7.1-2.4-11.4-7.3l-.9-9.6c-2.7-14-5-25.9-6.8-35.6,11.9-2.1,20.5-3.6,26-4.6l6.4-11.4c2.1-4,3.2-6.2,3.2-6.9l-7.8.9c-3.3,1.5-5.6,1.7-6.9.5-4-1.2-5.9-3-5.9-5.5v-2.3Zm-37.5,77.2c-.3-.3-.5-2.4-.5-6.4q0-2.25-.9-18.3c-.3-6.4-.8-10.4-1.4-11.9l-12.3,1.4q-.9.45-.9,0c1.8,7,3.7,19,5.5,36.1q6.75-.45,10.5-.9Zm8.3-36.6-.5,4.1h2.7q9.6-1.35,9.6-2.7v-3.2l-11.9.9Zm-.5,17.9q0,1.8,1.8.9c7-.9,10.5-2.4,10.5-4.6v-2.3c-8.2,0-12.4,2-12.3,6Zm1,18.7c6.9-.9,10.4-1.7,10.4-2.3l.9-8.2H984c-5.8.9-9.1,4.4-10,10.5Zm20.5-38.4v36.1c0,.3,3,1.1,9.1,2.3,3.3-1.2,7.6-11.4,12.8-30.6l.9-5.5q0-2.7-19.2-2.7h-3.7v.4Z" transform="translate(0 0.05)"/><path d="M163.1,571.8c3.5,0,6.6,1.8,9.2,5.5l-.9,5.5v1.8q-1.35,47.1-10.5,52.6h-4.6c-6.1-3.3-10.4-7-12.8-11v-3.7c7.9,2.1,12.2,3.2,12.8,3.2,1.5,0,3-4.7,4.6-14.2v-2.3h.5c-9.1.9-14.9,4.6-17.4,11-7.3,11-12.8,17.7-16.4,20.1h-3.2v-3.7q6-7.35,12.3-21.9v.9c-5.8.3-8.7-1.1-8.7-4.1v-.9c0-1.2,4.1-3,12.3-5.5l1.4-7.3a3.33,3.33,0,0,0-3.2,3.4v.2c-2.7-2.1-5-3.2-6.9-3.2v-3.7c0-2.4,4.4-4.6,13.3-6.4v-5.5l-7.8.9v-6.4C149.9,573.6,158.5,571.8,163.1,571.8Zm-13.7,31.1h-.9l12.8-1.8v-3.2c0-1.5-2.7-2-8.2-1.4-.9,1.8-2.2,4-3.7,6.4Zm4.1-21.5v1.4a27.13,27.13,0,0,0,.9,4.1h6.9v-6.4Zm45.7-10.1c1.8,0,3.4,1.5,4.6,4.6v1.4c0,3.1-3.7,9.1-11,18.3v-.5c12.8,5.5,19.2,13.6,19.2,24.2,0,6.7-4.4,10.9-13.3,12.8-2.4,0-6.9-.9-13.3-2.7v.9c.3,15.5-.8,29.1-3.2,40.7h-5.9l-.9-63.1a76.27,76.27,0,0,0-2.8-22.8l5-.9c4,1.2,5.9,4.9,5.9,11v.5H183c4.9-4.3,7.3-8.8,7.3-13.7h-8.7l-7.8-1.4v-3.7c.9-2.4,2.3-3.7,4.1-3.7l7.8-.5a117.33,117.33,0,0,0,13.5-1.4Zm-14.6,32.5v15.5l2.3.5,10.5,2.3a3.08,3.08,0,0,0,3.7-1.8v-4.1c0-5.8-5.3-10.8-16-15.1Z" transform="translate(0 0.05)"/><path d="M269.6,570.5h5c1.8,0,3.2,1.5,4.1,4.6v2.3q0,13.65-35.6,46.2h-4.6v-2.7Q269.55,586.4,269.6,570.5Zm11,31h4.1c1.5,0,3.5,1.7,5.9,5q0,6.45-17.4,27.9v1.8h6.4c3,0,11.6-2.3,25.6-6.8l-1.8-9.1h5.5c11.9,12.5,17.8,22.1,17.8,28.8v5.5h-4.1c-1.5,0-5.5-4.4-11.9-13.3-5.5,1.2-24.4,4.3-56.7,9.1l-3.2-4.1q29.85-30.6,29.8-44.8Z" transform="translate(0 0.05)"/><path d="M365.6,608.4h3.2l4.1,3.2c-9.7,26.2-15.7,39.9-17.8,41.1-3.1,0-5.2-3.2-6.4-9.6C359.9,623,365.6,611.4,365.6,608.4Zm-13.7-10.5h5.9c4.9,3.3,7.3,5.8,7.3,7.3v4.1h-5c-1.5,0-4.3-2.7-8.2-8.2Zm7.7-19.2h4.6c5.2,3.4,7.8,5.8,7.8,7.3v4.1h-2.7a10.3,10.3,0,0,1-9.6-5.9v-5.5Zm18.8-.5h5c3.6,2.4,7,4.9,10,7.3l10.1-.5,2.7,4.1v5c-9.4,0-14.5,2.3-15.1,6.9,5.3-1.8,8.8-.5,10.5,4.1v9.1c-2.6,18.3-5.3,27.5-8.2,27.5h-1.3q-6.9-2.7-6.9-9.6v-3.7c4.9,0,7.3-2.6,7.3-7.8V611c0,.3-.8.6-2.3.9-2.7,5.8-7.3,13.6-13.7,23.3l-3.2,3.2H367v-4.1c9.8-14.3,15.1-25.9,16-34.7v-1.8h-1l-9.6,2.3v-4.6c0-1.5,3.7-4.1,11-7.8l-5-5.9Zm49.3,13.3h3.7c2.7,0,4.1,1.4,4.1,4.1V597c-2.7,6.1-5.8,12.7-9.1,19.7l1.8,1.4c10.7-.9,17.4-1.4,20.1-1.4,3.3,1.8,5,3.5,5,5v5.5H432.8c-.6,0-1.1.5-1.4,1.4a31.86,31.86,0,0,0,1.8,6.8c0,12.8-4.4,22.1-13.3,27.9-11.3-3.3-16.9-6.8-16.9-10.5v-4.1h3.2c3.7,2.1,6.4,3.2,8.2,3.2h4.1c2.4-1.8,3.7-5.3,3.7-10.5v-11c0-.3-.6-.8-1.8-1.4-7.3.6-11.1,1.8-11.4,3.7-5.2-2.7-7.8-4.9-7.8-6.4,0-3,5-5.2,15.1-6.4.6-2.7,2.6-8.5,5.9-17.4q-.9-1.35-.9-.9h-.5l-6.9.9-2.3-6.4A104.84,104.84,0,0,1,427.7,591.5Zm-15-27.9h3.7c3.3,0,5.5,4.3,6.4,12.8h-.5c.3,0,4.7-.3,13.3-.9l2.8,4.1v4.6c-15.9,1.5-23.8,4.9-23.8,10-3.7,4-5.9,5.9-6.9,5.9H404v-3.2q8.7-19,8.7-29.7Z" transform="translate(0 0.05)"/><path d="M499.9,590.6c3.6,2.1,5.5,4.1,5.5,5.9v.9l-9.1,21v2.3l6.9,10c0,3-1.2,4.6-3.7,4.6h-1.8c-4.3-4-6.1-5.9-5.5-5.9-10.1,11.3-17.2,16.9-21.5,16.9H468v-6.9c4.9,0,10.7-5.6,17.4-16.9,0-1.5-4.6-5-13.7-10.5v-7.3h3.7c3,0,7.6,3,13.7,9.1,1.2,0,2.7-3.8,4.6-11.4v-.9l-11.4,1.4-.9-4.1V597C481.2,594.5,487.4,592.4,499.9,590.6Zm12.8-29.3,8.2,2.3c3,6.4,5.9,15.5,8.7,27.4h.9l16-4.1,2.7,5.5v.9c0,2.7-5.9,4.9-17.8,6.4v-.9c0,4.9,2,10.2,5.9,16,.6,0,3.7-5,9.1-15.1H551l1.8,7.8c0,3.1-4,9-11.9,17.8v-.5c7,12.5,11.9,18.9,14.6,19.2.9-.9,2.3-5.3,4.1-13.3l4.6,6.9,1,25.2-6.9-.5c-5.2-3.7-13.7-13.9-25.6-30.6l-23.8,16.5h-3.7v-3.7c14-12.2,22.1-20,24.2-23.3-4.3-12.8-6.7-19.3-7.3-19.7-8.2.9-13.9,1.4-16.9,1.4l-.9-4.1v-2.3c10.3-1.5,15.5-3.4,15.5-5.5s-2.4-10.7-7.4-25.6v-4.1Zm19.2,7.8c11.3-.3,16.9,3.5,16.9,11.4l-3.7,1.8c-8.8-4-13.3-6.9-13.3-8.7v-4.5Z" transform="translate(0 0.05)"/><path d="M614.7,580.5h3.5c3.2,0,5.2,6.1,6.1,18.3h-.5c10.7-.9,15.8-2.6,15.5-5v-11l5-3.2,5,14.6c20.4,0,30.6,2.8,30.6,8.3v.9c0,2.4-1.8,3.6-5.5,3.6q-12.75-2.7-20.1-2.7h-3.7a1.73,1.73,0,0,0-1.8,1.4q.45,47.55-4.8,63.1h-5.3l.5-16.8c-.3-6.1-.5-12-.5-17.7l.5-27.3a.51.51,0,0,0-.4-.5h-.1l-15.1,1.4c.6.9-.3,5.5-2.7,13.6-9.7,17.3-16.7,25.9-21,25.9l-2.3-3.6c9.8-16.1,14.5-26.3,14.2-30.9v-3.6c-.6.6-2.7,1.2-6.4,1.8a54.69,54.69,0,0,1-11.4,1.4c-4-1.5-6.4-3.8-7.3-6.8,4.6-1.5,13.7-3.5,27.4-5.9v.9c-.6-7-.9-12.1-.9-15.5A8,8,0,0,0,614.7,580.5ZM644.4,565c3.3,3.7,5,6.1,5,7.3v4.1q-14.1.9-20.1.9h-6.9l-9.6-.9v-7.8Z" transform="translate(0 0.05)"/><path d="M729.8,574.6h2.3l1.8,7.3c-.9,9.4-1.4,13.7-1.4,12.8,7.9.3,11.9,3.4,11.9,9.1q0,6-10.5,32.4v2.3c0,.3,3,3.6,9.1,10v5h-5.5c-6.1-5.8-10.1-8.7-11.9-8.7h-.5l-20.5,7.8v-4.1l13.7-11V637l-4.1-5.9c0-2.7,1.5-9.7,4.6-21v-.4l-14.6,2.7a12.48,12.48,0,0,0-5-1.4v-3c0-2.7,7.6-5.5,22.8-8.2Q726.2,574.6,729.8,574.6ZM723,628.5a.55.55,0,0,0,.3.5h1.9c6.1-5.5,9.1-13.1,9.1-22.8h.5c-6.1,0-10.1,6.4-11.9,19.2Zm37.9-61.2H765c2.1,0,4.1,3.4,5.9,10l-10,21.9-1.8,2.7c-1.2,0-1.1.2.5.5a189.7,189.7,0,0,1,23.8-5v-.5c-1.5-1.8-2.3-4.9-2.3-9.1h4.6c7.6,5.8,13.4,11.1,17.4,16v6c-4.6,0-7.9-1.2-10-3.7-13.7,0-27.9,3-42.5,9.1a6.82,6.82,0,0,0-4.6-2.3v-5.5c4.3-5.5,9.3-16,15.1-31.5Zm26,46.1h2.3q7.8,0,10.5,7.8c0,4-2.4,9.6-7.3,16.9v1.8a55.25,55.25,0,0,1,1.8,11.4,20.71,20.71,0,0,0-5,.5l-10-.5c-11.9,0-17.8,2.1-17.8,6.4h-5c-2.4,0-3.7-1.8-3.7-5.5,0-.3-.8-10.8-2.3-31.5,7.9-4.8,20.1-7.3,36.5-7.3ZM759,628.5c1.2,8.5,2.1,12.8,2.7,12.8h12.8c7.3,0,12.1-5.9,14.2-17.8V623l-3.7-.5c-17.3.1-25.9,2-26,6Z" transform="translate(0 0.05)"/><path d="M843.1,588.8c4,0,6.2,3.2,6.8,9.6-2.4,15.2-5.5,22.9-9.1,22.8q-11.4,0-16.5,7.8H822c-1.2,0-2.9-1.7-5-5l1.8-2.3v-4.1c0-1.8-1.2-9-3.7-21.5C821.4,593.9,830.6,591.5,843.1,588.8ZM826.7,602l.5,13.3c8.8-1.2,13.3-6.5,13.3-16h-1.8C830,599.9,826.1,600.8,826.7,602Zm64.9-28.3c5.5,2.1,9.1,5.3,11,9.6q-9.6,29.25-12.3,31.5-28.8,0-28.8,8.7l.5,4.1c.3,9.5,7.9,14.2,22.8,14.2l8.2.5c8.5.3,13.4-.2,14.6-1.4V640c0-2.1.2-6.9.5-14.2h3.7c4.6,6.1,7,13.7,7.3,22.8v2.8l-21,1.8H886.6c-20.7.6-31.8-7.2-33.4-23.3l-.5-4.1c.6-12.5,1.4-23.3,2.3-32.4v-.9c0-1.5-1.1-3.7-3.2-6.4v-4.6C855.2,581.4,868.4,578.8,891.6,573.7Zm-27.9,16.4v.5c0,1.8.2,4.6.5,8.2v10.1h3.7l2.7-.5v-.9l1.8-20.1h-.9Q865.05,587.4,863.7,590.1Zm16.5-5.5.5,19.7.9.5h2.3c2.7,0,5.2-7,7.3-21h-6.4a9.94,9.94,0,0,0-4.6.8Z" transform="translate(0 0.05)"/><path d="M222.8,881.15c9.2,0,13,1.8,11.5,5.3l5.1-.5h5.1c.9,0,2.3,1.2,4.2,3.5v1.3l-.8,1.3H244c-7.7.4-11.5.8-11.5,1.4.4,3.9.6,7.3.6,10.1v-.3h2.5a55.9,55.9,0,0,0,5.9-1.1h.6c.8,0,2.1,1,3.9,3.1v2.8h-3.4c-6.2,1.1-9.4,2.1-9.6,2.8v14.6c.8-.7,5.4-1.1,14.1-1.1h7.6c4.1,0,5.9-.7,5.3-2.3v14.6c1.1-3.7,1.1-5.2,0-4.2l-2-.3-2.5-.8c-4.1-.2-9.8-.5-17.1-.8q-7.5,0-11.7.3t-6.9.3c-3,0-8,.4-15.1,1.1a2.31,2.31,0,0,0-2-1.1v-.8c-.7-2.6,7.2-4.7,23.7-6.2l-.3-11.5.3-.6-6.1.3q-1.65,0-3.9-16.8v12.6c7.1-1.5,10.8-2.8,11-3.9v-8.4c0-.4-.6-.8-1.7-1.4l-5.9.8-4.2-.3-.9-1.1c2.3-2.2,6.7-4,13.5-5.3v-.3l-3.4-4Z" transform="translate(0 0.05)"/><path d="M283.3,904.15h3.6c0,4.1-1.7,8.3-5.1,12.4l-2.8,2.3c-2.4-2.1-3.7-3.9-3.7-5.6C277.3,912.65,279.9,909.65,283.3,904.15Zm20.6-28.1,1.6,4.2v11.3c3-.6,6.3-1,9.8-1.4,3.4,2.1,5.1,4.3,5.1,6.8-1.9,15-5.2,27.8-9.8,38.5h-1.4c-3,0-7.3-3.3-12.9-9.8v-2.3c2.8,0,6.1,1,9.9,3.1h.6c1.7-3.9,3.9-11.9,6.5-23.9l.8-5.6h-.3l-9,1.4c-.2,1.7-1.4,5.5-3.8,11.5-5,9.8-11.3,16.8-18.8,21.1h-2.5v-2.8c9.6-10.5,15.1-18.6,16.6-24.2a10.31,10.31,0,0,0,1.4-4.5l-7,.6-1.4-1.7-.6-3.4,10.7-1.7.8-13.2C300.1,879.05,301.4,877.75,303.9,876.05Zm17.9,29h3.1c4.9,2.1,8.4,4.6,10.7,7.6l-2,3.7c-2.4,1.5-6.4-1.4-11.8-8.7Z" transform="translate(0 0.05)"/><path d="M389.6,887.85c9.9-.6,14.9.4,14.9,2.9v.9c0,1.8-1.1,2.6-3.4,2.7-4.1,0-8.2-.1-12.1-.3q-7.65.6-13.2.6l-.6,7.3.3.3h7.6c3.2,0,5.3,1.3,6.5,3.9v3.1c0,2.3-3.3,10.9-9.8,25.9h-2.3q-1.35,0-9.9-9v-2.8h2.8l5.4,2.5h.8c.9,0,3.1-5.3,6.5-15.8v-1.4c0-.2-.9-.4-2.8-.6q-6.45-.9-9.3,4.8c-9,10.1-15.4,15.2-19.1,15.2v-2.5c10.5-11.1,16.8-20.8,18.8-29.3v-.8l-5.4.6c-1.7,0-6.3.5-13.8,1.4a5.1,5.1,0,0,0-3.1-1.1v-4.1C359.2,891.25,372.9,889.85,389.6,887.85Zm-22.2-8.1h4.2c4.5,2.4,6.8,4.1,6.8,5.1V886l-1.4,2.5c-5.8-2.4-9-4.7-9.6-6.8Z" transform="translate(0 0.05)"/><path d="M608.7,99.6h1.6c.5,0,.9.7,1.3,2.1-1.5,3.7-3.3,5.5-5.5,5.5v-.7A12.28,12.28,0,0,0,608.7,99.6ZM618,77.3h1.6c1,1.7,1.6,2.5,1.9,2.5a22.1,22.1,0,0,1,3.5-.4l.3,1V81c-.1,1.1-.9,1.6-2.5,1.6H621v3.5c0,.1.1.2.4.2a27,27,0,0,0,4.1-.6c2.7.6,4,1.4,4,2.5v.3c-2,3.4-3,6.2-3,8.3-6.9,1-10.8,1.5-11.8,1.5l-1.2-1.2c.3-2.2.5-3.3.5-3.6,0-1.1-.6-3.2-1.9-6.5h1a8.19,8.19,0,0,0,3,.7c1.3,0,1.9-1.6,1.9-4.7V77.3Zm-2.8,22.4h1.3l3.3,3.7a2.85,2.85,0,0,1,.1,3.4l-1.8-.2c-1.9-2.4-2.9-4.7-2.9-6.9Zm1.5-8.9c.2,2.6.5,3.8.9,3.8h2.7c3.3,0,4.9-1.7,4.9-5v-.9H625c-5.6,1-8.3,1.7-8.3,2.1Zm6,8.3H624a7.7,7.7,0,0,1,2.8,3.6v2.4h-1.3c-1.9-1.9-2.8-3.5-2.8-5Zm8.2,0c3.3,2.9,5,5.3,5,7.4v.3l-1.2,1.2a28.61,28.61,0,0,1-5.3-7.7V100q0-1.2,1.5-.9Z" transform="translate(0 0.05)"/><path d="M656.1,75.5h1.1c1.4,1.2,2.1,3,2,5.5l-.2,1.3h2.8q.6,0,1.2,1.2v.9l-3.5,2.1v.2a6.77,6.77,0,0,1-.7,2.7l10.3-.6c2.7.7,4,1.3,4,1.8L673,92q-.6,0-.6.3L670,92l-6.2-.2c-3.2-.1-4.8.2-4.7,1a61,61,0,0,0,.2,7.4,22.9,22.9,0,0,1,3,.2,19.53,19.53,0,0,0,3.4-.3c.8-3.5,1.6-5.3,2.4-5.3l1.3.2a2.77,2.77,0,0,0,.3,1.3c-.1,1.7-1.2,5.4-3.4,11.1h-.7l-3-.6a3.38,3.38,0,0,0,1.3-2.2v-.3c-.3-.4-.9-.5-1.8-.4q-5.1-.6-12.6,2.4c-1.6-.1-2.3-2.8-2.3-8h-.4a6.46,6.46,0,0,0,.4-1.9h1c1.4,0,2.2,1.9,2.5,5.8h.3c3.3-.3,4.9-.7,4.9-1.2l.3-7.5c0-.3-.2-.4-.6-.4-6.3.8-10.2,1.2-11.5,1.2l-1.3-2.6c9.3-.7,13.8-1.5,13.6-2.4V87.1l-.7-.6h-2.9c-1.2-.6-1.8-1.1-1.8-1.6v-1h1.3c2.8.2,4.1-.1,4.1-.9V80.6A40,40,0,0,0,656.1,75.5Z" transform="translate(0 0.05)"/><path d="M686.1,80.4c1.4.8,2.1,1.4,2.1,1.9v.9c0,.3-.9,1.4-2.8,3.4.3,3,.4,5.2.5,6.7V98q0,9-1.5,9h-.6l-1.3-1.3.4-4a20.55,20.55,0,0,1,.2-3.5c.2-2,.2-4.1.2-6.1V90.9l-.5-1.8-2,1.6h-1v-.9A39.66,39.66,0,0,0,686.1,80.4Zm12.7-5.2h1c.2,3.5,1.3,5,3.4,4.3l.9,2.7-3.7.4-.3,1.5,1.3-.1c.9-.4,1.4-.4,1.6-.2,3.3.7,4.9,1.6,4.9,2.7v.7c-2.7,4.1-4.8,6.2-6.4,6.2h-2.1a16.33,16.33,0,0,1-2.1,5.3q2.4,4,11.7,6.3c3,.5,4.6,1.1,4.6,1.8v.7q-3.15.9-3.3.9c-4.2,0-9.2-2.4-14.8-7.2h.2c-3.9,3.5-7.2,5.2-9.9,5.2l-.3-1.5c4.7-2.1,7.3-4.1,7.8-6.1a64.92,64.92,0,0,0-4.6-4.7l1.2-1v-.9a11.66,11.66,0,0,0-1.2-5.8,4.19,4.19,0,0,0,.4-1.5l2.1.2h1.5c2.7-.1,4-.4,4-.9v-.4c.3-.9-1.1-.9-4.1-.2l-1-1.3c0-1,2-1.7,5.9-2.2l.5-.6V77l-.9-1.3Zm-6.2,12.7v1.9l.3,1.2c2.7,0,4-.6,4-1.9V87.6c0-.1,0-.2-.1-.2h-.5A15.68,15.68,0,0,0,692.6,87.9Zm.5,7.1q0,.6,1.5,1.2c.9-.2,1.3-.9,1.3-2.1v-.4h-1.3C693.6,93.7,693.1,94.1,693.1,95Zm7.1-7.6v1.8c0,.3.2.5.6.7a4.52,4.52,0,0,0,3.1-2.1V87c0-.1,0-.1-.1-.2h-3l-.6.6Z" transform="translate(0 0.05)"/><path d="M733.9,77.6l5.7-.3c3.7.1,5.5,1.4,5.5,3.8.3,6.8.4,13.4.4,19.8a10.91,10.91,0,0,1-1.2,5.6h-.6c-4.1-1.2-6.2-2.5-6.2-3.8V102c2.4.2,3.9.3,4.7.3H742l.3-1.8c-.1-7-.2-12.4-.2-16.3,0-2.7-1-4-3.1-4h-5.1c-4,.3-6,.7-6,1.3v4.6c0,.2.2.3.5.3h.2c2.8-.1,4.3-.4,4.3-1V80.8H734c.8,0,1.5,1.4,1.8,4.3h-.2c.2,0,1.2-.1,2.9-.2l2.4.2v1.5c0,1-1.7,1.6-5.2,1.8v2.2l.5.9,2.3-.1h2.1a1,1,0,0,1,1.2.9V93c0,.7-2,1.3-5.9,1.8l-.2.4v8.7c0,2.1-.5,3.3-1.4,3.6h-.8a97.07,97.07,0,0,1-.7-12.1l-.3-.2a23.22,23.22,0,0,0-5.2.7,34.78,34.78,0,0,1-4.4,9.1,3.59,3.59,0,0,0-1.8-.7v-1.6a24.87,24.87,0,0,0,4.1-14.3c0-.7,0-2.6.2-5.6a8.13,8.13,0,0,1-.2-3.1C726.7,78.7,729.6,77.9,733.9,77.6Zm-5.8,11.5v3.4h-.2c3.3,0,5-.3,5-.7V89.6c-.1-.6-.2-.8-.3-.7C729.4,89,727.9,89.1,728.1,89.1Z" transform="translate(0 0.05)"/><path d="M763.3,80.5c2.6.4,4.2,1.3,4.9,2.7l-.2.6-.6,1-3.1-1.5c-3.7-.8-6,.2-6.8,3,.3,2,2.6,3.6,6.9,4.9,3.3,1,4.8,3.3,4.7,7.1-1.3,5-4.7,7.3-10.3,6.7-3.1-.3-5.1-2.1-6.2-5.5V98.3l1.5-.9c1.5,2.6,3.2,4.1,5.2,4.7l2.8-.3c2.3-.5,3.5-1.7,3.7-3.7v-.6c-.1-2.2-1.7-3.5-4.7-4.1-4.6-1.8-6.8-4.2-6.5-7.3C755,81.8,757.9,79.9,763.3,80.5Z" transform="translate(0 0.05)"/><path d="M778.2,90.8c1.9-.1,3.4.9,4.6,3a25.27,25.27,0,0,1-.9,5.5l.3,1a3.1,3.1,0,0,0,.9,1.8,3.46,3.46,0,0,1,1,2.1l-2.4.6a5.81,5.81,0,0,1-2.1-2.8c-1.8,2-3.4,2.9-4.9,2.8-2.5-.3-3.8-1.8-4.1-4.4.3-5,1.9-8.1,4.9-9.3A5,5,0,0,1,778.2,90.8Zm-4.7,7.9.2,1.8c.2.8.4,1.2.7,1.2h1c1.5,0,2.8-1.5,4-4.6l.4-2.5a1.89,1.89,0,0,0-1.9-1h-.1c-2.3-.1-3.7,1.6-4.3,5.1Z" transform="translate(0 0.05)"/><path d="M791.8,81.5l1.5.3a3.83,3.83,0,0,1-.3,3.3c-1.5-1.3-2.2.2-2.2,4.6v1c3.2-.7,4.6.3,4.4,3.1a31,31,0,0,0-4.3-.2c.3,4.9.4,8,.4,9.2,0,6-1.9,9-5.6,9H785v-1.6c2.5-.6,3.7-3.7,3.7-9.3-.3-4.1-.4-6.5-.4-7.1a16.45,16.45,0,0,1-3.8.2c-.9-1.4-.8-2.4.2-3a19.73,19.73,0,0,1,3.5.4C787.9,84.5,789.1,81.3,791.8,81.5Z" transform="translate(0 0.05)"/><path d="M803.2,90.8c1.9-.1,3.4.9,4.6,3a25.27,25.27,0,0,1-.9,5.5l.3,1a3.1,3.1,0,0,0,.9,1.8,3.46,3.46,0,0,1,1,2.1l-2.4.6a5.81,5.81,0,0,1-2.1-2.8c-1.8,2-3.4,2.9-4.9,2.8-2.5-.3-3.8-1.8-4.1-4.4.3-5,1.9-8.1,4.9-9.3A5,5,0,0,1,803.2,90.8Zm-4.7,7.9.2,1.8c.2.8.4,1.2.7,1.2h1c1.5,0,2.8-1.5,4-4.6l.5-2.5a1.89,1.89,0,0,0-1.9-1h-.1C800.5,93.5,799.1,95.2,798.5,98.7Z" transform="translate(0 0.05)"/><path d="M818.6,91h.1q3,.45,3,3l-1.9,1a1.72,1.72,0,0,0-2.3-.9h0a8.86,8.86,0,0,0-3.5,8.1v1.6c0,.7-.5,1-1.4,1h-.3c-.5,0-.9-.3-1.2-1v-1.5c0-.2.1-2.2.3-5.9v-.9a10.64,10.64,0,0,0-.9-3.5c.4-.9,1.3-1.3,2.8-1.3l.5,1.5a4.14,4.14,0,0,0,.5,1.9H814C815.5,92,817.1,91,818.6,91Z" transform="translate(0 0.05)"/><path d="M823.7,90.7h.5q.6,0,1.8,1.2a45.53,45.53,0,0,0-1.3,8.1c-.1,1.5.2,2.1.7,1.9l1.3-.6h1a4.42,4.42,0,0,1-1.6,3.4c-2.8.9-4-.6-3.8-4.6a31.53,31.53,0,0,1,.6-6.1l-1,.7-.4-2.5Zm.7-3.8a2.14,2.14,0,0,1,1.6,1.8v.4c0,.7-.3,1-.9,1h-.6a3.34,3.34,0,0,1-1.8-2.9,6.09,6.09,0,0,1,1.7-.3Z" transform="translate(0 0.05)"/><path d="M844.6,98.7h1.5v.9c-1.4,1.4-5.6,3.1-12.6,5.2-1.2-.5-1.8-1-1.8-1.6S836.1,101,844.6,98.7Zm0-10.2a2.84,2.84,0,0,1,.4,1.3c-.7,5.1-2.1,7.7-4.3,7.7a27.22,27.22,0,0,0-5.5,1.8c-.4-1-.7-1.5-1-1.5l.3-2.9V93.7a24.6,24.6,0,0,0-.7-2.9v-.1C833.8,89.6,837.4,88.9,844.6,88.5Zm-1-12.6h1.5c1.1.1,2.5,2.5,4.1,7.3a47,47,0,0,1,5.3-.2v2.2c-3.1.3-4.6.6-4.6,1,1.6,4.6,2.6,7,3,7l2.5-3.7h.6c.7.1,1.2.9,1.6,2.4-1.3,1.6-2.4,3.1-3.4,4.4a22.11,22.11,0,0,0,4.7,7c.2-.1.3-.2.3-.4l.2-3.7.6-2.1c1,0,1.6,1.7,1.9,5.2.1,4.3-.4,6.5-1.5,6.5q-3.45-1.65-8.1-9.6c-1.4,1.1-3.4,2.7-6.1,4.7l-1.9.6v-1.2l6.5-7.1-.7-1.6c-1.7-5.4-2.8-8.1-3.4-8.1l-9.6.9c-1.3-.4-1.9-.8-1.9-1.3,0-.9,3.5-1.6,10.5-2.2l.7-.2c-.1-1.7-1.1-4.2-2.8-7.8Zm-6.7,16.3a10.62,10.62,0,0,0,.4,3.3h.7c2.5,0,3.7-1.3,3.7-4v-.3c-3.2,0-4.8.3-4.8,1Zm13.6-15.7,1,.4c3.1,1.8,4.4,3,4.1,3.7l-.1.4a.84.84,0,0,1-1.3.6l-.6-.2a4.93,4.93,0,0,1-3.4-3.7Z" transform="translate(0 0.05)"/><path d="M875,81c3.9-.8,6.6.4,8.1,3.7l-1.5.4a6.7,6.7,0,0,0-6.1-1.5c-3.9,2.6-5.9,5.7-5.9,9.5-.4,4.8,1.3,7.8,4.9,9l1.5.1c2.4.1,4.8-1.3,7.4-4.1l1.2.1c.6,1.2.6,1.9.2,2.1-2.9,3.3-6,4.9-9.3,4.9h-.6q-8.4-1.8-8.1-11.4c-.3-5.4,2-9.6,6.9-12.4A2.2,2.2,0,0,1,875,81Z" transform="translate(0 0.05)"/><path d="M890.1,79l.6.9v2.5c0,3-.1,6.6-.4,10.6V92c.6-.9,2.2-1.3,4.7-1.2,2.3-.2,3.2,1.8,2.8,5.9-.5,3.1.3,5.1,2.5,5.8v1.8l-1.5.4c-3.2.1-4.5-3.3-4.1-10.3l-.5-.2c-3,0-4.6,3.5-4.6,10.6h-1.2a2.71,2.71,0,0,1-1.8-2.8c.5,0,1.1-7,1.9-21C888.8,79.7,889.3,79,890.1,79Z" transform="translate(0 0.05)"/><path d="M909.8,91h.2q3,.45,3,3l-1.9,1a1.72,1.72,0,0,0-2.3-.9h0a8.86,8.86,0,0,0-3.5,8.1v1.6c0,.7-.5,1-1.4,1h-.3c-.5,0-.9-.3-1.2-1v-1.5c0-.2.1-2.2.3-5.9v-.9a10.64,10.64,0,0,0-.9-3.5c.4-.9,1.3-1.3,2.8-1.3l.5,1.5a4.14,4.14,0,0,0,.5,1.9h-.3C906.7,92,908.3,91,909.8,91Z" transform="translate(0 0.05)"/><path d="M918.4,90.7q5.55.3,6,7.2c-.2,4.1-2.3,6.5-6.4,7.1-3.8,0-5.7-2.3-5.8-6.9.7-4.7,2.5-7.1,5.4-7.4Zm-3.3,6.2L915,99a3.45,3.45,0,0,0,3,3.4c2.5-.7,3.8-2.1,3.8-4.3.5-2.8-.7-4.3-3.6-4.7a3.33,3.33,0,0,0-3.1,3.5Z" transform="translate(0 0.05)"/><path d="M939.4,91c2.9.1,4.3,1.2,4.1,3.4v5c0,2.2.9,3.4,2.8,3.8v1l-1.2.6c-3.2.3-4.6-3.2-4.3-10.3l-.6-.3c-2.1-.3-3.1.8-3.3,3.4,0,4.2-.1,6.4-.4,6.4l-.9.3a1.59,1.59,0,0,1-1.2-1.5V97.5c-.2-1.9-.9-2.7-2.1-2.5-1.6-.3-2.5,3-2.7,9.8l-1.5.1c-1-.3-1.4-1.2-1.3-2.8v-.9c.6-3.7.8-6,.6-6.7a11.33,11.33,0,0,0-2.2-2.7l2.7-.4a10.1,10.1,0,0,1,1.6,1.3l.4-.1a4,4,0,0,1,5.7,0h0A5.65,5.65,0,0,1,939.4,91Z" transform="translate(0 0.05)"/><path d="M952.8,90.7c3.1,0,4.9,1.2,5.6,3.7,0,2.2-3,3.8-8.9,4.9.3,2,1.2,2.9,2.7,2.8,1.1.3,3.3-.3,6.7-1.9l-.3,2.2a9.27,9.27,0,0,1-6.1,2.7c-4.1-.1-6.2-2.6-6.1-7.4C947,93.7,949.1,91.4,952.8,90.7Zm-3.1,5.9h.4a6.35,6.35,0,0,0,5.5-2.7v-.2c0-.3-.3-.5-.9-.7H954c-2.8.7-4.2,1.8-4.3,3.6Z" transform="translate(0 0.05)"/><path d="M970.8,77.3h.8c1.3.4,1.9,1.7,1.9,3.8v3c0,.2.9.4,2.7.7v1.3c-1.8.6-2.7,1-2.7,1.3v1h.4l2.2-.3.1.9c-1.8,1.7-2.7,3-2.7,4v3.6q0,6.75-.9,9.6l-2.1-.3a38.33,38.33,0,0,0-4.4-3.6v-1h1.6a11.27,11.27,0,0,0,1.8.3c.9-.4,1.3-1.7,1.2-4V95c0-.3,0-.4-.2-.4l-4.9,4.6a10.64,10.64,0,0,0-2.5-.9V96.9c4.7-3.2,7.2-5,7.4-5.6V88.8c0-.3-.1-.4-.3-.4h-.6l-2.4.6a2,2,0,0,0-1.2-.6V86.5c3.3-.6,4.9-1.1,4.9-1.5Zm20.7,3.8q2.7.9,2.7,3.3h-.7c-1.2-.1-2.2-.2-3-.2l-3,.3.2,8.1v12.6l-.6,2.2h-.8c-.8,0-2.5-1.3-5-4v-1.3h1l2.2.6h.5V87.3q.3-2.7-.3-2.7h-.6a13.54,13.54,0,0,0-4.9.7,4,4,0,0,0-1.5-.3V82.8C981.5,82.5,986.2,81.9,991.5,81.1Z" transform="translate(0 0.05)"/><path d="M1010.3,81.8h1c.9,0,1.5,2,1.8,5.9,3.7-.3,5.4-.8,5.2-1.6V82.6l1.5-.7a35.7,35.7,0,0,0,1.6,4.6c6.5,0,9.7.8,9.7,2.5v.3c0,.7-.5,1-1.6,1a35.09,35.09,0,0,0-6.5-.9h-1.2c-.3,0-.5.2-.7.6.1,10.3-.4,17-1.5,20.3h-1.4l.1-5.3c-.1-2-.1-3.9-.1-5.8l.1-8.9c0-.1-.1-.3-.2-.3h-.1l-5,.4c.1.2-.2,1.7-1,4.4q-4.5,8.4-6.6,8.4l-.4-1c3-5.2,4.5-8.6,4.4-10V91l-2.2.4a15.53,15.53,0,0,1-3.7.4c-1.3-.5-2-1.1-2.2-1.9a67.07,67.07,0,0,1,8.9-1.9v.2c-.2-2.3-.3-3.9-.3-5A3.26,3.26,0,0,0,1010.3,81.8Zm9.3-4.8c1.1,1.2,1.6,1.9,1.6,2.2v1.2c-3,.2-5.1.3-6.4.3h-2.2l-3-.3V78.2Z" transform="translate(0 0.05)"/><path d="M682.1,129.3h.6c1.2,0,1.8,3.1,1.7,9.2l-.3,4.3.3.1h.2l2.7-2.8h1.2c0,1.8-1.7,5.2-5,10.4-.8,0-1.8-.7-3-2.2.9-1.5,1.3-5,1.3-10.5V131A10.1,10.1,0,0,0,682.1,129.3Zm5.5,2.7h.6c3.5,1.1,5.3,2.4,5.3,3.9,0,.7-.4,1-1.2,1h-.4c-1.6,0-3-1.2-4.3-3.7Zm10.5-7.1h1.8c.6.3.9.6.9,1v1.9c0,5.3-1.9,11.5-5.6,18.6a58.24,58.24,0,0,1-5.3,4.6h-1v-1.2c3.8-3.4,6.5-8.3,7.8-14.6a72.79,72.79,0,0,0,1.4-10.3Zm2.7,16.4,1.2.6a39.89,39.89,0,0,1,8.3,5.8v1.5c0,1.3-.3,1.9-1,1.9s-3.3-2.2-7.7-6.5q-2.4-1.5-2.4-3.3Z" transform="translate(0 0.05)"/><path d="M726.2,132h1.1v1.2a7.67,7.67,0,0,0-1.6,3.1,15.28,15.28,0,0,1,1.6,6.6v.6c-.5,6.1-1.4,9.2-2.8,9.2l-2.7-3.3v-1.5l2.1.6c.5,0,.7-1.6.7-4.7-2.8,2.8-4.4,4.1-4.9,4.1a3.08,3.08,0,0,1-2.1.4v-2.1c2.2,0,4.3-2.4,6.4-7.1v-.7h-.6c-3.2,3.2-4.9,4.7-5.3,4.7h-1.8c4.1-4.6,6.2-7,6.2-7.3l-1.2-1.8v-1.6h1l1.6,1.3C724.3,133.9,725,133.3,726.2,132Zm7.2-10.7h1.3c1.7.5,2.3,1.4,1.9,2.7l-.1,1.6,1.3-.1c-.1,0-.2-.1-.2-.4a3.86,3.86,0,0,1,3.7,2.2v.7l-2.5.1-3.3.3c-.2,0-1.1,1.5-2.8,4.4h-1.6v-1.3l1.2-3v-.1l-1.9.1q-1.2,0-1.2.6l-.4,3.1h-1.3c-.9-2.2-1.5-3.1-1.9-2.8l-2.8.1-1-2.7a15.1,15.1,0,0,0,4-.4l-.6-3.1h1.5l2.4,3,2.4-.3h2.1c.3-.1.5-.6.5-1.6v-.6a4.07,4.07,0,0,0-.5-1.8Zm2.8,9.6c1.4,0,2.2,1.8,2.4,5.3h1.3l2.4-.3q.9.6.9,2.7c-3.3.5-4.9.8-4.9,1v.4c3,5.7,5.6,8.5,8,8.4,1.8,1.2,2.7,2.1,2.7,2.8s-.5,1-1.5,1a9,9,0,0,1-8.4-5.5c-1.2-2.9-2-4.3-2.5-4.4a46.79,46.79,0,0,1-7.3,9.3c-.9,0-1.3-.4-1.3-1.2V150c3.9-3.9,5.9-6.8,5.9-8.9v-.5l-.7-.1v.1c-1.7-.1-2.5-.6-2.5-1.6v-.7c3.5,0,5.2-.9,5.2-2.7v-2.1l-.7-1.9Zm4.3-.9c2.7,1.1,4.3,2.2,4.9,3.3a5,5,0,0,1-2.1.9c-1.3,0-2.5-.8-3.5-2.4v-1.3c.5,0,.7-.1.7-.5Z" transform="translate(0 0.05)"/><path d="M763.9,129.2c.5-1.1,1.2-.7,2.1,1,0,.6-.9,1.8-2.8,3.7-.9.7-1.4,1.1-1.6,1.3a8.33,8.33,0,0,0,.3,2.2v9c-.2,3.5-.6,5.2-1.4,5.2h-.3c-.7,0-1-.3-1-1,0-.5,0-1.9.2-4.1l-.3-9h.2c-.5,0-1.4.7-2.8,2.1l-3.1.3C758.9,134.2,762.5,130.6,763.9,129.2Zm-.9-5.9,1.8.9v.4c0,1.8-1.7,3.8-5.2,5.9H758v-.9A51.24,51.24,0,0,0,763,123.3Zm15.8,10.6c1.2.4,1.8.8,1.8,1.3v1.2c-1.5,0-2.2.1-2.2.4v1h7.4l.7,1.3v.9l-.5,1a22.38,22.38,0,0,0-5.2-.4H779l.3,7.1c-.3,4.6-1.3,6.8-3,6.4h-.6c-3-2-4.4-3.2-4.4-3.7v-.7h2.1a9,9,0,0,0,2.2.6,7.89,7.89,0,0,0,.7-3.7c0-3.6-.1-5.5-.3-5.6l-10.6,1.2-2.1-2.1a74.86,74.86,0,0,1,12.6-1.6l-.2-.4c-.1-.7-.3-1-.7-.9l-3.4.4q-1.8-.75-1.8-1.5C769.9,135.1,772.9,134.4,778.8,133.9Zm-10.2,8.6h.7c3.6.5,5.3,1.3,5.3,2.4v1l-.9.9c-3.5-1.2-5.2-2.2-5.2-3.1v-1.2Zm10.2-21a4.42,4.42,0,0,1,2.8,2.2q-1.65,8.85-2.7,9.3a56.65,56.65,0,0,1-6.1.4q0,.15-.9.9h-.7a1,1,0,0,1-1.2-.8v-.4l-.7-3.7-.3-4.6h1c1,0,1.7,2,2.1,6.1h.2c3.8,0,5.8-.5,5.8-1.5v-.6h-5.8v-1.5a3.63,3.63,0,0,1,2.8-1.2c1.9.2,3,.3,3.4.3l.1-.4v-1.5l-.7-.3H776c-.2,0-1.4.2-3.7.6a2.49,2.49,0,0,1-2.7-1.5c.1-1,3.1-1.6,9.2-1.8Z" transform="translate(0 0.05)"/><path d="M828.3,131.7l4.4.3v2.5c-.5,0-.7.1-.7.4a14.41,14.41,0,0,0-6.2-.1,70.76,70.76,0,0,0-9.2,1.6V141a2.14,2.14,0,0,0,1.8,1.6,9.33,9.33,0,0,0-1.9,6.2h.3c2.4-2.3,4-3.9,5-5-1.1-1.1-2.2-2.2-3.4-3.3v-1.2h1.8l3.5,2.8c.8-.4,1.2-1.4,1.2-2.9h.3a15.54,15.54,0,0,0-3.1.7c-1.3-.6-1.9-1.2-1.9-1.9,1.2-.5,3.4-1.2,6.7-2.2,1.3.5,1.9,1,1.9,1.5-.2,1.6-1.2,3.6-3,6.2.6,1.6,3.5,3.6,8.7,6.1q0,1.5-1.2,1.5c-2.7,0-5.8-1.6-9.5-4.9h-.3c-3.1,2.1-5.4,3.8-7.1,5.2l-.1,2.5c0,1.6-.5,2.4-1.6,2.5h-.3l-1.5-1a18.93,18.93,0,0,0,.6-4.7v-2.9c0-.3,0-.4-.2-.4h-.2a16.87,16.87,0,0,1-6.8,3.1,3.81,3.81,0,0,0-1.5-.1v-1.2c0-.5,2.8-2.1,8.4-4.7l.2-.3v-1h.3c-2.3,0-3.4.5-3.4,1.6,0,.9-.7,1.6-2.2,2.2a20.19,20.19,0,0,1-.3-6l-.2-3.8-4.6-.3-.2-2.4c4.2-.2,8.5-.6,12.8-1.2S824.2,132.2,828.3,131.7Zm-18,8.7v.3h1q2.1,0,2.1-.6V140a10.55,10.55,0,0,0-3.1.4Zm.2-3v.4c0,.1.2.1.6.1,2.1-.1,3.1-.4,3.1-.8v-.4H814c-2.4,0-3.6.2-3.5.7Zm4.6-5.1a5,5,0,0,0-1.3.4,2.89,2.89,0,0,1-2.2-2.9l-.2-5c0,.1-.1.1-.3.1,0-2.5,3-3.6,9-3.6,1.1-.1,2.2-.1,3.3-.1,1.6,0,2.4.6,2.4,1.9l-2.5,7.1-.4,1.2Zm.3-8h-1.5c-.1,0-.2.1-.2.3v.4c0,.1,0,.1.2.1h2.8c3.3-.4,5.3-.6,5.8-.6h.2v-.7c0-.1,0-.1-.2-.1H821c-.5,0-2.3.2-5.6.6Zm-.9,3.6h-.3v.3c.1,1.1.2,1.6.4,1.6,4.5,0,6.8-.6,6.8-1.9v-.7c-2.3.3-4.6.6-6.9.7Z" transform="translate(0 0.05)"/><path d="M850,125.3h.6l1,.4c0,.9-1.5,3.2-4.4,7.1l.1,1.5a82.36,82.36,0,0,1,.7,9.9v.6c0,1.4,0,3.1-.1,5-.1,1-.2,1.8-.2,2.4l-.7.8h-.7l-1.6-1.9c.4-10.5.6-16,.6-16.4-2.1,1.7-3.6,2.5-4.6,2.5v-.9Zm8.2-2.9h1a2.77,2.77,0,0,1,1.5,2.7v3.2c0,.1.2.1.6.1l2.5-.3c1.2.4,1.8.8,1.8,1.3v1.3c-3.3,0-4.9.2-4.9.6v3.4q.15.3.3.3h7c1.9.2,2.8.8,2.8,1.8v.1c0,.9-.3,1.2-1,1H861c-.2,0-.3.3-.3.7.1,1.5.2,2.2.4,2.2h2.2v-.4c1.6.8,2.4,1.5,2.5,2.1,0,.9-1.7,1.5-5,1.9a19.83,19.83,0,0,0,.3,3.5l1.8.3h5.3c2.3-.1,3.4.5,3.4,1.7v.7c0,.7-.5,1-1.3,1a20.13,20.13,0,0,0-5.5-.4c-2.2,0-7,.3-14.5.9a4,4,0,0,0-1.5-.3V151q0-1.35,8.1-2.1a3.72,3.72,0,0,0,.7-3.5v-.3c0-.2-.2-.3-.4-.3h-1.7l-2.1-.3v-.9c0-.9,1.3-1.5,4-1.8l.2-.4v-1c.3-1,.2-1.5-.4-1.5l-5.5.6a4.53,4.53,0,0,0-1.6-.3v-2.1l5.5-1c.2,0,.4-.1.7-.1a2.62,2.62,0,0,0,1.6-1.3V132q0-.45-.9-.3l-1.6.1a1.61,1.61,0,0,0-1.3-.6v-.7c0-.6,1.3-1.2,3.8-1.8-.1-1.9-.2-3.2-.2-4A6.35,6.35,0,0,1,858.2,122.4Z" transform="translate(0 0.05)"/><path d="M885.2,124.4h.6c.6,0,1.1.7,1.5,2.2v.9a29,29,0,0,1-3.4,5.2,13.42,13.42,0,0,1,.1,4v13l-.3,2.5h-1.4c-.5,0-.9-.8-1.3-2.4,0-.3.1-2,.3-5.2V134.2l.1.1c-2.9,2.1-4.6,3.1-5.2,3.1v-.9C880.7,131.8,883.7,127.7,885.2,124.4Zm9.5-4.4,1.5.7q1.5.6,1.2,7.5l1.5-.1,3.8-.6a4,4,0,0,0,1.5.3v1.5c0,.9-2.1,1.5-6.2,1.8-.5.1-.7.3-.6.7.1.7,2.7,3.6,7.8,8.9,1.4.9,3,1.9,5,3l2.1.7a6.29,6.29,0,0,1-3.3,1.2c-1.5,1.2-5.4-2-11.7-9.5l-.3-.3v6.4h-.2a42.1,42.1,0,0,0,5-.4l.7,1.6v.3c0,1-1.8,1.6-5.5,1.9a61,61,0,0,1-.2,7.4,1.75,1.75,0,0,0-.4,1.2h-1.2q-.45,0-1.5-2.1l.1-4.7v-1.3a4.28,4.28,0,0,1-3.8-.6l-1-.9v-.9c3.4-.4,5.2-.7,5.3-1v-6.4l-.6.6c-4.1,6-6.8,9.3-7.8,9.9H885v-1.3c2.8-4.1,5.5-8.5,8.3-13V132h-3.5c-1.2-.5-1.8-1-1.8-1.6v-1.1c4.3-.2,6.5-.5,6.5-.9l.2-8.4Z" transform="translate(0 0.05)"/><path d="M934.6,121.8l2.2,1.3-.6,1v.9c3,3.6,7.4,6.4,13.3,8.4v1.2c0,.7-.4,1-1.3,1-3.1-.2-7-2.5-11.5-7A24,24,0,0,0,934,127a56.85,56.85,0,0,1-5.9,8,2.66,2.66,0,0,0,.3,1.2c0,4.7-1.4,9.9-4.1,15.5l-1.8,1.3-6.1-4.3v-1.5a20.22,20.22,0,0,1,5.3,1.6c1.3-.5,1.9-2.7,1.9-6.5l-10.2,1.6h-.8v-1.6c1.8-.5,5.8-1.7,12.1-3.7v-.9h-2.4a8.46,8.46,0,0,0-5,2.2l-1.8-1.1a21.19,21.19,0,0,0,3.3-9.5h.7c.5,0,1,.4,1.6,1.3l-1.2,4.1v.3h.3c4.3,0,6.5-.6,6.5-1.8C927.5,132.8,930.1,128.9,934.6,121.8Zm-8.4,2.1c1.1.5,1.6,1,1.6,1.5v.9q-1.2,1.2-2.7,7.5H924a1,1,0,0,1-1.2-.8v-.4a30.43,30.43,0,0,1,1.3-5.2c0-.1-.3-.2-.9-.4h-1a2.77,2.77,0,0,0-1.3.3c-1.3-.5-1.9-1-1.9-1.5v-1c.5,0,.7-.3.7-.9l1.8.9a35.5,35.5,0,0,1,4.7-.9Zm4.6,15.2h.3c1,0,1.7,2.2,2.2,6.5v.6h-.2c6.8-.3,10.4-.5,10.8-.7a4.86,4.86,0,0,1,3.4,1.5v.5a1,1,0,0,1-.8,1.2H941c-2.5,0-6.5.2-12.3.6a7.57,7.57,0,0,0-1.5-.1v-2.1a31.08,31.08,0,0,1,4.3-.3c-1.4-1.7-2.1-4-2.1-7.1Zm7.8-6.5a3.29,3.29,0,0,0,1.9.6v.7c0,1-2.8,1.8-8.4,2.5q-1.8-.6-1.8-1.5c0-.9,2.8-1.7,8.3-2.3Zm-3.4,5.2h.4c.8,0,1.4,1.8,1.8,5.3l-1.2.3h-.4c-.5,0-1.1-.5-1.8-1.6v-3A1.19,1.19,0,0,1,935.2,137.8Zm6.2-1.5c1.2.9,1.8,1.7,1.8,2.5,0,1.3-2.3,3.8-7,7.4v-1.4a74.36,74.36,0,0,0,5.2-8.5Z" transform="translate(0 0.05)"/><g class="c"><use width="11.4" height="35.3" transform="matrix(-1.73, 0, 0, 1.73, 1026.92, 0)" xlink:href="#b"/></g><path d="M551.5,883.05c0,.4.3.6.8.6,0,2.8-2.4,4.5-7.3,5.1,0,.4-.3,2-.8,4.8.2,0,.8,1,2,3.1,0,1.3-2.5,2.6-7.6,3.9l-4.8,4.5v-.3c11.3,0,16.9-2.3,16.9-7,.9-3.2,1.9-4.8,2.8-4.8h.6c1.5.4,2.3,1,2.3,2q-1.65,13.5-8.4,13.5c-4.3.2-6.5.6-6.5,1.1v1.1q0,.6.3.6h2c.6,0,4-.5,10.4-1.4h2c5.3,0,7.9,2.1,7.9,6.2-1.9,9.9-5.3,17.8-10.1,23.6h-1c-4.7,0-9.2-2.4-13.5-7.3,6.9,1.5,10.9,2.3,11.8,2.3,4.7-8.1,7-14.2,7-18.6-.4,0-3.1-.4-8.2-1.1-10.3,1.1-15.5,3.7-15.5,7.8l.8.6c4.9-.7,8-2.2,9.3-4.2H547c3.8,3.2,5.6,6.3,5.6,9.3l-2,1.1c-2.1-1.9-3.9-2.8-5.3-2.8h-.6c-.7,0-4.9.5-12.4,1.4h-1.1c-1.7,0-2.5-.8-2.5-2.3v-1.1c1.3-.7,2.7-2.8,4.2-6.2v-1.1h-6.8v-.3l1.7,15.8a10.66,10.66,0,0,0-.6,3.1h-2c-.9,0-2-.9-3.1-2.8v-1.7c0-7.9-.6-11.8-1.7-11.8h-.8c-6.2,5.1-10.7,7.6-13.5,7.6H504v-2c5.6-3.7,8.4-7.9,8.4-12.4v-1.8c0-.2-.5-.5-1.4-.8h-.8l-3.4.6-2-2.3c5.1-2.1,7.6-4.4,7.6-7,0-1.3-1.2-3.3-3.7-5.9v-1.7h1.4a44.93,44.93,0,0,0,8.2-1.1,7.6,7.6,0,0,0,2.5.6V895c0,.6-1.1,1.8-3.4,3.7v5.1c0,.2.3.3.8.3h1.1c-.2,0-.3-.3-.3-.8a11.67,11.67,0,0,0,3.7.8v2.3c0,1.5-1.8,2.3-5.3,2.5a2.51,2.51,0,0,1-.6,1.4,44.29,44.29,0,0,1,.6,5.1h.8c11.4-1.5,17.2-2.8,17.2-3.9v-1.3c0-.1-.1-.3-.2-.3h-2.4l-4.5,1.1c-1.7,0-2.9-5-3.7-14.9h4.5c0,3.9.8,6,2.3,6.2,3-1.9,4.5-3.8,4.5-5.9-.6,0-1.4-.9-2.5-2.8v-2h5.3c.6,0,.8-.2.8-.6v-1.7c0-.4-.3-.6-.8-.6-3.9.4-6.3.6-7,.6l-4.2-.6v-3.9C539.6,883.65,547.6,883.05,551.5,883.05Zm-18-7.3h2.3q4.5,2.85,4.5,3.9v1.1a1.77,1.77,0,0,1-1.4,2h-.6q-3.15-.3-4.8-4.2Z" transform="translate(0 0.05)"/><path d="M605.3,879.45c1.7,2.1,2.5,3.6,2.5,4.5-1.9,4.5-3.2,16.9-3.9,37.1-.4,0-.6.5-.6,1.4l.6,3.7a8.15,8.15,0,0,0-.6,3.1h-1.8c-4.6,0-9.4-4.3-14.5-12.9h3.1c4.1,3.9,6.7,5.9,7.6,5.9.7-1.9,1.1-6.7,1.1-14.3v-5.1C588.1,913,581.6,918,579.1,918l-.8-1.7v-1.4c4.9-4.3,11.7-9.8,20.5-16.6a74.11,74.11,0,0,0,1.8-11.5V886h.3a66,66,0,0,0-12.5,1.7,16.28,16.28,0,0,0-3.1-.3v-2.8Zm-19.2,15.2a8.91,8.91,0,0,1,7.6,3.9v.6l-.8,2.8c-7.1-2.2-10.7-3.9-10.7-5.1v-1.7Zm40-15.8c2.5,0,4.5,1.5,5.9,4.5-.4,3.8-.7,5.6-1.1,5.6l.5,7v11.8q0,23.1-3.6,23.1a28.33,28.33,0,0,1-11.7-8.2v-2.3l8.6,3.1,1.7-2.3v-11q0,.6-3,.6,3-2.25,3.6-8.4l-.8-.3H625l-16.6,16.3-2.3-3.1v-1.4a205.89,205.89,0,0,1,20.2-18.3v-.8a4,4,0,0,0-1.1-3.1l1.1-3.9v-3.4H625a35.58,35.58,0,0,0-9.8,2h-2.3v-2.3C614.8,882.55,619.1,880.75,626.1,878.85ZM610.9,893h1.4c4.1,1.7,6.5,3.4,7,5.1v2a13.58,13.58,0,0,1-10.4-4.2V895C609.3,893.55,609.9,893,610.9,893Z" transform="translate(0 0.05)"/><path d="M662.6,901.35h2.5v2l-11.3,28.4h-2.2c-1.3,0-2.4-1.5-3.1-4.5C653.3,919.05,657.9,910.35,662.6,901.35Zm-12.1-4.5,1.4-.3c3,0,5.1,1.6,6.2,4.8l-2.3,4.5a33.46,33.46,0,0,1-5.3-6.5v-2.5Zm6.2-14H659l3.9,2.8v4.2l-3.1,1.7a33,33,0,0,1-3.1-5.1v-3.6Zm34,29a8.43,8.43,0,0,1,2.8,3.4c-1.1,3.6-3.8,7.2-8.2,11V926c1.7,1.9,8.2,4.3,19.4,7.3l1.4,4.8h-1.7c-7.3-.4-15.1-3.2-23.3-8.4h-.6c-2.1,1.9-5.8,4.2-11.3,7-4.1,0-6.2-.8-6.2-2.3V933h1.7a91.55,91.55,0,0,0,11.9-6.5c-1.9-1.1-4.3-2.7-7.3-4.8v-1.4a7.27,7.27,0,0,1,1.4-3.1l1.7-.8q2.1-2.55,18.3-4.5ZM687.3,897l7.6-.3c3.8,0,6,1.1,6.8,3.4-3.9,7.7-7,11.3-9.3,10.9a72.38,72.38,0,0,0-23.6,4.5c-1.3-7.1-2-11.9-2-14.3,11.6-2.8,18.5-4.3,20.5-4.2Zm-8.4-19.7c4.7-.6,8-.6,9.8,0,3,.4,4.5,1.2,4.5,2.5,0,11.1-3.2,16.7-9.6,16.9a30.4,30.4,0,0,0-7.3,1.4c-2.8,0-4.4-4.2-4.8-12.7a13.33,13.33,0,0,1-.3-2.8c.1-2.2,2.7-4,7.7-5.3ZM672.4,906v3q0,.3.6.3h.3c1.9,0,2.9-.4,3.1-1.1v-3.7q0-.6-.3-.6c-2,.1-3.3.7-3.7,2.1Zm4-22.8c.2.9.4,1.4.6,1.4,7.1-.9,10.7-1.6,10.7-2-.2-.8-1.2-1.1-3.1-1.1l-5.6,1.1a7.09,7.09,0,0,0-2.6.6Zm0,36.5a46,46,0,0,0,5.3,3.7c3.6-3.2,5.3-5.3,5.3-6.5l-.6-.3c-6.6.9-10,2-10,3.1Zm1.6-30.1h-.6v2.5h.6c5.6,0,8.4-1.1,8.4-3.4l-.8-.6h-.3a42.92,42.92,0,0,1-7.3,1.5Zm2.9,12.4v.8l.3,3.2h.8c2.4,0,3.7-1.4,3.7-4.2q0-.6-.3-.6A35.4,35.4,0,0,1,680.9,902Zm9.6-.8-.6,3.4.8.6h1.7c.6,0,1.3-.7,2.3-2l.3-2Z" transform="translate(0 0.05)"/><path d="M770.6,908.65h2.5c1.5,0,2.3.8,2.3,2.5-2.8,14.1-5.5,21.1-8.2,21.1l-4.8-5.1c-1.5,0-5.3.3-11.5.8-.2,0-3.1-.3-8.7-.8-8.8,1.1-13.8,2.7-14.9,4.8-2.4,0-4.2-7.2-5.3-21.7h2.3q1.65,0,4.5,13.2h.6a76.17,76.17,0,0,0,14.3-1.4,25.82,25.82,0,0,0,3.9,1.1l14.6-1.7,3.7.6C767.7,922.15,769.3,917.65,770.6,908.65Zm-36.5-14,2.8,1.1a2.31,2.31,0,0,0,2-1.1,50.4,50.4,0,0,0,9.6,1.1H751a3,3,0,0,0,2.3-1.1c8.3,1.7,12.4,3.1,12.4,4.2q0,5.7-8.7,21.9h-2.5a6.34,6.34,0,0,0-5.1-2.8c-3,0-6.8,1-11.3,3.1l-4.5-1.7a14.94,14.94,0,0,0,1.7-5.3c-1.1-8.1-2.3-14-3.7-17.7Zm18.5-12.1c3.2,1.6,4.9,2.9,5.1,4.1,0,1.6-.7,2.4-2,2.4h-1.1a44,44,0,0,0-7.3.6l-12.1-1.2v-3.6l3.9-.3h8.2C750.8,884.55,752.6,883.85,752.6,882.55ZM738.3,901v.5c0,.3.4.7,1.1,1h5.1c.2,0,.6-.4,1.1-1.3v-.5c0-.2-.5-.5-1.4-1h-5.1C738.9,899.65,738.7,900.15,738.3,901Zm.6,8c.4,3.8.9,5.6,1.7,5.6,3-.7,4.5-1.3,4.5-1.7v-5.3H740c-.4,0-.8.5-1.1,1.4Zm11.5-9.3-.3.8v1.1q0,.6.3.6h.6l5.3-1.1,1.4,2.9c0,1.9-2.3,2.9-7,3.1v5.3h5c.8,0,2.2-3.5,4.2-10.4,0-1.5-3.1-2.3-9.5-2.3Z" transform="translate(0 0.05)"/><path d="M799.6,880.25h2.8c1.9.8,2.8,2.5,2.8,5.3-.4,5.4-.6,8.1-.6,7.9l.6.3,7-2.3a21.54,21.54,0,0,1,.8,6.2c-5.5.8-8.5,1.3-9,1.7v20.8c0,8.3-.7,12.4-2.1,12.4h-.5c-.9,0-1.8-.8-2.7-2.5q0-.9.3-13.2v-12.4c0-2.1-.7-3.1-2-3.1a32.34,32.34,0,0,1-5.3.8q-3.6-1.65-4.2-4.5c8.1-1.1,12.1-3.2,12.1-6.2Zm12.1,22.3h4.5v2.5c0,2.4-2.1,5.8-6.2,10.1h-2.3v-1.7C810.4,907.15,811.7,903.45,811.7,902.55Zm14.3-27.9c1.7,0,2.6,1.7,2.8,5.1q0,.3-.3,8.4a33.3,33.3,0,0,1,5.3-1.1c5.2.2,7.9,2.1,7.9,5.6-2.2,28.7-4.5,43-6.8,43a72.11,72.11,0,0,1-10.4-11v-2H827c2.1,1.5,3.8,2.3,5.3,2.3q2-11.55,3.9-30.9v-1l-9,1.4c.2,2.8-.2,7.6-1.1,14.3,0,5.8-4.1,13.1-12.4,21.9h-2.3v-2.5c6.8-8.8,10.1-19.6,10.1-32.3L818,897l-2.1-5.3c4.9-1.1,7.3-2.7,7.3-4.8l.3-10.4a3.21,3.21,0,0,1,2.5-1.8Zm16.9,29.5h1.4c3.8,0,7.1,1.9,10.1,5.6v2.3c-.9,0-1.4.4-1.4,1.1-6.7-2.4-10.1-4.6-10.1-6.5Z" transform="translate(0 0.05)"/><path d="M889.3,881.65v3.7c12.6,9.4,22.2,14.4,29,15.2l6.2,2.3-7.9,3.4a32,32,0,0,1-17.4-8.4c-7.3-6-11.3-9-11.8-9-4.5,6.4-11.8,13-21.9,20h-2.3v-1.7a75.57,75.57,0,0,0,21.9-27Q886,877.75,889.3,881.65Zm14.4,26.8c3.8,1.1,5.6,2.3,5.6,3.4V915q-3.6,0-8.4-.3c-9.4,0-14.1.9-14.1,2.8q0,1.35-4.8,9.3h.6c9.2-.4,13-2.5,11.5-6.5,9,3.8,13.9,7.2,14.6,10.4a23.64,23.64,0,0,0-1.1,5.9h-2.3c-3.6-4.1-6-6.6-7.3-7.3q-19.95,4.2-22.5,4.2c-2.1-.9-3.1-2.1-3.1-3.4v-1.7c2.4-1.1,5.8-5.1,10.1-12.1h.3a80.24,80.24,0,0,1-11,.8h-1.4c-1.3,0-2-.8-2-2.3v-1.6C887.1,910.05,898.8,908.45,903.7,908.45Zm-17.7-8.8h7.6c.9,0,2,.8,3.1,2.5-2.1,2.3-4,3.4-5.9,3.4h-3.7c-3.7,0-5.6-1.1-5.6-3.4.5-1.6,2-2.5,4.5-2.5Z" transform="translate(0 0.05)"/><path d="M646.7,1049.65c3,1.1,4.5,2.3,4.5,3.7v2a27.31,27.31,0,0,1-8.4,1.7h-.6c-.2,1.1.1,1.8.8,2,9.6-.4,16.4-.6,20.5-.6.8,0,2.4.8,5.1,2.4v3.5l-8.2,6.5h-2.8v-2.3l2.3-3.1v-1.4l-.3-.3c-11.1.2-16.6.7-16.6,1.4v11l-.5,5.9h-4l-1.6-5.6v-11h.8a103.83,103.83,0,0,0-11.2,1.4,23.76,23.76,0,0,0-3.7-.6c.4,4.3.6,7.6.6,9.8v2.5h-2.5c-1.1,0-2.3-1.6-3.7-4.8l.6-1.4c0-1.9-.2-5.4-.6-10.7l4.6-.3h2c8.6,0,12.8-.8,12.8-2.3s.1-2.3.3-2.3h-9.8c.2-3.6,1.3-5.3,3.4-5.3,10.5-.7,15.9-1.1,16.3-1.1Zm9,32.1c2.6,0,4.9,2.1,6.8,6.4-2.4,6.5-4.3,10.7-5.6,12.5,2.3,2.6,3.4,4.4,3.4,5.3.4,2.1-.6,2.9-2.8,2.5a28.48,28.48,0,0,0-8.7-1.1c-5.8,0-14.2.4-25,1.1l-1.1-2v-2.8c18.8-1.5,28.1-2.7,28.1-3.7,3-6.2,4.5-10.2,4.5-12.1H653c-3.9,0-11.3.8-22.2,2.3H626l-2.5-2.5c.8-1.8,1.8-2.7,3.1-2.7l5.9-.8C644.2,1082.55,652,1081.75,655.7,1081.75ZM627.6,1066c3.4,1.1,5.1,2.3,5.1,3.4v.6c0,1.7-.8,2.5-2.3,2.5H629c-1.1,0-2.3-1.2-3.7-3.7v-.6C625.4,1067.15,626.1,1066.35,627.6,1066Zm-2.2,7.6h3.7l4.8,1.7v3.7l-5.1,1.1c-.9,0-2.1-1-3.4-3.1Zm21.1,17.2h.6c3.6.2,5.3,1.2,5.3,3.1v1.4c-.4.9-2.1,1.5-5.1,1.7-8.4.9-14,1.4-16.6,1.4H629c-1.7,0-2.5-.8-2.5-2.3,0-2,6.6-3.8,20-5.3Zm3-18.6h.6c2.8,0,4.7,1.1,5.6,3.4v3.1a3.93,3.93,0,0,0-2.8,1.1c-4.1-1.5-6.2-3.4-6.2-5.6Zm-.8-7.8c5.1,1.5,7.6,3,7.6,4.5v2.5c-.8,0-1.1.3-1.1.8-5.1-1.1-7.6-2.3-7.6-3.7v-3.4c.7.1,1.1-.2,1.1-.7Z" transform="translate(0 0.05)"/><path d="M690.3,1060.65h2.8c.9,0,2.6,1.8,5.1,5.3l5.7-5.6c2,.8,3,1.7,3,2.8l-.3,1.7c-3.9,4.3-5.9,7.2-5.9,8.7.9,6.6,1.4,10.5,1.4,11.8v1.1c0,14.6-1.9,23.2-5.6,25.9a22.75,22.75,0,0,1-8.4-7.6,3.13,3.13,0,0,1,3.4-2.8c0,.9.9,1.9,2.8,2.8.4,0,.9-4.9,1.7-14.6v-.6h-.3c-5.8,6.2-9.9,9.3-12.4,9.3l-1.4-2.5c9.4-8.6,14.1-14.1,14.1-16.3-.2-1.1-.7-1.7-1.4-1.7-.4,0-2.8,2.2-7.3,6.5h-2.8v-2l9-11.3Zm49.5,18.6q4.5,0,4.5,4.5l-8.7,25.4c-6-.2-9.7-.3-11-.3a92.41,92.41,0,0,0-11.8,1.1c-3.7-1.7-5.6-4.2-5.6-7.6V1094c0-2.4-.7-6.8-2-13.2.6,0,.8-.1.8-.3a16.28,16.28,0,0,1,3.1.3c17.1-1.1,27.4-1.5,30.7-1.5Zm-15.7-27.6h2.3c2.3.8,3.4,2.6,3.4,5.6v4.5l5.1,1.7v4.5c-5.8,0-9.5,2.2-11,6.5,0,2.4-2.2,4.4-6.5,5.9q-4.8-.9-4.8-8.4c-2.1-.9-3.2-2.2-3.4-3.7,0-1.5,1.1-2.4,3.4-2.8v-2.3l-.8-7.6,2-1.1q3.15,0,4.5,9.3h4.5c.9-.2,1.4-2.4,1.4-6.8a7.07,7.07,0,0,0-1.1-2.5A5.58,5.58,0,0,0,724.1,1051.65Zm-10.4,34.9a4.65,4.65,0,0,0-2.3-.6h.6v3.7l1.1.6h3.7c1.9,0,2.8-1.6,2.8-4.8h.6A20.63,20.63,0,0,0,713.7,1086.55Zm-.6,9.8.3,7h1.5c2.4,0,3.7-.4,3.8-1.1v-5.9h-1.1a12.41,12.41,0,0,0-2.7.3,7.8,7.8,0,0,0-2.2-.3Zm5.1-24.7v4.5h-.8c1.3-.6,1.9-2,1.9-4.2v-1.2c0-.1-.1-.3-.2-.3H719c-.2,0-.5.4-.8,1.2Zm7.3,13.7h-1.2v2c0,.2.4.6,1.2,1.1l3.3-1.1c4,.9,6,2.1,6,3.4v2.5c-6.6,0-9.9,1.3-9.8,3.9l-.6,4.5.6.3h6c1-.2,3.2-5.7,6.7-16.6-.8,0-1.1-.3-1.1-.8a59.26,59.26,0,0,1-11.1.8Z" transform="translate(0 0.05)"/><path d="M767.7,1055.85h3.1a12,12,0,0,1,6.5,8.2l-6.8,12.9-1.4,2.5c6,2.8,9,4.8,9,5.9v2.3h-2l-5.6-.6c-.8,1.9-1.1,5.8-1.1,11.8v5.1l-.8,4.5h-5.1l.3-8.4v-14.3c-.4,0-2.2,1.9-5.3,5.6h-3.1v-2c7.9-11.4,12.3-18.5,13.2-21.1l-.6-.3-3.4.8c-1.9,0-2.8-.8-2.8-2.5,0-1.1,2.5-2.3,7.6-3.4l.3-.6v-.3l-2-3.4Zm21.6.3H792c1.8,0,3,2.5,3.5,7.6v8.4l5.9-.6,1.1,2v2.3c0,1.1-2.5,2.2-7.5,3.1q-.3,3.45-.3,9v4.2h16c2.8,0,4.6,1.2,5.3,3.7v2.5a6.71,6.71,0,0,0-2.8.6c-8.1-.4-14.9-.6-20.6-.6h-3.3c-3.2,0-8.3.2-15.2.6l-1.1-2v-2.5c10.5-1.1,15.8-1.5,15.8-1.1l.6-12.9-.3-.6-5.3.3-.8-2.3v-2.5c4.7-.7,7-1.4,7-2v-9.5Z" transform="translate(0 0.05)"/><g class="d"><path d="M95.27,757h.57l1.12.94Q91.34,773.46,90.21,774c-.87,0-1.5-1.06-1.87-3.19Q95.27,758.47,95.27,757Zm-5.62-4.31h1.69c1.75,1.12,2.62,1.94,2.62,2.43v1.13h-1.5c-.5,0-1.44-1-2.81-3Zm3.19-8H94c1.88,1.13,2.81,1.94,2.81,2.44v1.12h-.56a3.38,3.38,0,0,1-3.37-2.06Zm7.68-.24h1.32a24.29,24.29,0,0,1,4.12,3l4.13-.19.75,1.4V750q-5.82,0-6.19,4.31c2.41-.89,3.84-.58,4.31.94v3.56q-1.41,10.7-2.81,10.69h-.38a3.38,3.38,0,0,1-2.43-3.37v-.94c2,0,3-1.25,3-3.75v-3.94c0-.37-.63-.44-1.88-.19-1.25,2.51-3.12,5.75-5.62,9.75l-1.32,1.13H95.84v-.94q6-8.81,6.56-14.48v-1.35h-.94l-3.37.77v-1.15q0-.77,4.5-3.09v-.38l-2.07-2.44ZM120.21,750h1.5a1,1,0,0,1,1.13,1.13v.37q-1.7,3.57-3.94,8.63l1.31.75q6.75-.57,8.25-.57c1.13.5,1.69,1,1.69,1.5v1.69h-7.88c-.37,0-.75.31-1.12.94a11.9,11.9,0,0,0,.75,3.19q0,7.5-5.06,10.68-6.2-1.87-6.19-3.75v-1.12h.56a7.88,7.88,0,0,0,3.56,1.31h1.88q1.88-1.5,1.87-4.87v-4.5c0-.38-.37-.75-1.12-1.13q-5.07.38-5.25,1.13c-1.5-.63-2.25-1.19-2.25-1.69q0-1.31,6-2.06c.37-1.38,1.25-3.94,2.62-7.69a3.16,3.16,0,0,1-.37-.94h-.75l-2.44.38-.56-1.88Q116.83,750.78,120.21,750Zm-5.62-11.44h.93c1,0,1.69,1.76,2.07,5.25H118c.12,0,1.88-.12,5.25-.37l.75,1.31v1.13q-9.75.93-9.75,4.31a15.73,15.73,0,0,1-2.25,2.25H111v-.56q3.57-7.87,3.57-12.38Z" transform="translate(0 0.05)"/><path d="M149.65,749.66c1.25.62,1.87,1.25,1.87,1.87v.19l-3.75,8.62v1.32l2.82,4.12c0,.75-.32,1.13-.94,1.13h-.38c-1.75-1.63-2.75-2.44-3-2.44q-6.18,6.93-8.43,6.94h-.57v-1.69q2.63,0,7.13-7.31,0-1.32-5.63-4.69v-2.25h.94q1.5,0,5.25,3.75h.38q1.13,0,2.43-5.25c0-.63-.18-.94-.56-.94l-4.31.56-.19-1.12v-.75Q142.71,750.6,149.65,749.66Zm6-11.82,2.44.57a71.22,71.22,0,0,1,3.56,11.43h.75l6.37-1.5.75,1.69v.19c0,.75-2.43,1.44-7.31,2.06v.19q0,3.19,2.81,7.12.75,0,4.13-6.18h1.31L171,756q0,1.5-4.87,6.94v.37q4.68,8.07,6.94,8.25a15,15,0,0,0,1.68-4.68l.94,1.68.38,9.57L174,778q-3-2.07-10.5-12.94l-10.12,7.13h-.75v-.57q8.43-7.49,9.94-9.93-2.82-8.07-3.38-8.63c-3.5.38-5.75.56-6.75.56l-.19-1.12v-.56c4.25-.63,6.38-1.5,6.38-2.63s-1-4.56-3-10.69Zm7.87,3q5.82-.18,5.82,3.94l-.94.38q-4.87-2.25-4.88-3Z" transform="translate(0 0.05)"/><path d="M188.65,754q5.25,0,5.25,8.13,1.5,8.14,4.5,8.14,6.75,3,24.37,4.54c0,.58,1,.88,3,.88v1.4l-3.18.35h-6q-7.14,0-23.82-6.06l-6-1.32-.75.37a5.9,5.9,0,0,0-1.68-.37v-1.71l3.37-.94a6.21,6.21,0,0,0,3.38.94h2.06v-.75c-1.75-4.29-2.63-6.87-2.63-7.76v-3.22A2.66,2.66,0,0,1,187.9,755v-.7C188.4,754.32,188.65,754.2,188.65,754Zm3.94-9.75h1.68c.5,0,1.38,1,2.63,3v1.31H196q-.75,0-3.37-3.19Zm18.18-8.63h.94q.94,9.39,3.19,9.38v.94a4.27,4.27,0,0,0-1.69,3.18v1.5c.12.5.31.75.56.75H219c1.88.13,2.82.56,2.82,1.3v.75l-.38.93a33.35,33.35,0,0,0-3.75-.35c-3,.23-4.5.7-4.5,1.39v9.3q0,5.25-1.69,5.25c-.5,0-.93-.63-1.31-1.88l.38-1.87c-.26-7.32-.94-11-2.07-11h-.93c-.5.46-1.57,3.37-3.19,8.72a15.44,15.44,0,0,1-2.25,2.06h-.75v-1.5q2.63-4.68,2.62-7.31a.66.66,0,0,0-.75-.75h-.37l-2.63.18c-1.5-.12-2.25-.55-2.25-1.3v-.37q0-.93,6.57-1.86v-.56c-.26-3.46-.69-5.2-1.32-5.2q.75-1.11,1.32-5a18,18,0,0,1-.57-3.91H205q1.5,0,2.44,6.51l.94.18c1.12-.62,1.75-1.11,1.87-1.48v-2.05l-.56-5.57Zm-3.56,14.63v1.69c.12.37.31.56.56.56h1.5c.75-.12,1.13-1.19,1.13-3.19v-.94c0-.25-.38-.56-1.13-.93A2.79,2.79,0,0,0,207.21,750.22Z" transform="translate(0 0.05)"/><path d="M259.71,740.66h2.81c1.75.5,2.69,1.19,2.82,2.06v1.12h-7.13q-5.05,0-5.06,1.5l.37,4.13h3.19c1.5,0,2.37-.44,2.63-1.31l-.38-2.44h1.69c.5,2,1.12,3.06,1.87,3.19q4.5-.2,4.5.75,0,1.13-4.68,2.25v5.25q-7.69,2.63-10.32,2.62c-.75-.25-1.12-.94-1.12-2.06l-.75-4.5h-4.5v-1.69q5.25-.56,5.25-1.31v-2.81c0-1.5-.56-2.38-1.69-2.63a27.22,27.22,0,0,1-3.94.38q-1.87,19.68-6,25.68a17.74,17.74,0,0,1-6,5.25h-.56v-.93q6.75-7.32,8.44-18.94.38-2.62.56-5.81l.38-5.07.37-2.25h1.31q14.45-1.68,15-2.06A1.83,1.83,0,0,1,259.71,740.66Zm2.63,18.56c1.87.37,2.81.87,2.81,1.5q-4.87,7.88-6.94,9.56,3.38,3.38,13.31,5.44l.57,1.12v.57c-.63,0-.94.18-.94.56q-10.69-.75-15.19-4.88H255a23,23,0,0,1-12.75,3.75Q253.34,772,253,770.09q-5.06-6.18-5.06-7.31Q249.21,762.22,262.34,759.22Zm-12-21.19c2.62,0,4.06.47,4.31,1.4v1.23h-2.06c-.63,0-1.38-.65-2.25-1.93Zm1.5,26.44a13.79,13.79,0,0,0,3.93,4.12q3.75-3.93,3.75-6.18v-.19h-.75Q251.84,763.35,251.84,764.47Zm1.68-11.81v3c0,.5.38.75,1.13.75q4.3-.95,4.31-2.25v-2.25h-1.5A21.22,21.22,0,0,0,253.52,752.66Z" transform="translate(0 0.05)"/><path d="M288.77,742h1.29c1.64,1,2.34,2.68,2.09,5.06v4.5l.19,4.69q-.36,9-.53,14.62c-.12,3.75-.17,5.94-.17,6.56h-1.58a1.15,1.15,0,0,1-1.29-1.31l.57-5.62V758.31h-.19q-4.87,9.93-8.63,9.94v-1.32q1.5-1.87,6.38-9.37V757L282,753.06v-1.31a37.6,37.6,0,0,1,5.63,2.06q1.31,2.43,2.06-1.69V746.5Zm13.69-3.41H304c.12,1.49.44,2.23.94,2.23s2.44-.43,6.19-1.3l.37,1.12v1.11q-6.37,10.39-11.44,14.66c0,.25.38.37,1.13.37q6.75,0,7.87-.62v-2.94l.19-3h2.25l-.19,5.81H318a2.89,2.89,0,0,1,3.19,2.28l-1.5.35h-7.5c-.37,0-.5.25-.37.75l.18,4.68-.18,7.88q0,2.25.37,6.19a3.29,3.29,0,0,0-.37,1.5h-1.32q-3.18-2.07-7.68-5.07v-.93c0-.13.31-.19.93-.19.25,0,1.75.37,4.5,1.12h.38l.19-1.68a27.44,27.44,0,0,0,.37-4v-8.72c0-.63-.44-1-1.31-1.13a82.07,82.07,0,0,0-13.69,1.88v-.75q7.5-7.7,8.25-9.75,0-1.32-4.31-3.19Q302.46,742.15,302.46,738.59ZM301.15,763c2.75.87,4.12,1.75,4.12,2.62v1.13c-.5,0-.75.31-.75.94-2.87-1.75-4.94-2.63-6.18-2.63V763Zm.37-16.88a13.51,13.51,0,0,0,2.07,1.69q3.56-2.06,3.56-4.5l-.38-.37Q304,742.91,301.52,746.09Z" transform="translate(0 0.05)"/><path d="M346,741.68v2.44q12.75,9.55,19.5,10.31l3.38,1.13-4.32,1.87A21.69,21.69,0,0,1,353.09,752q-7.32-6.18-8.25-6.18-4.5,6.56-14.63,13.31h-.94v-.56a53.45,53.45,0,0,0,14.63-18C344.15,739.93,344.84,740.31,346,741.68Zm9.94,17.91c2.25.63,3.37,1.25,3.37,1.88v1.69c-1.37,0-3.12-.07-5.25-.19q-9.75,0-9.75,2.25,0,.75-3.37,6.37l.75.19q9.93-.37,8.44-4.12,8.06,3.38,8.81,6.37a19.66,19.66,0,0,0-.75,3.56h-.94a42.41,42.41,0,0,0-4.87-4.87q-13.5,2.81-15,2.81c-1.25-.5-1.88-1.12-1.88-1.87v-.94q2.25-1.12,6.94-8.63H342a64.51,64.51,0,0,1-7.31.57h-.94c-.62,0-.93-.38-.93-1.13v-.75Q351,759.6,355.9,759.59ZM344.09,754h5.06c.5,0,1,.41,1.5,1.24a4.81,4.81,0,0,1-3.38,1.76h-2.43c-2.25,0-3.38-.59-3.38-1.76C341.71,754.38,342.59,754,344.09,754Z" transform="translate(0 0.05)"/><path d="M401.27,739h.94q1.69,0,2.44,5.81h1.5c1.37,0,3-.06,4.87-.19l.57,1.32v.75c0,.37-1.57,1.94-4.69,4.68H406v-.93L408,748v-.19a.66.66,0,0,0-.75-.75h-2.43q-1.69,0-1.69,5.63v3.93a20,20,0,0,0,4.12-.93c1.13.5,1.69,1.06,1.69,1.68l-4.69,10.5q1.88,2.25,12,6.57v1.68q-7.12-.37-13.5-6h-.56a63.5,63.5,0,0,1-12,4.88v-.75c6-3.38,9.12-5.37,9.38-6v-.38q-2.44-3.18-4.5-3.18h-.38q0,2.05-7.31,9.18h-.56v-.56q3.75-5.06,3.75-6.56v-.94A26.5,26.5,0,0,0,385.4,762a2,2,0,0,0-.81,1.31v12.94a5.45,5.45,0,0,1-2.63-.94q.38-7.87.38-11.62v-4.5c0-.25-.26-.38-.75-.38H381l-4.87,4.32h-.56v-.57q10.13-11.62,10.12-14.43h-2.06c-2.13,0-3.31-.44-3.56-1.32v-.75q5.63-.55,5.62-1.68V744L384.06,742v-1.13h1.84q.38,0,4.5,4.88v.56l-6.13,9.19v1.31l1.44,1.69q.18,0,5.06-4.5h1.32a1,1,0,0,1,.93,1.12v.57a66.43,66.43,0,0,0-6.75,3.93c0,.26,1.75,1.44,5.25,3.57h.57q2.25-1.87,2.81-13.88v-1.87c-.63-.38,1.5-1.13,6.37-2.25l.38-1.88Zm-3.56,21.75h-1.87c0,1.25,1.62,2.88,4.87,4.87h.75c.87,0,1.94-1.93,3.19-5.81a.33.33,0,0,1-.38-.37Q404.09,759.41,397.71,760.72ZM396,757.91l.94.56H399q1.32,0,2.25-8.81-.56-1.5-.93-1.5h-.57Q396,748.16,396,757.91Z" transform="translate(0 0.05)"/><path d="M431.65,742.72q2.25.56,2.25,1.5v.56a62.41,62.41,0,0,1-4.69,6.19,21.12,21.12,0,0,1,.75,4.87q.38,23.25-1.87,21.19c-.5,0-1-.56-1.5-1.69a26.38,26.38,0,0,0,.56-5.06L427,754v-1.88a8.91,8.91,0,0,0-1.87,1.13h-1.88Q430.71,745.17,431.65,742.72Zm21-2.63a9,9,0,0,1,2.44,1.69q-2.07,5.63-3.19,9.94a10.71,10.71,0,0,0-4.31,1.31v1.5l.75,1.31,6.56-.93,4.87.56v.94l-.93,1.5H453.4l-2.06.18a13,13,0,0,0-3.75.75q8.06,8.45,15.56,10.32l.75,1.5v.93h-.56q-3.76,1.51-14.63-8.06a1.63,1.63,0,0,0-1.12-.56v13.87c-.63,1.38-1.19,2.07-1.69,2.07-1-1-1.5-2.63-1.5-4.88.12-3.12.19-6.87.19-11.25v-.56q-9.57,10.31-11.25,10.31v-.37q7.13-9,9.56-12.19v-.56h-.19c-.37,0-2.69.25-6.94.75a2.16,2.16,0,0,0-1.5-.75V759q0-.75,9.38-2.44l.94-1.31v-1.5q0-.75-.57-.75h-.75L442,754h-.37c-.75,0-1.38-.69-1.88-2.06v-2.44a21.75,21.75,0,0,0-.94-6.19Q438.77,741,452.65,740.09Zm-7.31,3-3.75.58v.39c.49,4.11,1.06,6.16,1.68,6.16,5.38-.39,7.81-1.67,7.32-3.85l.37-3.28-.56-.37h-1.31C447.09,743,445.83,743.09,445.34,743.09Z" transform="translate(0 0.05)"/><path d="M488.16,736.16c.51,0,1.19.93,2.07,2.81a20.85,20.85,0,0,1-1.69,5.44q.57,0,.57.18c5.3-.49,8.58-.87,9.84-1.12l.95,1.31v.75a.84.84,0,0,1-.95.94l-3.41.37q-8.34-.18-10.05,3.75,0,.95-2.84,6.75c.12,2.88.19,5,.19,6.38v11.44c0,1.62-.5,2.5-1.5,2.62h-.57l-.93-.37.75-16.32-.19-.56-1.13,1.31q-3.56,3.38-4.68,3.38v-.75q8.61-11.43,8.62-15v-.94h-1.87c-.75,0-1.13-.12-1.13-.37l-.19-2.25q7.2,1.13,7-6.75v-2.07A1,1,0,0,1,488.16,736.16Zm11.17,15.18c.63.13,1.07.75,1.32,1.88q-4.72,5.63-5.48,5.81,1.69,3.19,4.16,3.19l6.94-.38v-.37c2.13.63,3.31,1.31,3.57,2.06v.56l-.75.94-2.07-.56-4.87.19c-1.5.25-2.25.44-2.25.56v7.69c-.81,3.87-1.93,5.81-3.38,5.81q-6.56-1.87-7.68-3.38V775a3.4,3.4,0,0,0,1.68-.56c.13,0,1.69.18,4.69.56a3.25,3.25,0,0,0,2.06-3.19V768c0-1.87-.65-2.81-2-2.81a96.21,96.21,0,0,1-9.71,1.31,3,3,0,0,0-1.31-.37v-1.88q10.13-.75,10.49-1.87V762l-1.87-1.69q0-1.5,2.23-4.5v-.93q0-.57-.54-.57l-3.56.57a3,3,0,0,0-1.32-.38V753A49.67,49.67,0,0,1,499.33,751.34Z" transform="translate(0 0.05)"/><path d="M530.84,768.78c1.87-.25,2.74.82,2.62,3.19s-2.38,4.75-6.37,7.12h-.75l1.68-2.25c.5-.75,1.13-1.62,1.88-2.62-1.13-.38-1.69-1.31-1.69-2.81C528.46,769.66,529.34,768.78,530.84,768.78Z" transform="translate(0 0.05)"/><path d="M579,741.59h.57c.62,0,1.18.63,1.68,1.88-.62,4.87-.93,7.5-.93,7.87v.38H582q4.69,0,5.44,2.06a37.32,37.32,0,0,1-4.5,13.5l-.94.94q6.75,5.25,6.75,6v1.12q-9-3.93-9.56-3.93-7.87,4.5-9,4.5l-.75-1.32V774c2.12,0,4.19-1.31,6.19-3.94V769l-2.25-2.63V766c0-.87.87-3.69,2.62-8.44v-.94l-5.62.57H567v-1.88q10.32-1.12,10.32-4.31Q579,742.72,579,741.59Zm-2.06,24c0,.38.44.88,1.31,1.5h.57q2.05,0,5.06-11.06l-.75-.37-3.75.18A61.49,61.49,0,0,0,577,765.59Zm27.38-15.37c1.87.25,2.81.81,2.81,1.69v.37q-1.87,9.57-1.88,10.31c.38,0,1,.69,1.88,2.07,0,.62-.69,1.19-2.06,1.68l-1.88-.37q-8.43,0-9.94,2.81a3.9,3.9,0,0,1-2.43-2.62l.37-4.5a32.08,32.08,0,0,0-1.87-8.82c.12-.75.43-1.12.93-1.12h2.82A81.32,81.32,0,0,0,604.34,750.22Zm-11.07,5.25q.57,7.88,2.25,7.87,7.5,0,7.69-5.81a21.08,21.08,0,0,0,.38-3.75c-.38-.62-.63-.94-.75-.94Q593.27,754,593.27,755.47Z" transform="translate(0 0.05)"/><path d="M616.34,753.78h.56c3.75-.37,5.56,1.25,5.44,4.88q0,10.3,8.43,11.81,7.32,2.43,25.5,3.75c0,.25.31.37.94.37v1.88l-3.19.37h-5.25q-7.31,0-25.68-5.81-9-.93-9-2.25V768l2.43-.19h4.88c.37,0,.5-.49.37-1.5A11.23,11.23,0,0,1,619.9,757c-2.38-.63-3.56-1.38-3.56-2.25Zm3.18-8.81h1.32a3.73,3.73,0,0,1,2.43,3.56l-1.12,1.69q-1.12,0-2.63-4.5Zm24.57-9.19c1.5.63,2.31,1.25,2.43,1.88v.93q-1.31,11.25-3.56,11.25c-2.38,0-3.56.38-3.56,1.13v.37c0,.38.37.57,1.12.57a59.46,59.46,0,0,1,8.63-.94h1.31c.62,0,1.31.63,2.06,1.87q0,3.76-4.87,17.07c-2.38-.88-3.75-1.94-4.13-3.19v-.56q2.25.38,3.75-3.75-1.87-.2-4.5-3.19Q632.46,765,631.71,765v.75l.38,3h-.94q-2.25,0-3.75-11.62c-.38,0-.75-1.19-1.13-3.57l.94-.93a6.63,6.63,0,0,0,3.56.93c3.75-.37,5.63-1,5.63-1.87v-.56a23.48,23.48,0,0,0-3.75.37c-1.38-.5-2.06-1-2.06-1.5v-.37a32.42,32.42,0,0,0-1.13-9.75Q629.46,737.29,644.09,735.78ZM630,757.53a30.32,30.32,0,0,1,.94,4.13h.94c3.12-1.38,4.62-3.31,4.5-5.82l-.56-.56Q630,756.41,630,757.53Zm2.82-17.25v2.63a11.33,11.33,0,0,0,3.56-.94v-2.25h-3C633,739.84,632.84,740,632.84,740.28Zm.37,5.25v1.93c.12.46.38.7.75.7h1.5c.62,0,.94-.24.94-.7v-1.93Zm5.81-5.62v.37c0,.38.38.82,1.13,1.31h2.06a.49.49,0,0,0,.56-.56v-1.12a.5.5,0,0,0-.56-.57h-2.62Q639,739.54,639,739.91Zm0,15.37.19,3,2.44-1.31.37-1.69,1.5.38c.38,0,1.69,1.43,3.94,4.31h.19a22.28,22.28,0,0,0,1.69-5.25,2.5,2.5,0,0,0-1.5-.56C642,753.78,639,754.16,639,755.28Zm.38-8.81v.37h1.87q.94,0,1.5-3.18l-.56-.38h-.56C640.15,744.16,639.4,745.22,639.4,746.47Z" transform="translate(0 0.05)"/><path d="M678.4,737.28h1.87l2.63,5.44a13.43,13.43,0,0,0,3.75-1.13c1.25.5,1.87,1,1.87,1.51q0,1.71-6.56,2.46v4.93c0,.63.21,1,.64,1H684a42.09,42.09,0,0,1,7.5-1.33h5.25c2.63.64,3.94,1.39,3.94,2.28V753a.83.83,0,0,1-.94.94q-1.31,0-8.81-.75a66.38,66.38,0,0,0-7.5,1.51v5.12q9.75.36,9.75,2.65v1.48a61,61,0,0,0-8.81-1.13H684a3.38,3.38,0,0,1-1.12-.19v16.13a5.29,5.29,0,0,0-.19,1.31l-2.25-.56-1.12-.38a179.08,179.08,0,0,0,.37-22.87.66.66,0,0,0-.75-.75l-1.5.56q.18.57-10.87,2.06l-1.13-1.5v-.93q13.13-1.87,13.69-4.13c0-1.12.06-4.25.19-9.37-.26-2.13-.63-3.19-1.13-3.19A12,12,0,0,0,678.4,737.28Z" transform="translate(0 0.05)"/><path d="M720.21,739.34h1.5a16.55,16.55,0,0,1,1.13,6.37c2.12.13,3.43.2,3.93.2-.12,1.85-1.5,3.08-4.12,3.7v.55c0,2.22-.07,5.31-.19,9.26l.19.92c1.87-.62,2.81-1.12,2.81-1.5v-3.56l.41-2.25h1.81l.41,2.25v1.5q0,6.57-6.19,7.13c0,1.87.06,3.5.19,4.87v.56a.84.84,0,0,0,.88.75l2.72-2.43h.58v1.12A43.39,43.39,0,0,1,720,777h-.38c-.51,0-1-.5-1.51-1.5q.38-5.81.37-6.75v-4.31a61.42,61.42,0,0,0-6.37,1.69v-1.32A25.62,25.62,0,0,0,714.4,754c0-.12-.25-.19-.75-.19a3,3,0,0,0,.75-1.87h1.31c.62,0,1.06,1.12,1.31,3.37q-.37,3.94-.37,6l.75.56H718q1.5-.37,1.5-3.93V750c0-.62-1.31-1.06-3.94-1.31v-1.23c0-.7,1.44-1.16,4.32-1.4v-.38Zm16.69,16.13h.94c1-.87,1.62.81,1.87,5.06q-.56,12-9.32,14.63a6.26,6.26,0,0,1-3.55,1.12h-.37v-.94q9.67-5.43,9.87-12.37Zm6.75-14.25H744c.5,0,1.13.63,1.88,1.87l-5.25.57a31.91,31.91,0,0,0-2.25,5.25q6-1.5,5.64.37l.55.94.18,11.62v5.07h-1.23c-.47,0-1-.57-1.58-1.69V752.09a.5.5,0,0,0-.56-.56c-5.13,0-7.69.82-7.69,2.44l-.19,11.81c0,.63-.37.94-1.12.94h-.94c-.75,0-1.12-.31-1.12-.94q0-.56.56-14.44,0-1.5,4.5-2.62l1.5-3.75c-2.88.12-4.82.19-5.81.19l-.38-.94-.1-1.13Q741.4,741.23,743.65,741.22Zm-3.38,28.87H741c1.38,0,4,1.25,7.88,3.75l.37,2.07a.82.82,0,0,1-.93.93,20.48,20.48,0,0,1-8.07-5.81Z" transform="translate(0 0.05)"/><path d="M778,739.16c1.75.5,2.63,1.12,2.63,1.87v1.13q-1.89,7.3-9.67,7.68c-.51,0-1,1.32-1.53,3.94v1.5h1.53q2.87,0,2.87-4.5h1.15c.64,0,1,.94,1,2.81.12,0,2-.25,5.62-.75,1.63,0,2.44.69,2.44,2.07q-1.87,9-5.06,13.12H778a2.56,2.56,0,0,0-1.87-1.12v-1.13l3.18-1.69A40.49,40.49,0,0,0,781,756l-.75-.37H778.9c-1.63,0-2.63.44-3,1.31v3.37c0,1.25-.07,2.82-.19,4.69l.19.94q0,.75-.75,10.87h-.75a1,1,0,0,1-1.13-1.12q0-13.87.38-18l-.75-.56H772c-1.25.62-1.87,2.5-1.87,5.62l.56,4.13-1.17.37c-1.35-1.37-2-2.56-2-3.56v-3h-.37q-6.75,9.38-7.69,9.37h-.75q8.05-13.68,8.06-22.12v-7.5c.13-.38.51-.56,1.15-.56a4.38,4.38,0,0,0,1.34.37A51.7,51.7,0,0,0,778,739.16Zm-7.87,4.44v2.9q.36.72.75.72h.37a6.67,6.67,0,0,0,5.63-3.26v-1.8h-1.32Q770.09,742.34,770.09,743.6Zm16.68,5.68h1.69a31.1,31.1,0,0,1,.56,5.81,34.46,34.46,0,0,0,.38,5.25c-.5,1.25-1.13,1.88-1.88,1.88l-1.31-2.44v-9.19A3.14,3.14,0,0,0,786.77,749.28Zm7.88-9h.75c.5,0,1,.69,1.5,2.06l.75,23.63q.38,8.43-.75,10.5h-.38q-3.37,0-7.87-5.44c.25,0,.37-.19.37-.56q3,1.88,4.13,1.87h.75c.62,0,.94-1.56.94-4.68Z" transform="translate(0 0.05)"/><path d="M822.59,741.22a5.21,5.21,0,0,1,3.18,2.62,15,15,0,0,0-2.81,6v.57H825l4.32-.75c-.26-2.25-.38-3.82-.38-4.69a17.2,17.2,0,0,1,8.81-2.81,8.6,8.6,0,0,0,3.19.93V745h-3.75q-6,0-6,1.31c.38,3.25.69,4.88.94,4.88l1.31.18q3.75,0,10.13-2.43c2.12.75,3.18,1.37,3.18,1.87q0,1.5-14.81,3.38-1.68,14.05-6.75,19.12a5.81,5.81,0,0,0-1.31-.19v-.75q1.88-3.93,1.87-5.43-1.87,0-4.68-3.38a6.82,6.82,0,0,0-.38,2.25l.19,5.25-.54,3.38h-1.05q-2.53,0-4.41-2.82v-.75h2.25c.62,0,.94-.25.94-.75l-.38-9.75c0-.37-.37-.56-1.12-.56-2.13.13-3.57.19-4.32.19H811V759q0-1.12,6.75-2.62v-.94l-.37-1.5q-5.62.56-11.25,1.69l-.38-1.32q0-1.12,8.44-2.25.75,0-.38-6.37c-1.12-.38-1.68-.87-1.68-1.5v-1.13Q822.4,742,822.59,741.22Zm-12.94,21.56h2.06l.19,1.88a8.65,8.65,0,0,1-2.44,5.62l-2.06.94v-.56Q809.65,764.29,809.65,762.78Zm7.72-25.12a6.79,6.79,0,0,1,2.82,2.43v1.13a5.39,5.39,0,0,1-4.32-2.44C815.87,738,816.37,737.66,817.37,737.66Zm0,13.31.93.37q1.69.39,3-6.56l-1.12.19q-4.12,0-4.13,2.25Zm3.37,3.37.19.38c0,.87,1.56,1.44,4.69,1.69V757q0,1.31-4.32,2.25l-.37.75v.56l4.5,2.63,1.5.56Q829,763,829,754.16l-1.34-.75H823.2C821.54,753.53,820.71,753.85,820.71,754.34ZM836.65,753l2.62-1.12.38,20.81q-.2,7.31-2,7.31h-.81Q836.84,779.09,836.65,753Z" transform="translate(0 0.05)"/><path d="M871.34,739c.87,0,1.74.75,2.62,2.25q-1.68,14.06-4.69,14.06-8.06,0-8.06,5.44c-.25,0-.37.5-.37,1.5q0,.75.93.75,2.63,0,5.63-5.63a.5.5,0,0,1,.56-.56h1.69q2.63,0,6,4.13V762a25.16,25.16,0,0,0-6-1.31q-1.87,1.31-10.5,7.87H859c-.75,0-1.31-.49-1.69-1.5a183.32,183.32,0,0,0,1.5-21.75,36.15,36.15,0,0,0-.56-3.75Zm-9.94,4.12v3q.18.57.57.57,9,0,9-3v-.75c0-.5-.57-.82-1.72-.94Q862,743.1,861.4,743.09Zm0,7.32v3.18c0,.38.44.57,1.34.57,4.85-.88,7.28-2.56,7.28-5.07,0-.37-.25-.56-.76-.56h-.39Q861.4,749.28,861.4,750.41ZM888,740.66a3.28,3.28,0,0,1,3.19,1.87q-.94,4.32-2.44,18.94c-.5,0-.81,1.06-.93,3.19h-1.69a11.15,11.15,0,0,1-4.88-4.13V760a35.65,35.65,0,0,0,3.57.75h.56q.93,0,2.44-16.88h-.19A47.91,47.91,0,0,0,880,745q.38,18.38.38,21-.58,13.5-3,13.5c0-2.38-.26-3.56-.75-3.56a2.86,2.86,0,0,0,.75-1.5V763.16c0-.38,0-1,.09-2s.09-1.78.09-2.53q-.18-8.62-.75-14.82c0-1.24,2.38-2.12,7.13-2.62C883.9,741.1,885.27,740.91,888,740.66Z" transform="translate(0 0.05)"/><path d="M927.59,742.16l3.06-.38,7.44-.37c.62,0,1.06.56,1.31,1.68v.57l-.38,1.12h-7.66c.23,3.25.35,5,.35,5.25v22.5c0,3.87-.63,5.81-1.87,5.81a43.18,43.18,0,0,1-10.13-6.18v-.57h1.34a39.68,39.68,0,0,0,7.28,1.5h.38l.18-22.31q.17-5.81-1.12-5.81h-.93l-16.32,2.44c-4.12-.38-6.18-1-6.18-1.88s.49-1.12,1.12-1.12h3.19A104.28,104.28,0,0,0,927.59,742.16ZM921,750.78c1.63.5,2.44,1.19,2.44,2.06q-1.32,10.51-7.87,10.5c-2,0-3,.75-3,2.25h-1.5q-1.32,0-1.88-11.62c-.13,0-.19-.25-.19-.75Q911.65,751.53,921,750.78ZM912.79,754c-.63.12-.95.37-.95.75a45.43,45.43,0,0,0,.57,6H914q6.13,0,6.14-6.75l-.77-.38C916.5,753.85,914.33,754,912.79,754Z" transform="translate(0 0.05)"/></g><path d="M193,1051q3.48,0,3.49,8.72v6.75c-.38,0,.09-.09,1.4-.28l3.1-.84a4.82,4.82,0,0,0,3.09,1.12v2.25c0,1.32-2.25,2.72-6.75,4.22v.28q.27,6.75-1.12,32.91-8.44-.84-16.32-10.41l3.1-2q4.49,3.66,7.59,3.66H190q1.1-10.68,1.1-12.66h.26a87.76,87.76,0,0,1-10.08,7.32l-3.94-.85v-2.53q13.5-8.71,13.77-10.12v-2.53l-.27-2.25h-1.69l-5.34.56-1.12-2v-2.53c5.62-.75,8.43-1.87,8.43-3.38q0-2-.56-14.9Zm20.36-2h2.25c2.25.94,3.38,3.37,3.38,7.31v4.22c0-.19,1.31-.57,3.93-1.13L226,1062v2.82l-7,2.25v5.06h-.57l5.07-.56q3.93,3.09,3.93,4.78v.56l-6.75,11.53-.84,1.69q3.38,4.78,20.81,11.53v2.81l-4.22.85h-.84q-9.57,0-20.81-10.41h.28q-3.66,5.34-14.63,10.41l-1.68-2.25v-2.25q4.22,0,12.65-10.13l-6.47-9v-1.41c.57-2.62,3.28-4.59,8.16-5.9l.28-3.38v-1.68l-1.12-.57-3.66-.28a4.57,4.57,0,0,0-2.81-.84v-2.81l7.59-2.82Zm-3.09,31.5v.28a54.55,54.55,0,0,1,5.9,5.62c-.37,0,.66-2.43,3.1-7.31V1078Q212,1080.58,210.29,1080.58Z" transform="translate(0 0.05)"/><path d="M274.13,1049.08h2.81q3.94,2.25,3.94,8.15v9.56h.28a45.87,45.87,0,0,0,8.72-1.4c3.38,1.31,5.06,2.53,5.06,3.65v2.54q-14.06,0-14.06,3.93,12.66,12.95,20.53,16.32a73.83,73.83,0,0,0,12.94,5.34l-5.62,3.37a33.4,33.4,0,0,0-5.07.85q-9.56-3.95-21.93-16.88l-.85-1.12v27.84h-3.09c-1.32-.56-2.53-2.06-3.66-4.5a43.85,43.85,0,0,0,.56-6.47l.57-10.68V1084q-.86,1.41-12.1,11.53l-6.18,4.78h-2v-2.53q15.47-17.14,15.47-20.81l.84-1.69a1.11,1.11,0,0,1-.84,1.13l-4.79.84-5.9-1.12v-3.66q14.9-1.7,14.9-7a56.39,56.39,0,0,0,0-8.16V1055Zm11,4.5h2.53q8.44.84,8.44,4.5c0,1.68-.75,2.53-2.25,2.53h-1.41c-2.63,0-5.06-1.5-7.31-4.5Z" transform="translate(0 0.05)"/><path d="M346.41,1046.26h2.66c2.16.38,3.25,2.63,3.25,6.75v7.6a1.11,1.11,0,0,0,.56,1.12l9.85-2.53,1.68,3.38v3.09h-4.78c-4.88.94-7.31,1.59-7.31,2l-.28,6.47,2.25-.28h.56a16.52,16.52,0,0,0,4.22-.85q4.21,1.69,4.22,3.66a72,72,0,0,1-9.28,13.22v-.28q5.61,5.89,20.53,11.53,6.75,1.68,6.75,5.06a7.81,7.81,0,0,1-3.94,1.69q-9.57.27-27.39-13.5h-.59q-13.94,11.52-22.93,11.53c-2.62-2.63-2.44-3.94.57-3.94h.28q6.75-2.54,16.87-11-3.37-2.25-10.12-11c0-1.5,3.75-3,11.25-4.5a20.7,20.7,0,0,0,1.12-7l-.56-.28c-3.94.38-6.38.56-7.31.56-2.63-.74-3.94-2.06-3.94-3.93q8.72-2.53,11.81-2.54Zm-3.93,34.88v.56c.18.75,2,2.35,5.34,4.78h1.12q5.07-3.37,5.07-6.75A84.73,84.73,0,0,0,342.48,1081.14Z" transform="translate(0 0.05)"/><path d="M408.6,1049.92h4.16l1.15,4.5-.28,5.62q0,2,5.06,4.5v2.54q-5.06,1.41-5.06,2l-.28,3.66,11.09,2.81q-11.94,0-11.37,25.88c-.94,2.62-2.07,3.94-3.38,3.94h-.84q-10.12-6.75-10.12-11a.75.75,0,0,0,.84-.85q2.25,0,6.75,2.25c.75.38.93.57.56.57q.28-7.61.28-12.38v-.84q.63,0-7.87,5.62-4.5-1.12-4.5-3.65,13.21-7,13.22-12.66v-2c0-.18-.19-.28-.55-.28h-.54l-7.35.56v-4.5c5.62-.75,8.44-1.5,8.44-2.25l.3-9.56Zm27.4-1.69-.27,5.63v2.53c0,.38,2.29,1,6.87,2l-.28,3.65c-3.94.94-6.19,1.51-6.75,1.69v3.66q8.43,0,11.81-1.13c3.38,1.13,5.06,2.25,5.06,3.38v2.53c-.94,0-1.4.38-1.4,1.12l-2.81-1.12L442,1073a4.84,4.84,0,0,0-1.41.28v.57c0,.18.66.65,2,1.4h2.81c-.19,0-.28-.56-.28-1.69,3,1.69,4.87,3.19,5.63,4.5v1.41c-5.82.94-8.72,1.78-8.72,2.53v1.41q1.11,3.09.28,12.09-.54,16-3.75,16-10.32-5.34-12.28-7.87v-3.1a87.2,87.2,0,0,0,9.56,2l.84-1.4v-11q0-8.16-.84-8.16h-.56l-13.5,1.69-.85-2.53q0-2.25,15.19-5.06v-1.41l-.84-1.13-15.47,2.54-1.69-2.25q2.53-3.37,11.25-5.07v-4.22c0-.18-1.88-.56-5.62-1.12v-1.69c0-1.5,2-2.71,5.9-3.65v-3.66l.57-9.28Zm-12.81,37.13q12.09,3.38,12.1,5.62v2l-1.69,2.25q-11.81-3.93-12.94-6.19C420.66,1088.64,421.51,1087.42,423.19,1085.36Z" transform="translate(0 0.05)"/></svg>