<svg xmlns="http://www.w3.org/2000/svg" viewBox="0 0 1182 1182"><defs><style>.a{fill:#fff;}</style></defs><title>mid</title><path d="M1183,1183H1V1H1183ZM17.23,1169.66H1166.61V20.26H17.23Z" transform="translate(-1 -1)"/><path class="a" d="M17.23,1169.66V20.26H1166.61v1149.4Zm1106.42-31.89V71.39H57.26V1137.77Z" transform="translate(-1 -1)"/><path d="M1123.65,1137.77H57.26V71.39H1123.65ZM1109.79,85.36H69.41V1125.73H1109.79Z" transform="translate(-1 -1)"/><path class="a" d="M1109.79,85.36V1125.73H69.41V85.36ZM821.18,620.68C968,619.65,1079,503.35,1083,367.36c4.44-149.71-113.86-266.3-253.75-270.42-145.63-4.28-269.59,111-270,261.37C559,503.69,675.82,619.82,821.18,620.68Z" transform="translate(-1 -1)"/><path d="M821.18,620.68c-145.36-.86-262.22-117-261.87-262.37.36-150.33,124.32-265.65,270-261.37,139.89,4.12,258.19,120.71,253.75,270.42C1079,503.35,968,619.65,821.18,620.68Zm-.24-6.55c140.22,1.1,258.93-114.93,256.11-261.15-2.65-137.42-117-253-261.55-250-136.07,2.76-253.3,114.92-250.07,261.48C568.56,506.65,685.55,614.82,820.94,614.13Z" transform="translate(-1 -1)"/><path class="a" d="M820.94,614.13c-135.39.69-252.38-107.48-255.51-249.72-3.23-146.56,114-258.72,250.07-261.48C960.05,100,1074.4,215.56,1077.05,353,1079.87,499.2,961.16,615.23,820.94,614.13ZM601.26,358.53c.76,123.86,100,219.61,219.89,219.88,121,.27,219.44-97.92,219.93-219.25.5-121.11-97.79-220-219.79-220.14C702.16,138.86,602.45,233.9,601.26,358.53Z" transform="translate(-1 -1)"/><path d="M601.26,358.53c1.19-124.63,100.9-219.67,220-219.51,122,.17,220.29,99,219.79,220.14-.49,121.33-99,219.52-219.93,219.25C701.3,578.14,602,482.39,601.26,358.53Zm37.89,110.88c28.52,50.59,96.2,104.36,186.27,102.73,83-1.5,148.85-51.35,177.85-102.73h-5.61q-59.25,0-118.49,0c-3.42,0-6.2-.16-8.09-4-11.35-23.3-23-46.47-34.53-69.68-4.78-9.6-9.6-19.19-14.65-29.29-1.11,1.76-1.85,2.84-2.48,4-17.13,31-34.37,61.87-51.25,93-2.53,4.65-5.43,6.13-10.48,6.11-37.83-.17-75.66-.09-113.5-.09ZM1003.2,246.73c-40.28-65.55-119.33-112.55-211.53-99.53-65.52,9.25-115.59,43.2-152.69,99.28,3.32.16,5.23.34,7.14.34,39,0,78,.1,117-.09,5.2,0,8,1.84,10.24,6.41,15.42,32,31,63.89,46.56,95.81.69,1.41,1.4,2.79,2.51,5l59.32-107.24ZM1000.64,463a17.21,17.21,0,0,0-.69-2.31q-24.36-48.48-48.67-97c-1.48-3-3.38-3.47-6.28-3.46q-49.25.11-98.5.05H825.67c.88,1.93,1.5,3.41,2.22,4.85,15.62,31.24,31.31,62.44,46.78,93.74,1.58,3.19,3.29,4.22,6.76,4.21,38.16-.12,76.33-.08,114.49-.08ZM818.2,360.17c-1.27-.15-1.77-.26-2.26-.26-38.47,0-76.93-.07-115.4.11-1.76,0-4.25,1.72-5.15,3.33q-27,48.25-53.58,96.71a18.6,18.6,0,0,0-1,2.63,7.6,7.6,0,0,0,1.28.3c38.63,0,77.26.08,115.89-.11,1.71,0,4.07-1.88,5-3.53,9.68-17,19.13-34.19,28.64-51.32Zm-2.78-6.6c-16.14-33.26-31.8-65.66-47.71-97.94-.7-1.43-3.68-2.47-5.59-2.47-37.83-.15-75.66-.11-113.49-.1-1.39,0-2.78.18-4.61.3,3.79,7.65,7.33,14.78,10.84,21.91q18.48,37.51,37,75c.71,1.45,2.55,3.33,3.87,3.33,38,.13,76,0,114,0Zm14,.15c1.36.16,2.13.33,2.9.33,38.47,0,76.94,0,115.41.09,3.24,0,4.2-1.72,5.4-4q24.29-46.58,48.66-93.09c.59-1.12,1-2.33,1.62-3.75-1-.1-1.68-.21-2.31-.21-37.48,0-75,0-112.42-.11-3.12,0-4.33,1.4-5.61,3.74Q864,291.38,844.79,326C839.76,335.09,834.72,344.19,829.44,353.72ZM633.91,461.43c18.66-33.58,36.9-66.35,55-99.19a5.57,5.57,0,0,0-.18-4.41q-24.81-50.7-49.84-101.31c-.62-1.26-1.44-2.42-2.76-4.61a206.09,206.09,0,0,0-27.74,86.24C604.51,381.44,612.71,422.4,633.91,461.43ZM1009.19,256.1c-1,1.55-1.39,2.06-1.69,2.63-16.91,32.36-33.86,64.7-50.6,97.15-.83,1.61-.47,4.47.4,6.22q21.13,42.36,42.56,84.58c2.57,5.09,5.12,10.18,8.23,16.36C1043.53,393.74,1044,325.59,1009.19,256.1Z" transform="translate(-1 -1)"/><path class="a" d="M639.15,469.41h5c37.84,0,75.67-.08,113.5.09,5,0,7.95-1.46,10.48-6.11,16.88-31.11,34.12-62,51.25-93,.63-1.14,1.37-2.22,2.48-4,5.05,10.1,9.87,19.69,14.65,29.29,11.55,23.21,23.18,46.38,34.53,69.68,1.89,3.87,4.67,4,8.09,4q59.25,0,118.49,0h5.61c-29,51.38-94.86,101.23-177.85,102.73C735.35,573.77,667.67,520,639.15,469.41Z" transform="translate(-1 -1)"/><path class="a" d="M1003.2,246.73H881.74L822.42,354c-1.11-2.23-1.82-3.61-2.51-5-15.54-31.92-31.14-63.82-46.56-95.81-2.2-4.57-5-6.44-10.24-6.41-39,.19-78,.11-117,.09-1.91,0-3.82-.18-7.14-.34,37.1-56.08,87.17-90,152.69-99.28C883.87,134.18,962.92,181.18,1003.2,246.73Z" transform="translate(-1 -1)"/><path class="a" d="M1000.64,463h-4.72c-38.16,0-76.33,0-114.49.08-3.47,0-5.18-1-6.76-4.21-15.47-31.3-31.16-62.5-46.78-93.74-.72-1.44-1.34-2.92-2.22-4.85H846.5q49.26,0,98.5-.05c2.9,0,4.8.48,6.28,3.46q24.19,48.58,48.67,97A17.21,17.21,0,0,1,1000.64,463Z" transform="translate(-1 -1)"/><path class="a" d="M818.2,360.17,791.64,408c-9.51,17.13-19,34.29-28.64,51.32-.94,1.65-3.3,3.52-5,3.53-38.63.19-77.26.13-115.89.11a7.6,7.6,0,0,1-1.28-.3,18.6,18.6,0,0,1,1-2.63q26.72-48.39,53.58-96.71c.9-1.61,3.39-3.33,5.15-3.33,38.47-.18,76.93-.13,115.4-.11C816.43,359.91,816.93,360,818.2,360.17Z" transform="translate(-1 -1)"/><path class="a" d="M815.42,353.57h-5.68c-38,.06-76,.15-114,0-1.32,0-3.16-1.88-3.87-3.33q-18.64-37.42-37-75c-3.51-7.13-7.05-14.26-10.84-21.91,1.83-.12,3.22-.3,4.61-.3,37.83,0,75.66-.05,113.49.1,1.91,0,4.89,1,5.59,2.47C783.62,287.91,799.28,320.31,815.42,353.57Z" transform="translate(-1 -1)"/><path class="a" d="M829.44,353.72c5.28-9.53,10.32-18.63,15.35-27.73q19.17-34.64,38.3-69.29c1.28-2.34,2.49-3.75,5.61-3.74,37.47.14,74.94.1,112.42.11.63,0,1.27.11,2.31.21-.61,1.42-1,2.63-1.62,3.75q-24.33,46.55-48.66,93.09c-1.2,2.3-2.16,4-5.4,4-38.47-.13-76.94-.08-115.41-.09C831.57,354.05,830.8,353.88,829.44,353.72Z" transform="translate(-1 -1)"/><path class="a" d="M633.91,461.43c-21.2-39-29.4-80-25.5-123.28a206.09,206.09,0,0,1,27.74-86.24c1.32,2.19,2.14,3.35,2.76,4.61q25,50.63,49.84,101.31a5.57,5.57,0,0,1,.18,4.41C670.81,395.08,652.57,427.85,633.91,461.43Z" transform="translate(-1 -1)"/><path class="a" d="M1009.19,256.1c34.81,69.49,34.34,137.64-1.1,206.94-3.11-6.18-5.66-11.27-8.23-16.36q-21.33-42.27-42.56-84.58c-.87-1.75-1.23-4.61-.4-6.22,16.74-32.45,33.69-64.79,50.6-97.15C1007.8,258.16,1008.19,257.65,1009.19,256.1Z" transform="translate(-1 -1)"/></svg>