<svg xmlns="http://www.w3.org/2000/svg" viewBox="0 0 1182 1182"><defs><style>.a{fill:#fff;}</style></defs><title>right</title><path d="M1183,1183H1V1H1183ZM17.35,20.23V1169.61H1166.74V20.23Z" transform="translate(-1 -1)"/><path class="a" d="M17.35,20.23H1166.74V1169.61H17.35Zm1106.3,1117.55V71.4H57.27V1137.78Z" transform="translate(-1 -1)"/><path d="M1123.65,1137.78H57.27V71.4H1123.65ZM1109.77,85.35H69.39V1125.74H1109.77Z" transform="translate(-1 -1)"/><path class="a" d="M1109.77,85.35V1125.74H69.39V85.35ZM826.54,620.68c144.34-.09,262.17-117.24,262-261.82C1088.33,207.15,963,93,819.46,96.83c-135.55,3.62-254.76,113.47-255,262.1C564.3,503.56,682.31,620.76,826.54,620.68Z" transform="translate(-1 -1)"/><path d="M826.54,620.68c-144.23.08-262.24-117.12-262-261.75.2-148.63,119.41-258.48,255-262.1C963,93,1088.33,207.15,1088.53,358.86,1088.71,503.44,970.88,620.59,826.54,620.68Zm255.59-262.26c.94-138.67-113.75-257.88-260.34-255.41-139.9,2.36-253.26,118.13-251.1,259.83,2.1,138.27,116.53,253.9,260.52,251.41C971.22,611.83,1083.14,496.35,1082.13,358.42Z" transform="translate(-1 -1)"/><path class="a" d="M1082.13,358.42c1,137.93-110.91,253.41-250.92,255.83-144,2.49-258.42-113.14-260.52-251.41-2.16-141.7,111.2-257.47,251.1-259.83C968.38,100.54,1083.07,219.75,1082.13,358.42Zm-255.49,220c121.54-.27,220.29-99.14,219.77-220a220,220,0,0,0-220.8-219.5c-120.72.27-219,98.87-219,219.77C606.55,479.84,705.52,578.68,826.64,578.42Z" transform="translate(-1 -1)"/><path d="M826.64,578.42c-121.12.26-220.09-98.58-220-219.77,0-120.9,98.3-219.5,219-219.77a220,220,0,0,1,220.8,219.5C1046.93,479.28,948.18,578.15,826.64,578.42Zm181.66-106.7H645.6c32.16,53.59,99.78,102.83,185.68,100.2C907.22,569.6,965.24,534.74,1008.3,471.72ZM1005.58,243c-32-52.86-105-105.84-199.7-96.91a209.48,209.48,0,0,0-90.59,30.18A214,214,0,0,0,646.86,243ZM883.78,465.85a24.36,24.36,0,0,0,2-2.44q29-51.65,57.86-103.4c.92-1.67.61-4.82-.36-6.62-16.29-30.06-32.79-60-49.24-90-1.71-3.12-3.42-6.25-5.37-9.79-1,1.6-1.67,2.54-2.24,3.54q-28.28,50.1-56.64,100.15c-1.41,2.47-1,4.08.11,6.27q20.94,39.62,41.75,79.31Zm-121.61-.45c.91-1.3,1.51-2,2-2.84q28.22-49.86,56.29-99.8a6.91,6.91,0,0,0-.17-5.66Q794.18,307,767.82,257A19.34,19.34,0,0,0,766,254.6c-19.36,34.89-38.48,69.26-57.42,103.73-.78,1.43-.41,4.12.42,5.71q19.85,38.23,40,76.32C753.27,448.55,757.6,456.74,762.17,465.4Zm-120.63,1.16c1.36-1.81,2-2.53,2.51-3.36q27.81-50.11,55.49-100.31c.72-1.32.43-3.78-.32-5.22Q677.05,315,654.63,272.46c-3.89-7.39-7.84-14.75-12.3-23.14C603.22,322.09,602.93,393.7,641.54,466.56Zm369.84-.89c21.53-37.39,30.69-77,28.46-119.13a207.58,207.58,0,0,0-28.43-94.84c-.75.62-1.09.77-1.23,1Q981.79,303.34,953.53,354a7.52,7.52,0,0,0,.14,6.14c11.71,21.8,23.62,43.49,35.51,65.19C996.43,438.59,1003.73,451.78,1011.38,465.67ZM825.21,354.52c19.83-35.1,39.27-69.54,59-104.44H770.34ZM649,250.07l55.11,104.86c19.62-35.36,38.76-69.88,58.16-104.86ZM948.55,362.66,891.28,464.75h113.23Zm57-112.61H893.14l55.52,101.29ZM877.05,464.85l-52-98.93-55.85,98.93ZM704,366.41c-18.36,33.11-36.32,65.5-54.53,98.36H755.63C738.37,431.91,721.36,399.53,704,366.41Z" transform="translate(-1 -1)"/><path class="a" d="M1008.3,471.72c-43.06,63-101.08,97.88-177,100.2-85.9,2.63-153.52-46.61-185.68-100.2Z" transform="translate(-1 -1)"/><path class="a" d="M1005.58,243H646.86a214,214,0,0,1,68.43-66.73,209.48,209.48,0,0,1,90.59-30.18C900.55,137.18,973.6,190.16,1005.58,243Z" transform="translate(-1 -1)"/><path class="a" d="M883.78,465.85l-12.1-23q-20.86-39.66-41.75-79.31c-1.15-2.19-1.52-3.8-.11-6.27q28.47-50,56.64-100.15c.57-1,1.23-1.94,2.24-3.54,1.95,3.54,3.66,6.67,5.37,9.79,16.45,30,32.95,59.94,49.24,90,1,1.8,1.28,4.95.36,6.62q-28.73,51.81-57.86,103.4A24.36,24.36,0,0,1,883.78,465.85Z" transform="translate(-1 -1)"/><path class="a" d="M762.17,465.4c-4.57-8.66-8.9-16.85-13.21-25Q728.91,402.23,709,364c-.83-1.59-1.2-4.28-.42-5.71,18.94-34.47,38.06-68.84,57.42-103.73a19.34,19.34,0,0,1,1.85,2.35q26.28,50,52.43,100.15a6.91,6.91,0,0,1,.17,5.66q-28,50-56.29,99.8C763.68,463.37,763.08,464.1,762.17,465.4Z" transform="translate(-1 -1)"/><path class="a" d="M641.54,466.56c-38.61-72.86-38.32-144.47.79-217.24,4.46,8.39,8.41,15.75,12.3,23.14Q677,315,699.22,357.67c.75,1.44,1,3.9.32,5.22q-27.6,50.24-55.49,100.31C643.58,464,642.9,464.75,641.54,466.56Z" transform="translate(-1 -1)"/><path class="a" d="M1011.38,465.67c-7.65-13.89-15-27.08-22.2-40.3-11.89-21.7-23.8-43.39-35.51-65.19a7.52,7.52,0,0,1-.14-6.14q28.14-50.76,56.65-101.31c.14-.26.48-.41,1.23-1a207.58,207.58,0,0,1,28.43,94.84C1042.07,388.71,1032.91,428.28,1011.38,465.67Z" transform="translate(-1 -1)"/><path class="a" d="M825.21,354.52,770.34,250.08H884.2C864.48,285,845,319.42,825.21,354.52Z" transform="translate(-1 -1)"/><path class="a" d="M649,250.07H762.24c-19.4,35-38.54,69.5-58.16,104.86Z" transform="translate(-1 -1)"/><path class="a" d="M948.55,362.66l56,102.09H891.28Z" transform="translate(-1 -1)"/><path class="a" d="M1005.5,250.05,948.66,351.34,893.14,250.05Z" transform="translate(-1 -1)"/><path class="a" d="M877.05,464.85H769.19L825,365.92Z" transform="translate(-1 -1)"/><path class="a" d="M704,366.41c17.41,33.12,34.42,65.5,51.68,98.36H649.42C667.63,431.91,685.59,399.52,704,366.41Z" transform="translate(-1 -1)"/></svg>