<svg xmlns="http://www.w3.org/2000/svg" xmlns:xlink="http://www.w3.org/1999/xlink" viewBox="0 0 421.79 433.13"><defs><style>.a,.b{fill:none;}.a{clip-rule:evenodd;}.c{clip-path:url(#a);}.d{clip-path:url(#b);}.e{clip-path:url(#d);}.f{clip-path:url(#e);}.g{clip-path:url(#g);}.h{clip-path:url(#h);}.i{clip-path:url(#j);}.j{clip-path:url(#k);}.k{clip-path:url(#m);}.l{clip-path:url(#n);}.m{clip-path:url(#p);}.n{clip-path:url(#q);}.o{fill-rule:evenodd;}.p{clip-path:url(#s);}.q{clip-path:url(#t);}.r{clip-path:url(#v);}.s{clip-path:url(#w);}.t{clip-path:url(#y);}.u{clip-path:url(#z);}.v{clip-path:url(#ab);}.w{clip-path:url(#ac);}.x{clip-path:url(#ae);}.y{clip-path:url(#af);}.z{clip-path:url(#ah);}.aa{clip-path:url(#ai);}.ab{clip-path:url(#ak);}.ac{clip-path:url(#al);}.ad{clip-path:url(#an);}.ae{clip-path:url(#ao);}.af{clip-path:url(#aq);}.ag{clip-path:url(#ar);}.ah{clip-path:url(#at);}.ai{clip-path:url(#au);}.aj{clip-path:url(#aw);}.ak{clip-path:url(#ax);}.al{clip-path:url(#az);}.am{clip-path:url(#ba);}.an{clip-path:url(#bc);}.ao{clip-path:url(#bd);}.ap{clip-path:url(#bf);}.aq{clip-path:url(#bg);}.ar{clip-path:url(#bi);}.as{clip-path:url(#bj);}.at{clip-path:url(#bl);}.au{clip-path:url(#bm);}.av{clip-path:url(#bo);}.aw{clip-path:url(#bp);}.ax{clip-path:url(#br);}.ay{clip-path:url(#bs);}.az{clip-path:url(#bu);}.ba{clip-path:url(#bv);}.bb{clip-path:url(#bx);}.bc{clip-path:url(#by);}.bd{clip-path:url(#ca);}.be{clip-path:url(#cb);}.bf{clip-path:url(#cd);}.bg{clip-path:url(#ce);}.bh{clip-path:url(#cg);}.bi{clip-path:url(#ch);}.bj{clip-path:url(#cj);}.bk{clip-path:url(#ck);}.bl{clip-path:url(#cm);}.bm{clip-path:url(#cn);}.bn{clip-path:url(#cp);}.bo{clip-path:url(#cq);}.bp{clip-path:url(#cs);}.bq{clip-path:url(#ct);}.br{clip-path:url(#cv);}.bs{clip-path:url(#cw);}.bt{clip-path:url(#cy);}.bu{clip-path:url(#cz);}.bv{clip-path:url(#db);}.bw{clip-path:url(#dc);}.bx{clip-path:url(#de);}</style><clipPath id="a" transform="translate(-35.82 -30.96)"><polygon class="a" points="36.41 32.45 107.13 32.45 107.13 102.98 36.41 102.98 36.41 32.45 36.41 32.45"/></clipPath><clipPath id="b" transform="translate(-35.82 -30.96)"><rect class="b" x="36.41" y="32.45" width="70.72" height="70.53"/></clipPath><clipPath id="d" transform="translate(-35.82 -30.96)"><polygon class="a" points="107.72 32.45 178.59 32.45 178.59 102.98 107.72 102.98 107.72 32.45 107.72 32.45"/></clipPath><clipPath id="e" transform="translate(-35.82 -30.96)"><rect class="b" x="107.72" y="32.45" width="70.87" height="70.53"/></clipPath><clipPath id="g" transform="translate(-35.82 -30.96)"><polygon class="a" points="179.18 32.45 249.9 32.45 249.9 102.98 179.18 102.98 179.18 32.45 179.18 32.45"/></clipPath><clipPath id="h" transform="translate(-35.82 -30.96)"><rect class="b" x="179.18" y="32.45" width="70.72" height="70.53"/></clipPath><clipPath id="j" transform="translate(-35.82 -30.96)"><polygon class="a" points="250.49 32.45 321.21 32.45 321.21 102.98 250.49 102.98 250.49 32.45 250.49 32.45"/></clipPath><clipPath id="k" transform="translate(-35.82 -30.96)"><rect class="b" x="250.49" y="32.45" width="70.72" height="70.53"/></clipPath><clipPath id="m" transform="translate(-35.82 -30.96)"><polygon class="a" points="321.8 32.45 392.52 32.45 392.52 102.98 321.8 102.98 321.8 32.45 321.8 32.45"/></clipPath><clipPath id="n" transform="translate(-35.82 -30.96)"><rect class="b" x="321.8" y="32.45" width="70.72" height="70.53"/></clipPath><clipPath id="p" transform="translate(-35.82 -30.96)"><polygon class="a" points="393.11 32.45 457.01 32.45 457.01 102.98 393.11 102.98 393.11 32.45 393.11 32.45"/></clipPath><clipPath id="q" transform="translate(-35.82 -30.96)"><rect class="b" x="393.11" y="32.45" width="63.9" height="70.53"/></clipPath><clipPath id="s" transform="translate(-35.82 -30.96)"><polygon class="a" points="36.41 104.61 107.13 104.61 107.13 175.14 36.41 175.14 36.41 104.61 36.41 104.61"/></clipPath><clipPath id="t" transform="translate(-35.82 -30.96)"><rect class="b" x="36.41" y="104.61" width="70.72" height="70.53"/></clipPath><clipPath id="v" transform="translate(-35.82 -30.96)"><polygon class="a" points="107.72 104.61 178.59 104.61 178.59 175.14 107.72 175.14 107.72 104.61 107.72 104.61"/></clipPath><clipPath id="w" transform="translate(-35.82 -30.96)"><rect class="b" x="107.72" y="104.61" width="70.87" height="70.53"/></clipPath><clipPath id="y" transform="translate(-35.82 -30.96)"><polygon class="a" points="179.18 104.61 249.9 104.61 249.9 175.14 179.18 175.14 179.18 104.61 179.18 104.61"/></clipPath><clipPath id="z" transform="translate(-35.82 -30.96)"><rect class="b" x="179.18" y="104.61" width="70.72" height="70.53"/></clipPath><clipPath id="ab" transform="translate(-35.82 -30.96)"><polygon class="a" points="250.49 104.61 321.21 104.61 321.21 175.14 250.49 175.14 250.49 104.61 250.49 104.61"/></clipPath><clipPath id="ac" transform="translate(-35.82 -30.96)"><rect class="b" x="250.49" y="104.61" width="70.72" height="70.53"/></clipPath><clipPath id="ae" transform="translate(-35.82 -30.96)"><polygon class="a" points="321.8 104.61 392.52 104.61 392.52 175.14 321.8 175.14 321.8 104.61 321.8 104.61"/></clipPath><clipPath id="af" transform="translate(-35.82 -30.96)"><rect class="b" x="321.8" y="104.61" width="70.72" height="70.53"/></clipPath><clipPath id="ah" transform="translate(-35.82 -30.96)"><polygon class="a" points="393.11 104.61 457.01 104.61 457.01 175.14 393.11 175.14 393.11 104.61 393.11 104.61"/></clipPath><clipPath id="ai" transform="translate(-35.82 -30.96)"><rect class="b" x="393.11" y="104.61" width="63.9" height="70.53"/></clipPath><clipPath id="ak" transform="translate(-35.82 -30.96)"><polygon class="a" points="36.41 176.62 107.13 176.62 107.13 247.15 36.41 247.15 36.41 176.62 36.41 176.62"/></clipPath><clipPath id="al" transform="translate(-35.82 -30.96)"><rect class="b" x="36.41" y="176.62" width="70.72" height="70.53"/></clipPath><clipPath id="an" transform="translate(-35.82 -30.96)"><polygon class="a" points="107.72 176.62 178.59 176.62 178.59 247.15 107.72 247.15 107.72 176.62 107.72 176.62"/></clipPath><clipPath id="ao" transform="translate(-35.82 -30.96)"><rect class="b" x="107.72" y="176.62" width="70.87" height="70.53"/></clipPath><clipPath id="aq" transform="translate(-35.82 -30.96)"><polygon class="a" points="179.18 176.62 249.9 176.62 249.9 247.15 179.18 247.15 179.18 176.62 179.18 176.62"/></clipPath><clipPath id="ar" transform="translate(-35.82 -30.96)"><rect class="b" x="179.18" y="176.62" width="70.72" height="70.53"/></clipPath><clipPath id="at" transform="translate(-35.82 -30.96)"><polygon class="a" points="250.49 176.62 321.21 176.62 321.21 247.15 250.49 247.15 250.49 176.62 250.49 176.62"/></clipPath><clipPath id="au" transform="translate(-35.82 -30.96)"><rect class="b" x="250.49" y="176.62" width="70.72" height="70.53"/></clipPath><clipPath id="aw" transform="translate(-35.82 -30.96)"><polygon class="a" points="321.8 176.62 392.52 176.62 392.52 247.15 321.8 247.15 321.8 176.62 321.8 176.62"/></clipPath><clipPath id="ax" transform="translate(-35.82 -30.96)"><rect class="b" x="321.8" y="176.62" width="70.72" height="70.53"/></clipPath><clipPath id="az" transform="translate(-35.82 -30.96)"><polygon class="a" points="393.11 176.62 457.01 176.62 457.01 247.15 393.11 247.15 393.11 176.62 393.11 176.62"/></clipPath><clipPath id="ba" transform="translate(-35.82 -30.96)"><rect class="b" x="393.11" y="176.62" width="63.9" height="70.53"/></clipPath><clipPath id="bc" transform="translate(-35.82 -30.96)"><polygon class="a" points="36.41 248.79 107.13 248.79 107.13 319.32 36.41 319.32 36.41 248.79 36.41 248.79"/></clipPath><clipPath id="bd" transform="translate(-35.82 -30.96)"><rect class="b" x="36.41" y="248.79" width="70.72" height="70.53"/></clipPath><clipPath id="bf" transform="translate(-35.82 -30.96)"><polygon class="a" points="107.72 248.79 178.59 248.79 178.59 319.32 107.72 319.32 107.72 248.79 107.72 248.79"/></clipPath><clipPath id="bg" transform="translate(-35.82 -30.96)"><rect class="b" x="107.72" y="248.79" width="70.87" height="70.53"/></clipPath><clipPath id="bi" transform="translate(-35.82 -30.96)"><polygon class="a" points="179.18 248.79 249.9 248.79 249.9 319.32 179.18 319.32 179.18 248.79 179.18 248.79"/></clipPath><clipPath id="bj" transform="translate(-35.82 -30.96)"><rect class="b" x="179.18" y="248.79" width="70.72" height="70.53"/></clipPath><clipPath id="bl" transform="translate(-35.82 -30.96)"><polygon class="a" points="250.49 248.79 321.21 248.79 321.21 319.32 250.49 319.32 250.49 248.79 250.49 248.79"/></clipPath><clipPath id="bm" transform="translate(-35.82 -30.96)"><rect class="b" x="250.49" y="248.79" width="70.72" height="70.53"/></clipPath><clipPath id="bo" transform="translate(-35.82 -30.96)"><polygon class="a" points="321.8 248.79 392.52 248.79 392.52 319.32 321.8 319.32 321.8 248.79 321.8 248.79"/></clipPath><clipPath id="bp" transform="translate(-35.82 -30.96)"><rect class="b" x="321.8" y="248.79" width="70.72" height="70.53"/></clipPath><clipPath id="br" transform="translate(-35.82 -30.96)"><polygon class="a" points="393.11 248.79 457.01 248.79 457.01 319.32 393.11 319.32 393.11 248.79 393.11 248.79"/></clipPath><clipPath id="bs" transform="translate(-35.82 -30.96)"><rect class="b" x="393.11" y="248.79" width="63.9" height="70.53"/></clipPath><clipPath id="bu" transform="translate(-35.82 -30.96)"><polygon class="a" points="36.41 320.8 107.13 320.8 107.13 391.33 36.41 391.33 36.41 320.8 36.41 320.8"/></clipPath><clipPath id="bv" transform="translate(-35.82 -30.96)"><rect class="b" x="36.41" y="320.8" width="70.72" height="70.53"/></clipPath><clipPath id="bx" transform="translate(-35.82 -30.96)"><polygon class="a" points="107.72 320.8 178.59 320.8 178.59 391.33 107.72 391.33 107.72 320.8 107.72 320.8"/></clipPath><clipPath id="by" transform="translate(-35.82 -30.96)"><rect class="b" x="107.72" y="320.8" width="70.87" height="70.53"/></clipPath><clipPath id="ca" transform="translate(-35.82 -30.96)"><polygon class="a" points="179.18 320.8 249.9 320.8 249.9 391.33 179.18 391.33 179.18 320.8 179.18 320.8"/></clipPath><clipPath id="cb" transform="translate(-35.82 -30.96)"><rect class="b" x="179.18" y="320.8" width="70.72" height="70.53"/></clipPath><clipPath id="cd" transform="translate(-35.82 -30.96)"><polygon class="a" points="250.49 320.8 321.21 320.8 321.21 391.33 250.49 391.33 250.49 320.8 250.49 320.8"/></clipPath><clipPath id="ce" transform="translate(-35.82 -30.96)"><rect class="b" x="250.49" y="320.8" width="70.72" height="70.53"/></clipPath><clipPath id="cg" transform="translate(-35.82 -30.96)"><polygon class="a" points="321.8 320.8 392.52 320.8 392.52 391.33 321.8 391.33 321.8 320.8 321.8 320.8"/></clipPath><clipPath id="ch" transform="translate(-35.82 -30.96)"><rect class="b" x="321.8" y="320.8" width="70.72" height="70.53"/></clipPath><clipPath id="cj" transform="translate(-35.82 -30.96)"><polygon class="a" points="393.11 320.8 457.01 320.8 457.01 391.33 393.11 391.33 393.11 320.8 393.11 320.8"/></clipPath><clipPath id="ck" transform="translate(-35.82 -30.96)"><rect class="b" x="393.11" y="320.8" width="63.9" height="70.53"/></clipPath><clipPath id="cm" transform="translate(-35.82 -30.96)"><polygon class="a" points="36.41 392.96 107.13 392.96 107.13 463.5 36.41 463.5 36.41 392.96 36.41 392.96"/></clipPath><clipPath id="cn" transform="translate(-35.82 -30.96)"><rect class="b" x="36.41" y="392.96" width="70.72" height="70.53"/></clipPath><clipPath id="cp" transform="translate(-35.82 -30.96)"><polygon class="a" points="107.72 392.96 178.59 392.96 178.59 463.5 107.72 463.5 107.72 392.96 107.72 392.96"/></clipPath><clipPath id="cq" transform="translate(-35.82 -30.96)"><rect class="b" x="107.72" y="392.96" width="70.87" height="70.53"/></clipPath><clipPath id="cs" transform="translate(-35.82 -30.96)"><polygon class="a" points="179.18 392.96 249.9 392.96 249.9 463.5 179.18 463.5 179.18 392.96 179.18 392.96"/></clipPath><clipPath id="ct" transform="translate(-35.82 -30.96)"><rect class="b" x="179.18" y="392.96" width="70.72" height="70.53"/></clipPath><clipPath id="cv" transform="translate(-35.82 -30.96)"><polygon class="a" points="250.49 392.96 321.21 392.96 321.21 463.5 250.49 463.5 250.49 392.96 250.49 392.96"/></clipPath><clipPath id="cw" transform="translate(-35.82 -30.96)"><rect class="b" x="250.49" y="392.96" width="70.72" height="70.53"/></clipPath><clipPath id="cy" transform="translate(-35.82 -30.96)"><polygon class="a" points="321.8 392.96 392.52 392.96 392.52 463.5 321.8 463.5 321.8 392.96 321.8 392.96"/></clipPath><clipPath id="cz" transform="translate(-35.82 -30.96)"><rect class="b" x="321.8" y="392.96" width="70.72" height="70.53"/></clipPath><clipPath id="db" transform="translate(-35.82 -30.96)"><polygon class="a" points="393.11 392.96 457.01 392.96 457.01 463.5 393.11 463.5 393.11 392.96 393.11 392.96"/></clipPath><clipPath id="dc" transform="translate(-35.82 -30.96)"><rect class="b" x="393.11" y="392.96" width="63.9" height="70.53"/></clipPath><clipPath id="de" transform="translate(-35.82 -30.96)"><rect class="b" x="35.82" y="30.96" width="513.11" height="452.43"/></clipPath></defs><title>tb</title><g class="c"><g class="d"><path d="M71,77.72a4,4,0,0,0,4.15-3.15V66.65a1.31,1.31,0,0,0-.25-.82,1.07,1.07,0,0,0-.88-.32h-.76v-.75H74a6.6,6.6,0,0,0,1.38-.13A2.88,2.88,0,0,0,76.63,64h.25V76.34a.91.91,0,0,0,.31.75,1.25,1.25,0,0,0,.82.25h.75v.76H78a4.23,4.23,0,0,0-1.26.19,8.17,8.17,0,0,0-1.38.56h-.25V76.21a4.32,4.32,0,0,1-1.89,2.08,5.91,5.91,0,0,1-2.89.69,3.83,3.83,0,0,1-3-1.13,5.38,5.38,0,0,1-1-3.65V66.65a1.25,1.25,0,0,0-.25-.82,1.07,1.07,0,0,0-.88-.32h-.75v-.75h.75a6.6,6.6,0,0,0,1.38-.13A2.88,2.88,0,0,0,67.83,64h.25V74.45A3.5,3.5,0,0,0,68.83,77,2.92,2.92,0,0,0,71,77.72Z" transform="translate(-35.82 -30.96)"/></g></g><g class="e"><g class="f"><path d="M143.82,79.11a6.73,6.73,0,0,1-5.59-2.65q-2.08-2.64-2.08-8.3a13.47,13.47,0,0,1,2.2-7.93,6.92,6.92,0,0,1,6-3.15,6.29,6.29,0,0,1,1.76.25,4,4,0,0,0,1.51.38,2.08,2.08,0,0,0,.81-.13,1.26,1.26,0,0,0,.57-.5l1.13,5.54-.75.25a9.06,9.06,0,0,0-2-3.65A4.42,4.42,0,0,0,144.07,58q-2.64,0-4.09,2.9A16,16,0,0,0,138.54,68a17.25,17.25,0,0,0,1.26,7.3A4.26,4.26,0,0,0,143.94,78a4.74,4.74,0,0,0,3.46-1.44,7.56,7.56,0,0,0,1.95-3.84l.75.37a8.94,8.94,0,0,1-2.32,4.35A5.45,5.45,0,0,1,143.82,79.11Z" transform="translate(-35.82 -30.96)"/></g></g><g class="g"><g class="h"><path d="M218.14,64.76h4.27v.75h-.5a1.22,1.22,0,0,0-.88.38,2.94,2.94,0,0,0-.63,1.26l-3,11.83h-.76l-2.26-9.58L212,79h-.75L208.34,67.4a2.91,2.91,0,0,0-.5-1.38,1,1,0,0,0-.76-.51h-.5v-.75h4.52v.75h-.5A.59.59,0,0,0,210,66a3,3,0,0,0,0,1.2l1.89,8.16h.25L214,67.78a3.86,3.86,0,0,0-.5-1.7,1.06,1.06,0,0,0-.88-.57h-.37v-.75h4.27v.75h-.38a.59.59,0,0,0-.63.44,3,3,0,0,0,0,1.21l1.89,8.27h.12l2.14-8.91a.77.77,0,0,0-.13-.76,1,1,0,0,0-.75-.25h-.63Z" transform="translate(-35.82 -30.96)"/></g></g><g class="i"><g class="j"><path d="M291.59,74l-.88,4.9H279.9v-.63l8.67-12.71h-4.65a2.47,2.47,0,0,0-1.88.82,6.64,6.64,0,0,0-1.26,2.83L280,69l.5-4.28h10.3v.37L282,78.1h4.77a3.37,3.37,0,0,0,2.58-1,6.93,6.93,0,0,0,1.44-3.27Z" transform="translate(-35.82 -30.96)"/></g></g><g class="k"><g class="l"><path d="M359.25,70.8H353.6l-1.13,4.78a5,5,0,0,0-.13,1,2.82,2.82,0,0,0,.19,1c.13.33.48.5,1.07.5H354v.75h-4.65V78.1h.37a1.32,1.32,0,0,0,.88-.32,1.66,1.66,0,0,0,.5-1.07L356,57.46l1.88-.63,4.78,19.88a2.19,2.19,0,0,0,.62,1.07,1.36,1.36,0,0,0,.88.32h.38v.75h-5.4V78.1h.5c.5,0,.8-.11.88-.32a1.56,1.56,0,0,0,.13-.56,2.86,2.86,0,0,0-.13-.88Zm-2.64-11.2h-.12L353.85,70h5.28Z" transform="translate(-35.82 -30.96)"/></g></g><g class="m"><g class="n"><path d="M418,64.76a6,6,0,0,0,1.26-.13,2.65,2.65,0,0,0,1-.38h.25v2.14A4.1,4.1,0,0,1,421.9,65a3.09,3.09,0,0,1,1.63-.44,3,3,0,0,1,1.76.44,1.92,1.92,0,0,1,.75,1.44A3.91,3.91,0,0,1,427.49,65a3.45,3.45,0,0,1,1.7-.44,2.27,2.27,0,0,1,2.07.88,4.07,4.07,0,0,1,.56,2.26v9.57a.82.82,0,0,0,.26.69,1.18,1.18,0,0,0,.75.19h.25v.75h-4.27V78.1h.25a1.22,1.22,0,0,0,.75-.19.82.82,0,0,0,.26-.69V67.78a3.54,3.54,0,0,0-.32-1.83,1.08,1.08,0,0,0-.94-.44,2.26,2.26,0,0,0-1.57.63,4.08,4.08,0,0,0-1.07,1.76v9.32a.82.82,0,0,0,.25.69,1.22,1.22,0,0,0,.75.19h.26v.75h-4.28V78.1h.25a1.23,1.23,0,0,0,.76-.19.82.82,0,0,0,.25-.69V67.78a4.34,4.34,0,0,0-.25-1.7,1,1,0,0,0-1-.57,2.28,2.28,0,0,0-1.57.63A4.16,4.16,0,0,0,420.51,68v9.19a.82.82,0,0,0,.26.69,1.18,1.18,0,0,0,.75.19h.25v.75H417.5V78.1h.25a1.22,1.22,0,0,0,.75-.19.82.82,0,0,0,.25-.69v-11a1.1,1.1,0,0,0-.12-.57.58.58,0,0,0-.5-.19h-.51v-.75Z" transform="translate(-35.82 -30.96)"/></g></g><polyline class="o" points="0 0 0 1.49 0.59 1.49 0.59 0 0 0"/><polyline class="o" points="0 0 0 0.59 0.59 0.59 0.59 0 0 0"/><polyline class="o" points="0.59 0 0.59 0.59 71.31 0.59 71.31 0 0.59 0"/><polyline class="o" points="71.31 0.59 71.31 1.49 71.9 1.49 71.9 0.59 71.31 0.59"/><polyline class="o" points="71.31 0 71.31 0.59 71.9 0.59 71.9 0 71.31 0"/><polyline class="o" points="71.9 0 71.9 0.59 142.77 0.59 142.77 0 71.9 0"/><polyline class="o" points="142.77 0.59 142.77 1.49 143.36 1.49 143.36 0.59 142.77 0.59"/><polyline class="o" points="142.77 0 142.77 0.59 143.36 0.59 143.36 0 142.77 0"/><polyline class="o" points="143.36 0 143.36 0.59 214.08 0.59 214.08 0 143.36 0"/><polyline class="o" points="214.08 0.59 214.08 1.49 214.67 1.49 214.67 0.59 214.08 0.59"/><polyline class="o" points="214.08 0 214.08 0.59 214.67 0.59 214.67 0 214.08 0"/><polyline class="o" points="214.67 0 214.67 0.59 285.39 0.59 285.39 0 214.67 0"/><polyline class="o" points="285.39 0.59 285.39 1.49 285.99 1.49 285.99 0.59 285.39 0.59"/><polyline class="o" points="285.39 0 285.39 0.59 285.99 0.59 285.99 0 285.39 0"/><polyline class="o" points="285.99 0 285.99 0.59 356.7 0.59 356.7 0 285.99 0"/><polyline class="o" points="356.7 0.59 356.7 1.49 357.3 1.49 357.3 0.59 356.7 0.59"/><polyline class="o" points="356.7 0 356.7 0.59 357.3 0.59 357.3 0 356.7 0"/><polyline class="o" points="357.3 0 357.3 0.59 421.19 0.59 421.19 0 357.3 0"/><polyline class="o" points="421.19 0 421.19 1.49 421.79 1.49 421.79 0 421.19 0"/><polyline class="o" points="421.19 0 421.19 0.59 421.79 0.59 421.79 0 421.19 0"/><polyline class="o" points="0 1.49 0 72.02 0.59 72.02 0.59 1.49 0 1.49"/><polyline class="o" points="71.31 1.49 71.31 72.02 71.9 72.02 71.9 1.49 71.31 1.49"/><polyline class="o" points="142.77 1.49 142.77 72.02 143.36 72.02 143.36 1.49 142.77 1.49"/><polyline class="o" points="214.08 1.49 214.08 72.02 214.67 72.02 214.67 1.49 214.08 1.49"/><polyline class="o" points="285.39 1.49 285.39 72.02 285.99 72.02 285.99 1.49 285.39 1.49"/><polyline class="o" points="356.7 1.49 356.7 72.02 357.3 72.02 357.3 1.49 356.7 1.49"/><polyline class="o" points="421.19 1.49 421.19 72.02 421.79 72.02 421.79 1.49 421.19 1.49"/><g class="p"><g class="q"><path d="M74.24,148.22A5,5,0,0,1,77,149.29a2.86,2.86,0,0,1,.88,2.21,3.54,3.54,0,0,1-1.57,3,8.63,8.63,0,0,1-5,1.13,7.67,7.67,0,0,1-4.27-1.07,3,3,0,0,1-1.64-2.45,3,3,0,0,1,.63-1.77,4.18,4.18,0,0,1,2-1.38,4.35,4.35,0,0,1-1.19-.82,1.43,1.43,0,0,1-.44-1.07,1.91,1.91,0,0,1,.5-1.32,3.92,3.92,0,0,1,1.26-.94,6.4,6.4,0,0,1-1.32-1.51,3.43,3.43,0,0,1-.57-1.89,4.73,4.73,0,0,1,5-4.78,7.45,7.45,0,0,1,2,.25,3.48,3.48,0,0,1,1.57.88,9.5,9.5,0,0,1,1.57-.95,3.13,3.13,0,0,1,1.19-.31.94.94,0,0,1,.88.44,1.64,1.64,0,0,1,.25.82,1.56,1.56,0,0,1-.19.82.72.72,0,0,1-.69.31,1,1,0,0,1-.63-.19,1.11,1.11,0,0,1-.37-.56.46.46,0,0,0-.57-.32,2.09,2.09,0,0,0-.94.44,3.24,3.24,0,0,1,.75,1.39,6.25,6.25,0,0,1,.26,1.76,4.64,4.64,0,0,1-1.2,3,4.7,4.7,0,0,1-3.83,1.44,4.61,4.61,0,0,1-1.38-.19,3.55,3.55,0,0,1-1-.44,1.83,1.83,0,0,0-.75.63,1.22,1.22,0,0,0-.25.63,1,1,0,0,0,.25.76,1,1,0,0,0,.75.25l3,.44C72.79,148,73.57,148.14,74.24,148.22Zm-5.15,1a3.45,3.45,0,0,0-1.57,1.2,3,3,0,0,0-.44,1.7A2.41,2.41,0,0,0,68.21,154a5.43,5.43,0,0,0,3.39.89,7.07,7.07,0,0,0,3.39-.7,2.23,2.23,0,0,0,1.26-2.07,2.73,2.73,0,0,0-.31-1.39,1.45,1.45,0,0,0-1-.63c-.84-.16-1.76-.33-2.76-.5S70.17,149.4,69.09,149.23Zm-1-7.8A3.92,3.92,0,0,0,69,144a2.94,2.94,0,0,0,2.39,1.07,3.07,3.07,0,0,0,2.45-1,4,4,0,0,0,.82-2.7,4.25,4.25,0,0,0-1-3.09,3.35,3.35,0,0,0-4.65,0A4.25,4.25,0,0,0,68.08,141.43Z" transform="translate(-35.82 -30.96)"/></g></g><g class="r"><g class="s"><path d="M137.79,131.11a1,1,0,0,0-.26-.76,1.22,1.22,0,0,0-.88-.25h-.75v-.75h5.66a8.07,8.07,0,0,1,6.22,2.51q2.33,2.52,2.32,7.81,0,5.79-2.26,8.49t-6.66,2.71h-5.41v-.76h.88a1.22,1.22,0,0,0,.88-.25,1,1,0,0,0,.26-.75Zm9.92,8.81q0-5.41-1.63-7.62a5.34,5.34,0,0,0-4.52-2.2,2.68,2.68,0,0,0-1.32.25.81.81,0,0,0-.44.76v18a.85.85,0,0,0,.37.75,1.78,1.78,0,0,0,1,.25,6.05,6.05,0,0,0,4.65-2.07C147.08,146.65,147.71,144,147.71,139.92Z" transform="translate(-35.82 -30.96)"/></g></g><g class="t"><g class="u"><path d="M216.63,142.81H211l-1.13,4.79a5,5,0,0,0-.13,1,2.78,2.78,0,0,0,.19,1c.13.34.48.5,1.07.5h.38v.76h-4.65v-.76h.37a1.32,1.32,0,0,0,.88-.31,1.77,1.77,0,0,0,.51-1.07l4.9-19.26,1.88-.63L220,148.73a2.22,2.22,0,0,0,.63,1.07,1.32,1.32,0,0,0,.88.31h.37v.76h-5.4v-.76h.5c.5,0,.8-.1.88-.31a1.65,1.65,0,0,0,.13-.57,2.91,2.91,0,0,0-.13-.88ZM214,131.61h-.12l-2.64,10.45h5.28Z" transform="translate(-35.82 -30.96)"/></g></g><g class="v"><g class="w"><path d="M291.84,149.11a.91.91,0,0,0,.31.75,1.25,1.25,0,0,0,.82.25h.5v.76h-5.4v-.76h.63a1.22,1.22,0,0,0,.88-.25,1,1,0,0,0,.25-.75V132.66h-.25l-4.28,18.21h-.75L280.66,133h-.26v16.11a.91.91,0,0,0,.32.75,1.25,1.25,0,0,0,.82.25h.37v.76h-3.77v-.76h.38a1.22,1.22,0,0,0,.88-.25,1,1,0,0,0,.25-.75v-18a1,1,0,0,0-.25-.76,1.22,1.22,0,0,0-.88-.25H278v-.75h3.64l3.64,16.79h.26l3.89-16.79h4v.75H293a1.25,1.25,0,0,0-.82.25.91.91,0,0,0-.31.76Z" transform="translate(-35.82 -30.96)"/></g></g><g class="x"><g class="y"><path d="M350.08,150.87v-.76h.63a1.22,1.22,0,0,0,.88-.25,1.06,1.06,0,0,0,.25-.75V138.28a1,1,0,0,0-.13-.57.57.57,0,0,0-.5-.18h-1v-.76h.87a5.81,5.81,0,0,0,1.2-.12,2.93,2.93,0,0,0,1.07-.51h.25V139a9,9,0,0,1,2.26-1.89,4.83,4.83,0,0,1,2.39-.63,4,4,0,0,1,3.14,1.13,5,5,0,0,1,1,3.4v8.06a.91.91,0,0,0,.31.75,1.25,1.25,0,0,0,.82.25h.62v.76h-5.27v-.76h.62a1.2,1.2,0,0,0,.88-.25,1,1,0,0,0,.26-.75v-8.44a3.78,3.78,0,0,0-.63-2.33,2.25,2.25,0,0,0-1.89-.81,4.35,4.35,0,0,0-2.32.75,8.07,8.07,0,0,0-2.2,2.14v8.69a.91.91,0,0,0,.31.75,1.25,1.25,0,0,0,.82.25h.63v.76Z" transform="translate(-35.82 -30.96)"/></g></g><g class="z"><g class="aa"><path d="M418.13,130.1v-.75h12.31l1.38,4.27-.62.26a9.68,9.68,0,0,0-2.14-2.84,3.86,3.86,0,0,0-2.51-.94H423a1.25,1.25,0,0,0-.82.25.91.91,0,0,0-.31.76v7.8h3.64a2.32,2.32,0,0,0,1.82-.63,2.74,2.74,0,0,0,.57-1.89v-.75h.75v7.42h-.75v-.5a3.49,3.49,0,0,0-.57-2.14,2.12,2.12,0,0,0-1.82-.75H421.9v9.44a.91.91,0,0,0,.31.75,1.25,1.25,0,0,0,.82.25h3.26A4.9,4.9,0,0,0,429.5,149a7,7,0,0,0,2.07-3.33l.63.25-1.38,4.91H418v-.76h.75a1.2,1.2,0,0,0,.88-.25,1,1,0,0,0,.26-.75v-18a1,1,0,0,0-.26-.76,1.2,1.2,0,0,0-.88-.25Z" transform="translate(-35.82 -30.96)"/></g></g><polyline class="o" points="0 72.02 0 73.5 0.59 73.5 0.59 72.02 0 72.02"/><polyline class="o" points="0.59 72.02 0.59 72.61 71.31 72.61 71.31 72.02 0.59 72.02"/><polyline class="o" points="71.31 72.02 71.31 73.5 71.9 73.5 71.9 72.02 71.31 72.02"/><polyline class="o" points="71.9 72.02 71.9 72.61 142.77 72.61 142.77 72.02 71.9 72.02"/><polyline class="o" points="142.77 72.02 142.77 73.5 143.36 73.5 143.36 72.02 142.77 72.02"/><polyline class="o" points="143.36 72.02 143.36 72.61 214.08 72.61 214.08 72.02 143.36 72.02"/><polyline class="o" points="214.08 72.02 214.08 73.5 214.67 73.5 214.67 72.02 214.08 72.02"/><polyline class="o" points="214.67 72.02 214.67 72.61 285.39 72.61 285.39 72.02 214.67 72.02"/><polyline class="o" points="285.39 72.02 285.39 73.5 285.99 73.5 285.99 72.02 285.39 72.02"/><polyline class="o" points="285.99 72.02 285.99 72.61 356.7 72.61 356.7 72.02 285.99 72.02"/><polyline class="o" points="356.7 72.02 356.7 73.5 357.3 73.5 357.3 72.02 356.7 72.02"/><polyline class="o" points="357.3 72.02 357.3 72.61 421.19 72.61 421.19 72.02 357.3 72.02"/><polyline class="o" points="421.19 72.02 421.19 73.5 421.79 73.5 421.79 72.02 421.19 72.02"/><polyline class="o" points="0 73.5 0 144.18 0.59 144.18 0.59 73.5 0 73.5"/><polyline class="o" points="71.31 73.5 71.31 144.18 71.9 144.18 71.9 73.5 71.31 73.5"/><polyline class="o" points="142.77 73.5 142.77 144.18 143.36 144.18 143.36 73.5 142.77 73.5"/><polyline class="o" points="214.08 73.5 214.08 144.18 214.67 144.18 214.67 73.5 214.08 73.5"/><polyline class="o" points="285.39 73.5 285.39 144.18 285.99 144.18 285.99 73.5 285.39 73.5"/><polyline class="o" points="356.7 73.5 356.7 144.18 357.3 144.18 357.3 73.5 356.7 73.5"/><polyline class="o" points="421.19 73.5 421.19 144.18 421.79 144.18 421.79 73.5 421.19 73.5"/><g class="ab"><g class="ac"><path d="M76.38,218.14h.25V203.28a1.1,1.1,0,0,0-.25-.77,1.23,1.23,0,0,0-.88-.25h-1v-.76h5v.76h-1a1.27,1.27,0,0,0-.82.25.91.91,0,0,0-.31.76V223h-.75l-9.55-18.84h-.26v17.07a.92.92,0,0,0,.32.76,1.25,1.25,0,0,0,.82.25h1V223h-5v-.76h1a1.22,1.22,0,0,0,.88-.25,1,1,0,0,0,.25-.76v-18a1,1,0,0,0-.25-.76,1.22,1.22,0,0,0-.88-.25h-.76v-.76h3.65Z" transform="translate(-35.82 -30.96)"/></g></g><g class="ad"><g class="ae"><path d="M151,201.5v.76h-.5a.94.94,0,0,0-.57.25,1.44,1.44,0,0,0-.44.88L146.08,223h-.75l-2-13.34h-.25L140.42,223h-.75l-3-19.76a1.31,1.31,0,0,0-.18-.76.67.67,0,0,0-.57-.25h-.5v-.76h4.4v.76h-.38a1,1,0,0,0-.76.25,1.07,1.07,0,0,0-.25.76l2,13.84h.26l2.13-10.45-.37-3.39a.92.92,0,0,0-.32-.76.94.94,0,0,0-.56-.25h-.38v-.76h4.27v.76h-.38a.82.82,0,0,0-.69.25,1.31,1.31,0,0,0-.19.76l1.89,13.46h.25l2.26-13.21a1,1,0,0,0-.19-1,1.13,1.13,0,0,0-.81-.31h-.38v-.76Z" transform="translate(-35.82 -30.96)"/></g></g><g class="af"><g class="ag"><path d="M210.48,216c0,2.26.44,3.88,1.32,4.84a4.44,4.44,0,0,0,3.45,1.45,4.19,4.19,0,0,0,2.77-.94,5.46,5.46,0,0,0,1.63-2.33l.63.25a6.17,6.17,0,0,1-1.7,2.71,4.83,4.83,0,0,1-3.58,1.32,6.24,6.24,0,0,1-4.71-1.89,7.46,7.46,0,0,1-1.82-5.41,7.58,7.58,0,0,1,1.82-5.22,5.69,5.69,0,0,1,4.46-2.08,6,6,0,0,1,4.15,1.63c1.17,1.1,1.76,3,1.76,5.67Zm8-.76a6.54,6.54,0,0,0-.94-4.21,3.35,3.35,0,0,0-2.83-1.45,3.74,3.74,0,0,0-3.08,1.51,6.5,6.5,0,0,0-1.19,4.15Z" transform="translate(-35.82 -30.96)"/></g></g><g class="ah"><g class="ai"><path d="M278.77,202.26v-.76h12.32l1.38,4.28-.63.26a9.35,9.35,0,0,0-2.14-2.84,3.81,3.81,0,0,0-2.51-.94h-3.52a1.25,1.25,0,0,0-.82.25.91.91,0,0,0-.31.76v7.8h3.64a2.36,2.36,0,0,0,1.83-.63,2.79,2.79,0,0,0,.56-1.89v-.75h.76v7.42h-.76v-.5a3.56,3.56,0,0,0-.56-2.14,2.15,2.15,0,0,0-1.83-.75h-3.64v9.43a.91.91,0,0,0,.31.76,1.25,1.25,0,0,0,.82.25h3.27a4.87,4.87,0,0,0,3.2-1.07,7,7,0,0,0,2.08-3.33l.62.25L291.46,223H278.64v-.76h.76a1.22,1.22,0,0,0,.88-.25,1,1,0,0,0,.25-.76v-18a1,1,0,0,0-.25-.76,1.22,1.22,0,0,0-.88-.25Z" transform="translate(-35.82 -30.96)"/></g></g><g class="aj"><g class="ak"><path d="M359.63,220.38a5,5,0,0,1,2.77,1.07,2.89,2.89,0,0,1,.87,2.21,3.55,3.55,0,0,1-1.57,3,8.61,8.61,0,0,1-5,1.13,7.67,7.67,0,0,1-4.27-1.07,3,3,0,0,1-1.64-2.45,3,3,0,0,1,.63-1.77,4.18,4.18,0,0,1,2-1.38,4.35,4.35,0,0,1-1.19-.82,1.43,1.43,0,0,1-.44-1.07,2,2,0,0,1,.5-1.32,4.16,4.16,0,0,1,1.26-.94,6.89,6.89,0,0,1-1.32-1.51,3.43,3.43,0,0,1-.57-1.89,4.74,4.74,0,0,1,5-4.79,7.45,7.45,0,0,1,1.95.26,3.42,3.42,0,0,1,1.57.88,9.5,9.5,0,0,1,1.57-.95,3,3,0,0,1,1.19-.31.94.94,0,0,1,.88.44,1.64,1.64,0,0,1,.25.82,1.66,1.66,0,0,1-.18.82.75.75,0,0,1-.7.31,1,1,0,0,1-.62-.19,1,1,0,0,1-.38-.57.46.46,0,0,0-.57-.31,2.14,2.14,0,0,0-.94.44,3.15,3.15,0,0,1,.76,1.39,6.62,6.62,0,0,1,.25,1.76,4.6,4.6,0,0,1-1.2,2.95,5.6,5.6,0,0,1-5.21,1.26,3.55,3.55,0,0,1-1-.44,2,2,0,0,0-.75.63,1.19,1.19,0,0,0-.25.63.89.89,0,0,0,1,1l3,.44Zm-5.15,1a3.45,3.45,0,0,0-1.57,1.2,3,3,0,0,0-.44,1.7,2.42,2.42,0,0,0,1.13,1.88,5.43,5.43,0,0,0,3.39.89,7,7,0,0,0,3.39-.7,2.23,2.23,0,0,0,1.26-2.07,2.63,2.63,0,0,0-.31-1.39,1.43,1.43,0,0,0-.95-.63c-.83-.17-1.75-.33-2.76-.5S355.57,221.56,354.48,221.39Zm-1-7.8a4,4,0,0,0,.88,2.58,2.94,2.94,0,0,0,2.39,1.07,3.07,3.07,0,0,0,2.45-1,4,4,0,0,0,.82-2.7,4.29,4.29,0,0,0-.94-3.09,3.17,3.17,0,0,0-2.33-.94,3.13,3.13,0,0,0-2.32.94A4.25,4.25,0,0,0,353.47,213.59Z" transform="translate(-35.82 -30.96)"/></g></g><g class="al"><g class="am"><path d="M419.76,203.27a1,1,0,0,0-.25-.76,1.22,1.22,0,0,0-.88-.25h-.75v-.76h5.65a8,8,0,0,1,6.22,2.52q2.33,2.52,2.33,7.81,0,5.79-2.27,8.49c-1.5,1.81-3.73,2.71-6.66,2.71h-5.4v-.76h.88a1.22,1.22,0,0,0,.88-.25,1,1,0,0,0,.25-.76Zm9.93,8.81q0-5.42-1.64-7.62a5.33,5.33,0,0,0-4.52-2.2,2.68,2.68,0,0,0-1.32.25.83.83,0,0,0-.44.76v18a.86.86,0,0,0,.38.76,1.74,1.74,0,0,0,1,.25,6,6,0,0,0,4.65-2.08C429.06,218.81,429.69,216.1,429.69,212.08Z" transform="translate(-35.82 -30.96)"/></g></g><polyline class="o" points="0 144.18 0 145.66 0.59 145.66 0.59 144.18 0 144.18"/><polyline class="o" points="0.59 144.18 0.59 144.77 71.31 144.77 71.31 144.18 0.59 144.18"/><polyline class="o" points="71.31 144.18 71.31 145.66 71.9 145.66 71.9 144.18 71.31 144.18"/><polyline class="o" points="71.9 144.18 71.9 144.77 142.77 144.77 142.77 144.18 71.9 144.18"/><polyline class="o" points="142.77 144.18 142.77 145.66 143.36 145.66 143.36 144.18 142.77 144.18"/><polyline class="o" points="143.36 144.18 143.36 144.77 214.08 144.77 214.08 144.18 143.36 144.18"/><polyline class="o" points="214.08 144.18 214.08 145.66 214.67 145.66 214.67 144.18 214.08 144.18"/><polyline class="o" points="214.67 144.18 214.67 144.77 285.39 144.77 285.39 144.18 214.67 144.18"/><polyline class="o" points="285.39 144.18 285.39 145.66 285.99 145.66 285.99 144.18 285.39 144.18"/><polyline class="o" points="285.99 144.18 285.99 144.77 356.7 144.77 356.7 144.18 285.99 144.18"/><polyline class="o" points="356.7 144.18 356.7 145.66 357.3 145.66 357.3 144.18 356.7 144.18"/><polyline class="o" points="357.3 144.18 357.3 144.77 421.19 144.77 421.19 144.18 357.3 144.18"/><polyline class="o" points="421.19 144.18 421.19 145.66 421.79 145.66 421.79 144.18 421.19 144.18"/><polyline class="o" points="0 145.66 0 216.19 0.59 216.19 0.59 145.66 0 145.66"/><polyline class="o" points="71.31 145.66 71.31 216.19 71.9 216.19 71.9 145.66 71.31 145.66"/><polyline class="o" points="142.77 145.66 142.77 216.19 143.36 216.19 143.36 145.66 142.77 145.66"/><polyline class="o" points="214.08 145.66 214.08 216.19 214.67 216.19 214.67 145.66 214.08 145.66"/><polyline class="o" points="285.39 145.66 285.39 216.19 285.99 216.19 285.99 145.66 285.39 145.66"/><polyline class="o" points="356.7 145.66 356.7 216.19 357.3 216.19 357.3 145.66 356.7 145.66"/><polyline class="o" points="421.19 145.66 421.19 216.19 421.79 216.19 421.79 145.66 421.19 145.66"/><g class="an"><g class="ao"><path d="M71.85,294.3A4.48,4.48,0,0,0,75.06,293a4.17,4.17,0,0,0,1.32-3.15v-14.6a1,1,0,0,0-.26-.75,1.22,1.22,0,0,0-.88-.26h-.75v-.75H79v.75h-.75a1.26,1.26,0,0,0-.82.26.91.91,0,0,0-.31.75v14.6a5,5,0,0,1-1.7,4,5.76,5.76,0,0,1-3.83,1.44,6.46,6.46,0,0,1-4-1.26,4.67,4.67,0,0,1-1.7-4V275.29a1,1,0,0,0-.25-.75,1.22,1.22,0,0,0-.88-.26h-.63v-.75h5.53v.75h-.62a1.26,1.26,0,0,0-.82.26.91.91,0,0,0-.31.75V290c0,1.68.35,2.81,1.06,3.4A4.35,4.35,0,0,0,71.85,294.3Z" transform="translate(-35.82 -30.96)"/></g></g><g class="ap"><g class="aq"><path d="M147.08,275.79a1.38,1.38,0,0,0-.18-1.13,1.52,1.52,0,0,0-1.2-.38h-.25v-.75h4.9v.75H150a1.7,1.7,0,0,0-1.14.44,3.89,3.89,0,0,0-.88,1.33L144.07,286v7.3a.88.88,0,0,0,.31.75,1.26,1.26,0,0,0,.82.26h1.13v.75H139.8v-.75h1.13a1.22,1.22,0,0,0,.88-.26,1,1,0,0,0,.25-.75v-6.55l-4.27-11.07a3,3,0,0,0-.63-1,1.37,1.37,0,0,0-1-.38h-.25v-.75h5.53v.75h-.75c-.51,0-.8.13-.88.38a1.84,1.84,0,0,0,.12,1.13l3.39,9.32h.26Z" transform="translate(-35.82 -30.96)"/></g></g><g class="ar"><g class="as"><path d="M211.48,293.29a.89.89,0,0,0,.32.75,1.23,1.23,0,0,0,.81.26H216a4.51,4.51,0,0,0,3-1.07,6.59,6.59,0,0,0,1.89-3.34l.63.25-1.14,4.91H207.46v-.75h.88a1.22,1.22,0,0,0,.88-.26,1,1,0,0,0,.25-.75v-18a1,1,0,0,0-.25-.75,1.22,1.22,0,0,0-.88-.26h-.75v-.75h5.9v.75h-.88a1.23,1.23,0,0,0-.81.26.91.91,0,0,0-.32.75Z" transform="translate(-35.82 -30.96)"/></g></g><g class="at"><g class="au"><path d="M286.56,283.4l4.4,9.51a2.73,2.73,0,0,0,.82,1.07,1.57,1.57,0,0,0,.94.32h.38v.75h-5.41v-.75h.51c.41,0,.67-.07.75-.19a.81.81,0,0,0,.13-.44,1.2,1.2,0,0,0-.13-.51l-3.39-7.41-2.89,6c-.17.42-.3.75-.38,1a2,2,0,0,0-.25.63.74.74,0,0,0,.31.69,1.63,1.63,0,0,0,.82.19h.25v.75h-4.78v-.75h.51a1.85,1.85,0,0,0,1.13-.38A2.6,2.6,0,0,0,281,293l4-8.49-4.27-9.38a1.27,1.27,0,0,0-.44-.63,1.26,1.26,0,0,0-.82-.26H279v-.75h5.15v.75h-.37c-.51,0-.8.13-.88.38a1.84,1.84,0,0,0,.12,1.13l3,6.64,3-6.38a2.23,2.23,0,0,0,.25-1.33c-.09-.29-.38-.44-.88-.44h-.76v-.75h4.9v.75h-.75a1.22,1.22,0,0,0-.63.26,3.31,3.31,0,0,0-.75.75Z" transform="translate(-35.82 -30.96)"/></g></g><g class="av"><g class="aw"><path d="M364.28,284.23c0,3.44-.67,6.15-2,8.11a5.92,5.92,0,0,1-5,3c-1.93,0-3.58-1-5-3a14,14,0,0,1-2.07-8,14.39,14.39,0,0,1,1.94-7.93,5.85,5.85,0,0,1,5.09-3,5.77,5.77,0,0,1,5.16,3.21A15.09,15.09,0,0,1,364.28,284.23Zm-11.69,0q0,5.41,1.32,7.86t3.33,2.46a3.8,3.8,0,0,0,3.4-2.33c.83-1.55,1.25-4.22,1.25-8a20.47,20.47,0,0,0-1.07-7.3q-1.06-2.78-3.58-2.77c-1.42,0-2.55.84-3.39,2.51S352.59,280.87,352.59,284.23Z" transform="translate(-35.82 -30.96)"/></g></g><g class="ax"><g class="ay"><path d="M420.14,274.28v-.75h10.05v.75H427.3a1.26,1.26,0,0,0-.82.26.91.91,0,0,0-.31.75v18a.88.88,0,0,0,.31.75,1.26,1.26,0,0,0,.82.26h2.89v.75H420.14v-.75H423a1.22,1.22,0,0,0,.88-.26,1,1,0,0,0,.25-.75v-18a1.06,1.06,0,0,0-.25-.75,1.22,1.22,0,0,0-.88-.26Z" transform="translate(-35.82 -30.96)"/></g></g><polyline class="o" points="0 216.19 0 217.68 0.59 217.68 0.59 216.19 0 216.19"/><polyline class="o" points="0.59 216.19 0.59 216.79 71.31 216.79 71.31 216.19 0.59 216.19"/><polyline class="o" points="71.31 216.19 71.31 217.68 71.9 217.68 71.9 216.19 71.31 216.19"/><polyline class="o" points="71.9 216.19 71.9 216.79 142.77 216.79 142.77 216.19 71.9 216.19"/><polyline class="o" points="142.77 216.19 142.77 217.68 143.36 217.68 143.36 216.19 142.77 216.19"/><polyline class="o" points="143.36 216.19 143.36 216.79 214.08 216.79 214.08 216.19 143.36 216.19"/><polyline class="o" points="214.08 216.19 214.08 217.68 214.67 217.68 214.67 216.19 214.08 216.19"/><polyline class="o" points="214.67 216.19 214.67 216.79 285.39 216.79 285.39 216.19 214.67 216.19"/><polyline class="o" points="285.39 216.19 285.39 217.68 285.99 217.68 285.99 216.19 285.39 216.19"/><polyline class="o" points="285.99 216.19 285.99 216.79 356.7 216.79 356.7 216.19 285.99 216.19"/><polyline class="o" points="356.7 216.19 356.7 217.68 357.3 217.68 357.3 216.19 356.7 216.19"/><polyline class="o" points="357.3 216.19 357.3 216.79 421.19 216.79 421.19 216.19 357.3 216.19"/><polyline class="o" points="421.19 216.19 421.19 217.68 421.79 217.68 421.79 216.19 421.19 216.19"/><polyline class="o" points="0 217.68 0 288.36 0.59 288.36 0.59 217.68 0 217.68"/><polyline class="o" points="71.31 217.68 71.31 288.36 71.9 288.36 71.9 217.68 71.31 217.68"/><polyline class="o" points="142.77 217.68 142.77 288.36 143.36 288.36 143.36 217.68 142.77 217.68"/><polyline class="o" points="214.08 217.68 214.08 288.36 214.67 288.36 214.67 217.68 214.08 217.68"/><polyline class="o" points="285.39 217.68 285.39 288.36 285.99 288.36 285.99 217.68 285.39 217.68"/><polyline class="o" points="356.7 217.68 356.7 288.36 357.3 288.36 357.3 217.68 356.7 217.68"/><polyline class="o" points="421.19 217.68 421.19 288.36 421.79 288.36 421.79 217.68 421.19 217.68"/><g class="az"><g class="ba"><path d="M74.49,356.51a.68.68,0,0,1,.13-.5,2.31,2.31,0,0,1,.12-.51,1.39,1.39,0,0,0-.5-1.19,2.79,2.79,0,0,0-2.14-.69,3.88,3.88,0,0,0-3.2,1.82,8.1,8.1,0,0,0-1.32,4.85,8,8,0,0,0,1.13,4.47,4.19,4.19,0,0,0,3.77,1.7,4.1,4.1,0,0,0,3-1.14,6.33,6.33,0,0,0,1.7-2.64l.63.25a6.81,6.81,0,0,1-1.89,3.21,5.23,5.23,0,0,1-3.77,1.32,6.19,6.19,0,0,1-4.77-1.89,7.6,7.6,0,0,1-1.76-5.41,7.5,7.5,0,0,1,1.88-5.22,6.3,6.3,0,0,1,4.9-2.08A4.61,4.61,0,0,1,75.68,354a3.17,3.17,0,0,1,1.2,2.26,1.49,1.49,0,0,1-.32,1.07,1.27,1.27,0,0,1-.94.31,1.12,1.12,0,0,1-.82-.31A1.1,1.1,0,0,1,74.49,356.51Z" transform="translate(-35.82 -30.96)"/></g></g><g class="bb"><g class="bc"><path d="M143.31,346.32q-1.87,0-3.45,2.58t-1.57,7.86a18.52,18.52,0,0,0,1.19,6.67q1.2,3.15,4,3.15a3.8,3.8,0,0,0,2.2-.57,2.23,2.23,0,0,0,.94-1.69V360a1.32,1.32,0,0,0-1.51-1.51h-.75v-.76h6.28v.76H150a1.35,1.35,0,0,0-1,.37,1.39,1.39,0,0,0-.38,1v6.29l-.44-.19a1.42,1.42,0,0,0-.44-.06,2.14,2.14,0,0,0-.5.06,1.12,1.12,0,0,0-.5.32,4.58,4.58,0,0,1-1.57.88,6.18,6.18,0,0,1-1.83.25,5.83,5.83,0,0,1-5.52-3.33,15.49,15.49,0,0,1-1.76-7.37,14.87,14.87,0,0,1,2.07-8q2.07-3.33,5.21-3.33a5.09,5.09,0,0,1,1.76.37,5,5,0,0,0,1.26.38,1.61,1.61,0,0,0,.75-.19,1.54,1.54,0,0,0,.63-.56l1,5.66-.76.25a9.38,9.38,0,0,0-1.88-3.84A3.68,3.68,0,0,0,143.31,346.32Z" transform="translate(-35.82 -30.96)"/></g></g><g class="bd"><g class="be"><path d="M212.61,367.34a5.29,5.29,0,0,1-3.52-1.07,3.19,3.19,0,0,1-1.25-2.46,4.42,4.42,0,0,1,1.94-3.71c1.3-1,3.88-1.66,7.73-2.08v-1.51a3.51,3.51,0,0,0-.56-2.07c-.38-.55-1.24-.82-2.58-.82a5,5,0,0,0-3,.69c-.59.46-.8.94-.63,1.45a1.15,1.15,0,0,1,.12.5,1.42,1.42,0,0,1-.19.63c-.12.25-.44.38-.94.38a1.08,1.08,0,0,1-.81-.32,1.23,1.23,0,0,1-.32-.94c0-.76.54-1.47,1.63-2.14a7.55,7.55,0,0,1,4-1,6.25,6.25,0,0,1,3.77.95,3.19,3.19,0,0,1,1.25,2.7v8.31a2.16,2.16,0,0,0,.19,1.19,1,1,0,0,0,.69.19.9.9,0,0,0,.88-.56,4,4,0,0,0,.25-1.58h.63a3.68,3.68,0,0,1-.63,2.46,2.1,2.1,0,0,1-1.63.69,2.24,2.24,0,0,1-1.38-.38,2.28,2.28,0,0,1-.76-1.26,12.4,12.4,0,0,1-2.32,1.33A6.82,6.82,0,0,1,212.61,367.34ZM210,363.43a3.44,3.44,0,0,0,.69,2.08,2.55,2.55,0,0,0,2.2.95,6.12,6.12,0,0,0,2.27-.45,11,11,0,0,0,2.38-1.32v-5.91q-4.27.5-5.9,1.7A3.56,3.56,0,0,0,210,363.43Z" transform="translate(-35.82 -30.96)"/></g></g><g class="bf"><g class="bg"><path d="M286.81,366.46a4.12,4.12,0,0,0,2.83-1.07,7.65,7.65,0,0,0,1.95-3.21l.75.12L291,367.21H278.9L290,346.44h-4.4a5,5,0,0,0-3,.95,8,8,0,0,0-2.32,2.83l-.76-.25,1.51-4.28h11.44l-11.06,20.77Z" transform="translate(-35.82 -30.96)"/></g></g><g class="bh"><g class="bi"><path d="M361.77,362.32H362V347.46a1.07,1.07,0,0,0-.25-.76,1.22,1.22,0,0,0-.88-.26h-1v-.75h5v.75h-1a1.28,1.28,0,0,0-.81.25.93.93,0,0,0-.32.76v19.76H362l-9.55-18.84h-.25v17.07a.91.91,0,0,0,.31.76,1.26,1.26,0,0,0,.82.26h1v.75h-5v-.75h1a1.22,1.22,0,0,0,.88-.26,1,1,0,0,0,.25-.75v-18a1,1,0,0,0-.25-.76,1.27,1.27,0,0,0-.88-.25h-.75v-.75h3.64Z" transform="translate(-35.82 -30.96)"/></g></g><g class="bj"><g class="bk"><path d="M422.78,351a4.78,4.78,0,0,1,1.63-4,6.3,6.3,0,0,1,6.85-.57,2.17,2.17,0,0,1,1.07,1.77,1.64,1.64,0,0,1-.25.88,1.15,1.15,0,0,1-1,.37,1.25,1.25,0,0,1-.82-.25,1.07,1.07,0,0,1-.31-.88.93.93,0,0,1,.13-.38v-.37a1,1,0,0,0-.38-.82,3.12,3.12,0,0,0-1.76-.32,3.31,3.31,0,0,0-2.45.95,4.45,4.45,0,0,0-.94,3.21v2.51h5.27v.76h-5.27v11.58a.89.89,0,0,0,.31.75,1.26,1.26,0,0,0,.82.26h3v.75h-9.17v-.75h2.14a1.19,1.19,0,0,0,.87-.26,1,1,0,0,0,.26-.75V353.87h-3.9v-.76h3.9Z" transform="translate(-35.82 -30.96)"/></g></g><polyline class="o" points="0 288.36 0 289.84 0.59 289.84 0.59 288.36 0 288.36"/><polyline class="o" points="0.59 288.36 0.59 288.95 71.31 288.95 71.31 288.36 0.59 288.36"/><polyline class="o" points="71.31 288.36 71.31 289.84 71.9 289.84 71.9 288.36 71.31 288.36"/><polyline class="o" points="71.9 288.36 71.9 288.95 142.77 288.95 142.77 288.36 71.9 288.36"/><polyline class="o" points="142.77 288.36 142.77 289.84 143.36 289.84 143.36 288.36 142.77 288.36"/><polyline class="o" points="143.36 288.36 143.36 288.95 214.08 288.95 214.08 288.36 143.36 288.36"/><polyline class="o" points="214.08 288.36 214.08 289.84 214.67 289.84 214.67 288.36 214.08 288.36"/><polyline class="o" points="214.67 288.36 214.67 288.95 285.39 288.95 285.39 288.36 214.67 288.36"/><polyline class="o" points="285.39 288.36 285.39 289.84 285.99 289.84 285.99 288.36 285.39 288.36"/><polyline class="o" points="285.99 288.36 285.99 288.95 356.7 288.95 356.7 288.36 285.99 288.36"/><polyline class="o" points="356.7 288.36 356.7 289.84 357.3 289.84 357.3 288.36 356.7 288.36"/><polyline class="o" points="357.3 288.36 357.3 288.95 421.19 288.95 421.19 288.36 357.3 288.36"/><polyline class="o" points="421.19 288.36 421.19 289.84 421.79 289.84 421.79 288.36 421.19 288.36"/><polyline class="o" points="0 289.84 0 360.37 0.59 360.37 0.59 289.84 0 289.84"/><polyline class="o" points="71.31 289.84 71.31 360.37 71.9 360.37 71.9 289.84 71.31 289.84"/><polyline class="o" points="142.77 289.84 142.77 360.37 143.36 360.37 143.36 289.84 142.77 289.84"/><polyline class="o" points="214.08 289.84 214.08 360.37 214.67 360.37 214.67 289.84 214.08 289.84"/><polyline class="o" points="285.39 289.84 285.39 360.37 285.99 360.37 285.99 289.84 285.39 289.84"/><polyline class="o" points="356.7 289.84 356.7 360.37 357.3 360.37 357.3 289.84 356.7 289.84"/><polyline class="o" points="421.19 289.84 421.19 360.37 421.79 360.37 421.79 289.84 421.19 289.84"/><g class="bl"><g class="bm"><path d="M66.32,419.46a1,1,0,0,0-.25-.75,1.22,1.22,0,0,0-.88-.25h-.75v-.76h5.65a8,8,0,0,1,6.22,2.52q2.32,2.52,2.33,7.8c0,3.86-.76,6.69-2.26,8.5s-3.73,2.7-6.67,2.7h-5.4v-.75h.88a1.22,1.22,0,0,0,.88-.25,1,1,0,0,0,.25-.76Zm9.93,8.81c0-3.6-.55-6.14-1.63-7.61a5.32,5.32,0,0,0-4.53-2.2,2.68,2.68,0,0,0-1.32.25.82.82,0,0,0-.44.75v18a.86.86,0,0,0,.38.76,1.74,1.74,0,0,0,1,.25,6,6,0,0,0,4.65-2.08Q76.25,434.32,76.25,428.27Z" transform="translate(-35.82 -30.96)"/></g></g><g class="bn"><g class="bo"><path d="M142.56,439.35a5.08,5.08,0,0,1-3.9-1.82,7.83,7.83,0,0,1-1.63-5.35,7.54,7.54,0,0,1,1.76-5.23,5.3,5.3,0,0,1,6.22-1.51,3.94,3.94,0,0,1,1.7,1.32V420a2.17,2.17,0,0,0-.25-1.14,1,1,0,0,0-.88-.37h-1v-.76H146a3.33,3.33,0,0,0,1.26-.25,5,5,0,0,0,1.26-.76v19.89a1.22,1.22,0,0,0,.25.88,1,1,0,0,0,.75.25h.88v.76h-.75a4.48,4.48,0,0,0-1.2.19,7.47,7.47,0,0,0-1.44.56h-.25v-2.39a5.07,5.07,0,0,1-1.7,1.83A4.41,4.41,0,0,1,142.56,439.35Zm4.15-11.5a3.47,3.47,0,0,0-1.64-1.43,5.35,5.35,0,0,0-2-.41,3.31,3.31,0,0,0-2.95,1.76,9,9,0,0,0-1.07,4.66,7.94,7.94,0,0,0,1,4.47,3.31,3.31,0,0,0,2.89,1.44,3.26,3.26,0,0,0,2.32-.88,5.75,5.75,0,0,0,1.45-2.66Z" transform="translate(-35.82 -30.96)"/></g></g><g class="bp"><g class="bq"><path d="M213.74,438.09a4.37,4.37,0,0,0,2.58-.75,4.43,4.43,0,0,0,1.57-2.4V427a1.25,1.25,0,0,0-.25-.82,1.07,1.07,0,0,0-.88-.32H216v-.75h.75a6.6,6.6,0,0,0,1.38-.13,2.88,2.88,0,0,0,1.26-.63h.25v12.34a.91.91,0,0,0,.31.75,1.27,1.27,0,0,0,.82.25h.76v.76h-.76a4.23,4.23,0,0,0-1.26.19,8.17,8.17,0,0,0-1.38.56h-.25v-2.64a4.39,4.39,0,0,1-1.88,2.08,5.94,5.94,0,0,1-2.89.69,3.84,3.84,0,0,1-3-1.13,5.43,5.43,0,0,1-1-3.65V427a1.25,1.25,0,0,0-.25-.82,1.07,1.07,0,0,0-.88-.32h-.75v-.75H208a6.7,6.7,0,0,0,1.39-.13,2.9,2.9,0,0,0,1.25-.63h.25v10.45a3.45,3.45,0,0,0,.76,2.52A2.88,2.88,0,0,0,213.74,438.09Z" transform="translate(-35.82 -30.96)"/></g></g><g class="br"><g class="bs"><path d="M286.44,439.48a6.77,6.77,0,0,1-5.6-2.65q-2.07-2.64-2.07-8.3a13.47,13.47,0,0,1,2.2-7.93,6.9,6.9,0,0,1,6-3.15,6.34,6.34,0,0,1,1.76.25,4,4,0,0,0,1.51.38A2.08,2.08,0,0,0,291,418a1.26,1.26,0,0,0,.57-.5l1.13,5.54-.76.25a8.94,8.94,0,0,0-2-3.65,4.42,4.42,0,0,0-3.27-1.26q-2.64,0-4.09,2.9a16,16,0,0,0-1.44,7.17,17.46,17.46,0,0,0,1.25,7.3,4.28,4.28,0,0,0,4.15,2.64A4.74,4.74,0,0,0,290,436.9a7.47,7.47,0,0,0,1.94-3.84l.76.37a8.87,8.87,0,0,1-2.33,4.35A5.43,5.43,0,0,1,286.44,439.48Z" transform="translate(-35.82 -30.96)"/></g></g><g class="bt"><g class="bu"><path d="M356.24,427.08a1.28,1.28,0,0,0-.25-.81,1.08,1.08,0,0,0-.88-.32l-2.64-.06v-.76l1.25,0a10.51,10.51,0,0,0,2.14-.16,6.31,6.31,0,0,0,1.89-.69H358v13.21a.91.91,0,0,0,.31.76,1.25,1.25,0,0,0,.82.25h2.64v.75h-9.3v-.75h2.64a1.23,1.23,0,0,0,.88-.25,1.06,1.06,0,0,0,.25-.75Zm1-9.63a1.67,1.67,0,0,1,1.13.44,1.37,1.37,0,0,1,.51,1.07,1.75,1.75,0,0,1-1.64,1.64,1.73,1.73,0,0,1-1.63-1.64,1.39,1.39,0,0,1,.5-1.07A1.69,1.69,0,0,1,357.24,417.45Z" transform="translate(-35.82 -30.96)"/></g></g><g class="bv"><g class="bw"><path d="M425.92,427.57l4.4,9.51a2.74,2.74,0,0,0,.81,1.07,1.62,1.62,0,0,0,.95.32h.37v.75h-5.4v-.75h.5c.42,0,.67-.06.76-.19a.81.81,0,0,0,.12-.44,1.11,1.11,0,0,0-.12-.5l-3.4-7.42L422,436c-.17.42-.29.76-.37,1a2.14,2.14,0,0,0-.26.63.75.75,0,0,0,.32.69,1.52,1.52,0,0,0,.81.19h.26v.75H418v-.75h.5a1.83,1.83,0,0,0,1.13-.38,2.44,2.44,0,0,0,.76-.88l4-8.49-4.27-9.38a1.39,1.39,0,0,0-.44-.63,1.27,1.27,0,0,0-.82-.25h-.5v-.76h5.15v.76h-.38c-.5,0-.79.12-.88.37a2,2,0,0,0,.13,1.14l3,6.63,3-6.38a2.13,2.13,0,0,0,.25-1.32c-.08-.3-.37-.44-.88-.44h-.75v-.76H432v.76h-.75a1.19,1.19,0,0,0-.63.25,3.55,3.55,0,0,0-.76.75Z" transform="translate(-35.82 -30.96)"/></g></g><polyline class="o" points="0 360.37 0 361.86 0.59 361.86 0.59 360.37 0 360.37"/><polyline class="o" points="0.59 360.37 0.59 360.96 71.31 360.96 71.31 360.37 0.59 360.37"/><polyline class="o" points="71.31 360.37 71.31 361.86 71.9 361.86 71.9 360.37 71.31 360.37"/><polyline class="o" points="71.9 360.37 71.9 360.96 142.77 360.96 142.77 360.37 71.9 360.37"/><polyline class="o" points="142.77 360.37 142.77 361.86 143.36 361.86 143.36 360.37 142.77 360.37"/><polyline class="o" points="143.36 360.37 143.36 360.96 214.08 360.96 214.08 360.37 143.36 360.37"/><polyline class="o" points="214.08 360.37 214.08 361.86 214.67 361.86 214.67 360.37 214.08 360.37"/><polyline class="o" points="214.67 360.37 214.67 360.96 285.39 360.96 285.39 360.37 214.67 360.37"/><polyline class="o" points="285.39 360.37 285.39 361.86 285.99 361.86 285.99 360.37 285.39 360.37"/><polyline class="o" points="285.99 360.37 285.99 360.96 356.7 360.96 356.7 360.37 285.99 360.37"/><polyline class="o" points="356.7 360.37 356.7 361.86 357.3 361.86 357.3 360.37 356.7 360.37"/><polyline class="o" points="357.3 360.37 357.3 360.96 421.19 360.96 421.19 360.37 357.3 360.37"/><polyline class="o" points="421.19 360.37 421.19 361.86 421.79 361.86 421.79 360.37 421.19 360.37"/><polyline class="o" points="0 361.86 0 432.53 0.59 432.53 0.59 361.86 0 361.86"/><polyline class="o" points="0 432.53 0 433.13 0.59 433.13 0.59 432.53 0 432.53"/><polyline class="o" points="0 432.53 0 433.13 0.59 433.13 0.59 432.53 0 432.53"/><polyline class="o" points="0.59 432.53 0.59 433.13 71.31 433.13 71.31 432.53 0.59 432.53"/><polyline class="o" points="71.31 361.86 71.31 432.53 71.9 432.53 71.9 361.86 71.31 361.86"/><polyline class="o" points="71.31 432.53 71.31 433.13 71.9 433.13 71.9 432.53 71.31 432.53"/><polyline class="o" points="71.9 432.53 71.9 433.13 142.77 433.13 142.77 432.53 71.9 432.53"/><polyline class="o" points="142.77 361.86 142.77 432.53 143.36 432.53 143.36 361.86 142.77 361.86"/><polyline class="o" points="142.77 432.53 142.77 433.13 143.36 433.13 143.36 432.53 142.77 432.53"/><polyline class="o" points="143.36 432.53 143.36 433.13 214.08 433.13 214.08 432.53 143.36 432.53"/><polyline class="o" points="214.08 361.86 214.08 432.53 214.67 432.53 214.67 361.86 214.08 361.86"/><polyline class="o" points="214.08 432.53 214.08 433.13 214.67 433.13 214.67 432.53 214.08 432.53"/><polyline class="o" points="214.67 432.53 214.67 433.13 285.39 433.13 285.39 432.53 214.67 432.53"/><polyline class="o" points="285.39 361.86 285.39 432.53 285.99 432.53 285.99 361.86 285.39 361.86"/><polyline class="o" points="285.39 432.53 285.39 433.13 285.99 433.13 285.99 432.53 285.39 432.53"/><polyline class="o" points="285.99 432.53 285.99 433.13 356.7 433.13 356.7 432.53 285.99 432.53"/><polyline class="o" points="356.7 361.86 356.7 432.53 357.3 432.53 357.3 361.86 356.7 361.86"/><polyline class="o" points="356.7 432.53 356.7 433.13 357.3 433.13 357.3 432.53 356.7 432.53"/><polyline class="o" points="357.3 432.53 357.3 433.13 421.19 433.13 421.19 432.53 357.3 432.53"/><polyline class="o" points="421.19 361.86 421.19 432.53 421.79 432.53 421.79 361.86 421.19 361.86"/><polyline class="o" points="421.19 432.53 421.19 433.13 421.79 433.13 421.79 432.53 421.19 432.53"/><polyline class="o" points="421.19 432.53 421.19 433.13 421.79 433.13 421.79 432.53 421.19 432.53"/></svg>