<svg id="_1" data-name="1" xmlns="http://www.w3.org/2000/svg" viewBox="0 0 381.26 378.52"><defs><style>.cls-1{fill:#ed1c24;}.cls-2{fill:#f7931e;}.cls-3{fill:#009245;}.cls-4{fill:blue;}.cls-5{fill:#fff;}.cls-6{fill:#fcee21;}</style></defs><title>x6s</title><polygon class="cls-1" points="204 346.39 189.26 355.86 174.52 346.39 174.52 208.44 189.26 197.19 204 208.44 204 346.39"/><polygon class="cls-2" points="29.48 346.39 14.74 355.86 0 346.39 0 208.44 14.74 197.19 29.48 208.44 29.48 346.39"/><polygon class="cls-3" points="381.26 346.39 366.52 355.86 351.78 346.39 351.78 208.44 366.52 197.19 381.26 208.44 381.26 346.39"/><polygon class="cls-3" points="381.26 174.22 366.52 183.69 351.78 174.22 351.78 36.26 366.52 25.01 381.26 36.26 381.26 174.22"/><polygon class="cls-2" points="29.48 172.26 14.74 181.73 0 172.26 0 34.3 14.74 23.05 29.48 34.3 29.48 172.26"/><polygon class="cls-1" points="204 174.22 189.26 183.69 174.52 174.22 174.52 36.26 189.26 25.01 204 36.26 204 174.22"/><polygon class="cls-4" points="32.2 205.17 22.73 190.44 32.2 175.7 170.15 175.7 181.4 190.44 170.15 205.17 32.2 205.17"/><polygon class="cls-5" points="32.2 378.52 22.73 363.78 32.2 349.04 170.15 349.04 181.4 363.78 170.15 378.52 32.2 378.52"/><polygon class="cls-5" points="206.13 378.52 196.66 363.78 206.13 349.04 344.09 349.04 355.34 363.78 344.09 378.52 206.13 378.52"/><polygon class="cls-4" points="206.13 205.17 196.66 190.44 206.13 175.7 344.09 175.7 355.34 190.44 344.09 205.17 206.13 205.17"/><polygon class="cls-6" points="209.26 29.48 199.79 14.74 209.26 0 347.22 0 358.47 14.74 347.22 29.48 209.26 29.48"/><polygon class="cls-6" points="32.2 29.48 22.73 14.74 32.2 0 170.15 0 181.4 14.74 170.15 29.48 32.2 29.48"/></svg>