<svg xmlns="http://www.w3.org/2000/svg" viewBox="0 0 435.4 342.26"><defs><style>.a{fill:#178e0e;}.b{fill:#f6f312;}.c{fill:#161fde;}.d{fill:#e59538;}.e{fill:#fff;}</style></defs><title>QUE</title><circle class="a" cx="24.78" cy="24.78" r="24.78"/><circle class="b" cx="24.78" cy="112.04" r="24.78"/><circle class="b" cx="24.78" cy="180.52" r="24.78"/><circle class="b" cx="24.78" cy="249" r="24.78"/><circle class="b" cx="24.78" cy="317.48" r="24.78"/><path class="a" d="M131.61,208.17a24.78,24.78,0,0,1,0-49.56" transform="translate(-36.91 -71.35)"/><circle class="a" cx="94.7" cy="180.52" r="24.78"/><circle class="a" cx="94.7" cy="249" r="24.78"/><circle class="c" cx="164.61" cy="112.04" r="24.78"/><circle class="c" cx="164.61" cy="180.52" r="24.78"/><circle class="c" cx="164.61" cy="249" r="24.78"/><path class="d" d="M271.43,208.17a24.78,24.78,0,0,1,0-49.56" transform="translate(-36.91 -71.35)"/><circle class="d" cx="234.52" cy="180.52" r="24.78"/><circle class="d" cx="234.52" cy="249" r="24.78"/><circle class="e" cx="304.43" cy="112.04" r="24.78"/><circle class="e" cx="304.43" cy="180.52" r="24.78"/><circle class="e" cx="304.43" cy="249" r="24.78"/><circle class="a" cx="94.7" cy="317.48" r="24.78"/><path d="M117.84,90.35a3.4,3.4,0,0,1-3.45-3.46v-.58a3.37,3.37,0,0,1,1-2.43,3.29,3.29,0,0,1,2.46-1h25a3.5,3.5,0,0,1,3.45,3.46v.58a3.29,3.29,0,0,1-1,2.46,3.37,3.37,0,0,1-2.43,1Zm0,16.17a3.32,3.32,0,0,1-2.46-1,3.4,3.4,0,0,1-1-2.43v-.59a3.34,3.34,0,0,1,1-2.46,3.38,3.38,0,0,1,2.46-1h25a3.41,3.41,0,0,1,2.43,1,3.29,3.29,0,0,1,1,2.46v.59a3.48,3.48,0,0,1-3.45,3.45Z" transform="translate(-36.91 -71.35)"/><path d="M156.69,117.3a3.29,3.29,0,0,1-2.46-1,3.39,3.39,0,0,1-1-2.43v-1.7a3.35,3.35,0,0,1,1-2.46,3.31,3.31,0,0,1,2.46-1h5.57a.41.41,0,0,0,.47-.47V83.73a.42.42,0,0,0-.47-.47h-4.45a3.23,3.23,0,0,1-2.38-1,3.15,3.15,0,0,1-1-2.31,3.89,3.89,0,0,1,.9-2.52A4.24,4.24,0,0,1,157.69,76a30.25,30.25,0,0,0,4.8-1.7A15.71,15.71,0,0,1,169,72.66h.93a3.48,3.48,0,0,1,3.46,3.45v32.11c0,.32.14.47.41.47H178a3.42,3.42,0,0,1,3.46,3.46v1.7a3.35,3.35,0,0,1-1,2.43,3.29,3.29,0,0,1-2.46,1Z" transform="translate(-36.91 -71.35)"/><path d="M395.67,176.44a3.42,3.42,0,0,1-3.46-3.46v-.58a3.38,3.38,0,0,1,1-2.44,3.29,3.29,0,0,1,2.46-1h25a3.5,3.5,0,0,1,3.46,3.46V173a3.26,3.26,0,0,1-1,2.46,3.34,3.34,0,0,1-2.43,1Zm0,16.17a3.26,3.26,0,0,1-2.46-1,3.34,3.34,0,0,1-1-2.43v-.58a3.42,3.42,0,0,1,3.46-3.46h25a3.34,3.34,0,0,1,2.43,1,3.26,3.26,0,0,1,1,2.46v.58a3.52,3.52,0,0,1-3.46,3.46Z" transform="translate(-36.91 -71.35)"/><path d="M461.06,184.17q-1.57,3.29-3.93,3.28h-2.57a3.51,3.51,0,0,1-2.58-1,2.39,2.39,0,0,1-.7-1.64,2.64,2.64,0,0,1,.11-.76,9.49,9.49,0,0,1,1.82-3.26,16.53,16.53,0,0,1,2.78-2.66l2.9-2.17a11.79,11.79,0,0,0,2.32-2.23,4,4,0,0,0,.91-2.46,4,4,0,0,0-1.82-3.6,8.82,8.82,0,0,0-4.92-1.2,10.17,10.17,0,0,0-6.1,2,4.17,4.17,0,0,1-2.57.88h-.12a3.58,3.58,0,0,1-2.35-.88l-.82-.7a3.43,3.43,0,0,1-1.11-2.58,3,3,0,0,1,1-2.29,19.57,19.57,0,0,1,13.3-5q7,0,11.34,3.16t4.36,9.32a7.65,7.65,0,0,1-.91,3.72,10.1,10.1,0,0,1-2.34,2.9,35.36,35.36,0,0,1-3,2.28,30.79,30.79,0,0,0-3,2.35A8.55,8.55,0,0,0,461.06,184.17Zm-12.36,13.3a6.13,6.13,0,0,1,2-4.71,7.94,7.94,0,0,1,10.19,0,6.14,6.14,0,0,1,2,4.71,6.24,6.24,0,0,1-2,4.75,7.88,7.88,0,0,1-10.19,0A6.23,6.23,0,0,1,448.7,197.47Z" transform="translate(-36.91 -71.35)"/><path d="M395.67,243.74a3.4,3.4,0,0,1-3.46-3.45v-.59a3.34,3.34,0,0,1,1-2.43,3.26,3.26,0,0,1,2.46-1h25a3.52,3.52,0,0,1,3.46,3.46v.59a3.29,3.29,0,0,1-1,2.46,3.37,3.37,0,0,1-2.43,1Zm0,16.17a3.29,3.29,0,0,1-2.46-1,3.35,3.35,0,0,1-1-2.43v-.59a3.42,3.42,0,0,1,3.46-3.46h25a3.38,3.38,0,0,1,2.43,1,3.29,3.29,0,0,1,1,2.46v.59a3.5,3.5,0,0,1-3.46,3.45Z" transform="translate(-36.91 -71.35)"/><path d="M461.06,251.48q-1.57,3.28-3.92,3.28h-2.58A3.48,3.48,0,0,1,452,253.7a2.35,2.35,0,0,1-.7-1.64,2.73,2.73,0,0,1,.11-.76,9.62,9.62,0,0,1,1.82-3.25,16.6,16.6,0,0,1,2.78-2.67l2.9-2.16a12.39,12.39,0,0,0,2.32-2.23,4,4,0,0,0,.91-2.46,4.06,4.06,0,0,0-1.82-3.61,8.82,8.82,0,0,0-4.92-1.2,10.18,10.18,0,0,0-6.1,2,4.22,4.22,0,0,1-2.57.87h-.12a3.58,3.58,0,0,1-2.34-.87l-.83-.71a3.41,3.41,0,0,1-1.11-2.58,3,3,0,0,1,1-2.28,19.54,19.54,0,0,1,13.3-5q7,0,11.34,3.16t4.36,9.32a7.59,7.59,0,0,1-.91,3.72,10.1,10.1,0,0,1-2.34,2.9c-1,.82-1.94,1.58-3,2.29a29.19,29.19,0,0,0-3,2.34A8.58,8.58,0,0,0,461.06,251.48Zm-12.36,13.3a6.13,6.13,0,0,1,2-4.72,8,8,0,0,1,10.2,0,6.17,6.17,0,0,1,2,4.72,6.26,6.26,0,0,1-2,4.74,7.86,7.86,0,0,1-10.2,0A6.22,6.22,0,0,1,448.7,264.78Z" transform="translate(-36.91 -71.35)"/><path d="M395.67,310.66a3.35,3.35,0,0,1-2.46-1,3.31,3.31,0,0,1-1-2.46v-.59a3.35,3.35,0,0,1,1-2.43,3.29,3.29,0,0,1,2.46-1h25a3.5,3.5,0,0,1,3.46,3.45v.59a3.26,3.26,0,0,1-1,2.46,3.38,3.38,0,0,1-2.43,1Zm0,16.17a3.26,3.26,0,0,1-2.46-1,3.34,3.34,0,0,1-1-2.43v-.59a3.4,3.4,0,0,1,3.46-3.45h25a3.37,3.37,0,0,1,2.43,1,3.29,3.29,0,0,1,1,2.46v.59a3.52,3.52,0,0,1-3.46,3.46Z" transform="translate(-36.91 -71.35)"/><path d="M461.06,318.39q-1.57,3.28-3.93,3.28h-2.57a3.51,3.51,0,0,1-2.58-1.05,2.39,2.39,0,0,1-.7-1.64,2.75,2.75,0,0,1,.11-.77,9.54,9.54,0,0,1,1.82-3.25A16.53,16.53,0,0,1,456,312.3l2.9-2.17a12.39,12.39,0,0,0,2.32-2.23,4,4,0,0,0,.91-2.46,4,4,0,0,0-1.82-3.6,8.82,8.82,0,0,0-4.92-1.2,10.17,10.17,0,0,0-6.1,2,4.23,4.23,0,0,1-2.57.88h-.12a3.63,3.63,0,0,1-2.35-.88l-.82-.71a3.41,3.41,0,0,1-1.11-2.57,3,3,0,0,1,1-2.29,19.54,19.54,0,0,1,13.3-5q7,0,11.34,3.17t4.36,9.31a7.59,7.59,0,0,1-.91,3.72,10,10,0,0,1-2.34,2.9,35.49,35.49,0,0,1-3,2.29,29.19,29.19,0,0,0-3,2.34A8.58,8.58,0,0,0,461.06,318.39Zm-12.36,13.3a6.15,6.15,0,0,1,2-4.72,8,8,0,0,1,10.19,0,6.16,6.16,0,0,1,2,4.72,6.24,6.24,0,0,1-2,4.75,7.88,7.88,0,0,1-10.19,0A6.23,6.23,0,0,1,448.7,331.69Z" transform="translate(-36.91 -71.35)"/><path d="M182.54,381.18a3.42,3.42,0,0,1-3.46-3.46v-.59a3.37,3.37,0,0,1,1-2.43,3.29,3.29,0,0,1,2.46-1h25a3.5,3.5,0,0,1,3.46,3.45v.59a3.26,3.26,0,0,1-1,2.46,3.34,3.34,0,0,1-2.43,1Zm0,16.17a3.26,3.26,0,0,1-2.46-1,3.34,3.34,0,0,1-1-2.43v-.58a3.42,3.42,0,0,1,3.46-3.46h25a3.34,3.34,0,0,1,2.43,1,3.26,3.26,0,0,1,1,2.46v.58a3.52,3.52,0,0,1-3.46,3.46Z" transform="translate(-36.91 -71.35)"/><path d="M247.93,388.91q-1.58,3.29-3.93,3.28h-2.57a3.51,3.51,0,0,1-2.58-1.05,2.39,2.39,0,0,1-.7-1.64,2.64,2.64,0,0,1,.11-.76,9.49,9.49,0,0,1,1.82-3.26,16.53,16.53,0,0,1,2.78-2.66l2.9-2.17a11.79,11.79,0,0,0,2.32-2.23A4,4,0,0,0,249,376a4,4,0,0,0-1.82-3.6,8.82,8.82,0,0,0-4.92-1.2,10.17,10.17,0,0,0-6.1,2,4.17,4.17,0,0,1-2.57.88h-.12a3.58,3.58,0,0,1-2.35-.88l-.82-.7a3.44,3.44,0,0,1-1.11-2.58,3,3,0,0,1,1-2.29,19.54,19.54,0,0,1,13.3-5c4.65,0,8.42,1.06,11.34,3.17s4.36,5.21,4.36,9.32a7.65,7.65,0,0,1-.91,3.72,10.27,10.27,0,0,1-2.34,2.9,37.08,37.08,0,0,1-3,2.28,29.31,29.31,0,0,0-3,2.35A8.44,8.44,0,0,0,247.93,388.91Zm-12.36,13.3a6.13,6.13,0,0,1,2-4.71,7.94,7.94,0,0,1,10.19,0,6.14,6.14,0,0,1,2,4.71,6.24,6.24,0,0,1-2,4.75,7.88,7.88,0,0,1-10.19,0A6.23,6.23,0,0,1,235.57,402.21Z" transform="translate(-36.91 -71.35)"/></svg>